<?xml version="1.0" standalone="no"?><!DOCTYPE svg PUBLIC "-//W3C//DTD SVG 1.1//EN" "http://www.w3.org/Graphics/SVG/1.1/DTD/svg11.dtd" ><svg xmlns="http://www.w3.org/2000/svg"><metadata></metadata><defs><font id="LaurenzBrunner.www.lineto.com: Akkurat: 2004" horiz-adv-x="1175"><font-face font-family="Akkurat Pro" font-weight="400" font-stretch="normal" units-per-em="1000" panose-1="2 0 5 3 3 0 0 2 0 4" ascent="783" descent="-217" x-height="4" bbox="-81 -289 1125 930" underline-thickness="45" underline-position="-93" unicode-range="U+0020-fb02" /><missing-glyph horiz-adv-x="588" d="M88 0 l0 698 l412 0 l0 -698 l-412 0 ZM163 74 l262 0 l0 549 l-262 0 l0 -549 Z" /><glyph glyph-name="space" unicode=" " d="" /><glyph glyph-name="exclam" unicode="!" d="M232 485 l-21 -270 l-58 0 l-23 270 l0 224 l102 0 l0 -224 ZM236 0 l-106 0 l0 109 l106 0 l0 -109 Z" /><glyph glyph-name="quotedbl" unicode="&quot;" d="M354 586 l-21 -153 l-53 0 l-21 153 l0 123 l95 0 l0 -123 ZM185 586 l-21 -153 l-53 0 l-21 153 l0 123 l95 0 l0 -123 Z" /><glyph glyph-name="numbersign" unicode="#" d="M682 428 l-136 0 l-22 -161 l125 0 l0 -77 l-136 0 l-26 -189 l-78 0 l26 189 l-153 0 l-27 -189 l-78 0 l26 189 l-128 0 l0 77 l139 0 l22 161 l-128 0 l0 78 l139 0 l26 189 l78 0 l-26 -189 l153 0 l27 189 l78 0 l-26 -189 l125 0 l0 -78 ZM468 428 l-154 0 l-22 -161 l153 0 l23 161 Z" /><glyph glyph-name="dollar" unicode="$" d="M536 204 q0 -77 -58 -135 q-60 -58 -160 -68 l0 -91 l-58 0 l0 91 q-96 8 -159 65 q-71 65 -71 162 l88 0 q0 -65 47 -107 q37 -34 95 -42 l0 243 q-23 4 -37 5 q-77 9 -126 57 q-49 48 -49 123 q0 78 59 134 q62 59 153 67 l0 92 l58 0 l0 -93 q87 -9 143 -64 q63 -62 66 -145 l-89 0 q-3 56 -36 90 q-33 35 -84 42 l0 -228 l30 -4 q85 -11 136.5 -60.5 q51.5 -49.5 51.5 -133.5 ZM260 408 l0 223 q-61 -7 -96 -44 q-28 -31 -28 -78 q0 -43 26 -67 q26 -24 69 -30 l29 -4 ZM448 202 q0 47 -31 76 q-31 29 -83 35 l-16 2 l0 -236 q59 6 94 40 q36 34 36 83 Z" /><glyph glyph-name="percent" unicode="%" d="M854 178 q0 -75 -31 -121 q-48 -70 -132 -70 q-84 0 -132 70 q-31 46 -31 121 q0 76 31 122 q48 70 132 70 q84 0 132 -70 q31 -46 31 -122 ZM746 685 l-516 -706 l-54 41 l515 704 l55 -39 ZM386 531 q0 -75 -31 -121 q-48 -70 -132 -70 q-84 0 -132 70 q-31 46 -31 121 q0 76 31 122 q48 70 132 70 q84 0 132 -70 q31 -46 31 -122 ZM777 178 q0 71 -29 101 q-22 24 -57 24 q-36 0 -58 -24 q-29 -30 -29 -101 q0 -70 29 -100 q22 -24 58 -24 q35 0 57 24 q29 30 29 100 ZM309 531 q0 71 -29 101 q-22 24 -57 24 q-36 0 -58 -24 q-29 -30 -29 -101 q0 -70 29 -100 q22 -24 58 -24 q35 0 57 24 q29 30 29 100 Z" /><glyph glyph-name="ampersand" unicode="&amp;" d="M675 332 l-73 0 q0 -53 -13 -108.5 q-13 -55.5 -36 -88.5 l121 -135 l-108 0 l-61 69 q-72 -82 -202 -82 q-94 0 -158 56 q-64 56 -64 149 q0 55 26.5 101 q26.5 46 73.5 76 l35 22 q-30 34 -43.5 51 q-13.5 17 -27 48.5 q-13.5 31.5 -13.5 66.5 q0 73 50.5 119 q50.5 46 128.5 46 q80 0 130.5 -45.5 q50.5 -45.5 50.5 -122.5 q0 -102 -91 -157 q-9 -5 -25.5 -16 q-16.5 -11 -25.5 -16 l147 -166 q5 9 9 21.5 q4 12.5 6.5 23 q2.5 10.5 4.5 28 q2 17.5 3 26.5 q1 9 1.5 30 q0.5 21 0.5 26.5 q0 5.5 0 27.5 q0 22 0 23 l153 0 l0 -73 ZM451 130 l-183 204 l-41 -26 q-61 -41 -61 -114 q0 -56 38 -92 q38 -36 94 -36 q103 0 153 64 ZM409 553 q0 45 -26.5 71 q-26.5 26 -73.5 26 q-42 0 -68 -25.5 q-26 -25.5 -26 -66.5 q0 -16 4 -31 q4 -15 15 -31 q11 -16 17 -24 q6 -8 24 -26.5 q18 -18.5 21 -22.5 q1 0 18 9.5 q17 9.5 19 11 q2 1.5 16.5 10 q14.5 8.5 17 12 q2.5 3.5 13 12.5 q10.5 9 13 15.5 q2.5 6.5 8 16.5 q5.5 10 7 20.5 q1.5 10.5 1.5 22.5 Z" /><glyph glyph-name="quotesingle" unicode="&#39;" d="M180 586 l-21 -153 l-53 0 l-21 153 l0 123 l95 0 l0 -123 Z" /><glyph glyph-name="parenleft" unicode="(" d="M288 -105 l-53 -37 q-80 90 -124 215 q-44 125 -44 249 q0 124 44 249 q44 125 124 215 l53 -37 q-147 -194 -147 -427 q0 -233 147 -427 Z" /><glyph glyph-name="parenright" unicode=")" d="M192 571 q44 -125 44 -249 q0 -124 -44 -249 q-44 -125 -124 -215 l-53 37 q147 194 147 427 q0 233 -147 427 l53 37 q80 -90 124 -215 Z" /><glyph glyph-name="asterisk" unicode="*" d="M478 512 l-159 -41 l104 -129 l-67 -48 l-90 139 l-89 -139 l-67 50 l104 127 l-159 41 l26 79 l153 -60 l-8 165 l83 0 l-10 -165 l154 60 l25 -79 Z" /><glyph glyph-name="plus" unicode="+" d="M616 268 l-241 0 l0 -263 l-70 0 l0 263 l-240 0 l0 69 l240 0 l0 247 l70 0 l0 -247 l241 0 l0 -69 Z" /><glyph glyph-name="comma" unicode="," d="M209 -1 q0 -58 -22.5 -96.5 q-22.5 -38.5 -75.5 -60.5 l-26 47 q38 17 51 41 q13 24 13 69 l-62 0 l0 117 l122 0 l0 -117 Z" /><glyph glyph-name="hyphen" unicode="-" d="M367 262 l-297 0 l0 79 l297 0 l0 -79 Z" /><glyph glyph-name="period" unicode="." d="M206 0 l-118 0 l0 119 l118 0 l0 -119 Z" /><glyph glyph-name="slash" unicode="/" d="M393 722 l-308 -735 l-68 0 l308 735 l68 0 Z" /><glyph glyph-name="zero" unicode="0" d="M495.5 530.5 q16.5 -70.5 16.5 -182.5 q0 -112 -16.5 -182 q-16.5 -70 -65.5 -120 q-59 -59 -150 -59 q-91 0 -150 59 q-49 50 -65.5 120 q-16.5 70 -16.5 182 q0 112 16.5 182.5 q16.5 70.5 65.5 120.5 q58 58 150 58 q92 0 150 -58 q49 -50 65.5 -120.5 ZM422 274.5 q1 22.5 1 73.5 q0 51 -1 73.5 q-1 22.5 -5.5 63 q-4.5 40.5 -17 67.5 q-12.5 27 -33.5 47 q-34 32 -86 32 q-52 0 -86 -32 q-21 -20 -33.5 -47 q-12.5 -27 -17 -67.5 q-4.5 -40.5 -5.5 -63 q-1 -22.5 -1 -73.5 q0 -51 1 -73.5 q1 -22.5 5.5 -63 q4.5 -40.5 17 -67.5 q12.5 -27 33.5 -47 q34 -32 86 -32 q52 0 86 32 q21 20 33.5 47 q12.5 27 17 67.5 q4.5 40.5 5.5 63 Z" /><glyph glyph-name="one" unicode="1" d="M368 0 l-87 0 l0 598 l-165 -121 l0 95 l170 123 l82 0 l0 -695 Z" /><glyph glyph-name="two" unicode="2" d="M489 0 l-417 0 l0 73 l281 347 q38 48 38 100 q0 53 -29.5 82.5 q-29.5 29.5 -84.5 29.5 q-51 0 -84.5 -30.5 q-33.5 -30.5 -33.5 -95.5 l-88 0 q0 91 56.5 147 q56.5 56 148.5 56 q113 0 170 -80 q32 -46 32 -108 q0 -75 -59 -148 l-236 -293 l306 0 l0 -80 Z" /><glyph glyph-name="three" unicode="3" d="M494 190 q0 -84 -53 -140 q-60 -63 -168 -63 q-96 0 -159 63 q-58 58 -59 149 l87 0 q3 -62 36 -96 q36 -39 95 -39 q65 0 101 40 q33 36 33 88 q0 62 -39 95.5 q-39 33.5 -104 33.5 l-42 0 l0 79 l42 0 q60 0 94 31 q34 31 34 86 q0 49 -33 81 q-34 34 -85 34 q-50 0 -85 -28 q-40 -33 -42 -98 l-87 0 q1 99 67 153 q61 50 149 50 q89 0 148 -56 q56 -51 56 -136 q0 -49 -29.5 -94 q-29.5 -45 -72.5 -63 q54 -18 85 -66 q31 -48 31 -104 Z" /><glyph glyph-name="four" unicode="4" d="M529 148 l-94 0 l0 -148 l-86 0 l0 148 l-319 0 l0 89 l264 458 l90 0 l-272 -470 l237 0 l0 207 l86 0 l0 -207 l94 0 l0 -77 Z" /><glyph glyph-name="five" unicode="5" d="M510 229 q0 -113 -58 -177 q-59 -66 -162 -66 q-99 0 -161 60 q-59 58 -64 154 l85 0 q3 -63 39 -99 q37 -37 100 -37 q66 0 101 45 q34 43 34 116 q0 75 -39 119 q-36 39 -96 39 q-78 0 -115 -61 l-95 0 l19 373 l384 0 l0 -77 l-311 0 l-11 -222 q43 63 146 63 q87 0 142 -57 q62 -64 62 -173 Z" /><glyph glyph-name="six" unicode="6" d="M515 224 q0 -101 -63 -170 q-62 -67 -164 -67 q-108 0 -170 86 q-59 81 -59 265 q0 194 52 277 q60 94 181 94 q87 0 144 -57 q53 -53 56 -125 l-86 0 q-3 47 -39 78 q-32 27 -78 27 q-58 0 -95 -42 q-47 -53 -49 -213 q16 36 60 58.5 q44 22.5 94 22.5 q90 0 146 -54 q70 -67 70 -180 ZM429 223 q0 73 -41 119 q-35 40 -98 40 q-60 0 -97 -42 q-39 -44 -39 -117 q0 -73 41 -117 q39 -42 97 -42 q59 0 96 40 q41 44 41 119 Z" /><glyph glyph-name="seven" unicode="7" d="M496 618 l-287 -618 l-92 0 l289 618 l-356 0 l0 77 l446 0 l0 -77 Z" /><glyph glyph-name="eight" unicode="8" d="M505 191 q0 -74 -46 -128 q-64 -76 -179 -76 q-115 0 -179 76 q-46 54 -46 128 q0 56 30 102.5 q30 46.5 79 68.5 q-43 23 -69 65 q-26 42 -26 92 q0 80 57 134 q61 56 154 56 q93 0 154 -56 q57 -54 57 -134 q0 -50 -26 -92 q-26 -42 -69 -65 q49 -22 79 -68.5 q30 -46.5 30 -102.5 ZM405 519 q0 52 -36 83.5 q-36 31.5 -89 31.5 q-53 0 -89 -31.5 q-36 -31.5 -36 -83.5 q0 -50 33.5 -85 q33.5 -35 91.5 -35 q58 0 91.5 35 q33.5 35 33.5 85 ZM419 195 q0 57 -37.5 93.5 q-37.5 36.5 -101.5 36.5 q-64 0 -101.5 -36.5 q-37.5 -36.5 -37.5 -93.5 q0 -61 38.5 -97 q38.5 -36 100.5 -36 q62 0 100.5 36 q38.5 36 38.5 97 Z" /><glyph glyph-name="nine" unicode="9" d="M505 358 q0 -194 -52 -277 q-60 -94 -181 -94 q-89 0 -144 57 q-53 53 -56 125 l86 0 q3 -47 39 -78 q30 -27 78 -27 q58 0 95 42 q47 53 49 213 q-16 -36 -60 -58.5 q-44 -22.5 -94 -22.5 q-90 0 -146 54 q-70 67 -70 180 q0 101 63 170 q62 67 164 67 q106 0 170 -86 q59 -81 59 -265 ZM410 473 q0 73 -41 117 q-39 42 -97 42 q-59 0 -96 -40 q-41 -44 -41 -119 q0 -73 41 -119 q35 -40 98 -40 q60 0 97 42 q39 44 39 117 Z" /><glyph glyph-name="colon" unicode=":" d="M216 395 l-110 0 l0 111 l110 0 l0 -111 ZM216 -1 l-110 0 l0 110 l110 0 l0 -110 Z" /><glyph glyph-name="semicolon" unicode=";" d="M216 394 l-110 0 l0 112 l110 0 l0 -112 ZM216 0 q0 -57 -20 -92 q-20 -35 -70 -56 l-23 44 q36 16 48 39 q12 23 12 65 l-57 0 l0 110 l110 0 l0 -110 Z" /><glyph glyph-name="less" unicode="&lt;" d="M412 36 l-48 -49 l-319 318 l318 317 l49 -48 l-269 -269 l269 -269 Z" /><glyph glyph-name="equal" unicode="=" d="M587 344 l-482 0 l0 77 l482 0 l0 -77 ZM587 134 l-482 0 l0 77 l482 0 l0 -77 Z" /><glyph glyph-name="greater" unicode="&gt;" d="M427 305 l-319 -318 l-48 49 l269 269 l-269 269 l49 48 l318 -317 Z" /><glyph glyph-name="question" unicode="?" d="M474 535 q0 -105 -108 -184 q-45 -33 -58 -60.5 q-13 -27.5 -13 -76.5 l0 -25 l-82 0 l0 28 q0 75 23.5 114 q23.5 39 88.5 89 q61 47 61 116 q0 44 -30 76 q-34 36 -92 36 q-63 0 -98.5 -41 q-35.5 -41 -35.5 -102 l-90 0 q0 91 59.5 155.5 q59.5 64.5 164.5 64.5 q88 0 149 -52 q61 -52 61 -138 ZM306 0 l-106 0 l0 110 l106 0 l0 -110 Z" /><glyph glyph-name="at" unicode="@" d="M875 380 q0 -48 -11.5 -93.5 q-11.5 -45.5 -34.5 -86 q-23 -40.5 -63.5 -65 q-40.5 -24.5 -92.5 -24.5 q-39 0 -66 19.5 q-27 19.5 -32 56.5 q-15 -33 -49 -53.5 q-34 -20.5 -71 -20.5 q-75 0 -116 53 q-41 53 -41 138 q0 88 49 146.5 q49 58.5 135 58.5 q29 0 56 -14.5 q27 -14.5 40 -38.5 l11 42 l67 0 l-18 -253 q-4 -63 41 -63 q31 0 54.5 21 q23.5 21 36 53 q12.5 32 18.5 63.5 q6 31.5 6 59.5 q0 117 -72 189 q-80 80 -220 80 q-135 0 -226 -81 q-106 -94 -106 -259 q0 -141 89 -233 q84 -86 217 -86 q140 0 251 48 l0 -73 q-103 -50 -252 -50 q-163 0 -267 96 q-123 114 -123 307 q0 180 116 291 q119 114 300 114 q175 0 281 -104 q93 -91 93 -238 ZM568 325 q0 115 -90 115 q-49 0 -72 -41 q-23 -41 -23 -95 q0 -49 20 -83.5 q20 -34.5 65 -34.5 q54 0 77 40 q23 40 23 99 Z" /><glyph glyph-name="A" unicode="a" d="M613 0 l-92 0 l-58 168 l-308 0 l-57 -168 l-90 0 l250 709 l104 0 l251 -709 ZM434 252 l-126 368 l-125 -368 l251 0 Z" /><glyph glyph-name="B" unicode="b" d="M618 198 q0 -76 -54 -133 q-60 -65 -178 -65 l-286 0 l0 709 l283 0 q114 0 173 -65 q46 -51 46 -118 q0 -53 -27 -96.5 q-27 -43.5 -75 -60.5 q54 -18 86 -66 q32 -48 32 -105 ZM511 519 q0 53 -37 82 q-37 29 -91 29 l-196 0 l0 -223 l199 0 q58 0 91.5 27.5 q33.5 27.5 33.5 84.5 ZM527 204 q0 57 -40 91 q-40 34 -99 34 l-201 0 l0 -247 l199 0 q62 0 101.5 31 q39.5 31 39.5 91 Z" /><glyph glyph-name="C" unicode="c" d="M594 226 q-4 -97 -70 -164 q-34 -34 -84 -55 q-50 -21 -106 -21 q-114 0 -192 76 q-53 52 -71 122.5 q-18 70.5 -18 169.5 q0 99 18 169.5 q18 70.5 71 122.5 q78 76 192 76 q116 0 189 -73 q66 -67 70 -162 l-92 0 q-1 57 -39 99 q-47 52 -128 52 q-77 0 -129 -54 q-27 -28 -41 -72 q-14 -44 -16.5 -76.5 q-2.5 -32.5 -2.5 -81.5 q0 -49 2.5 -81.5 q2.5 -32.5 16.5 -76.5 q14 -44 41 -72 q52 -54 129 -54 q80 0 129 54 q37 42 39 102 l92 0 Z" /><glyph glyph-name="D" unicode="d" d="M624 355 q0 -197 -91 -284 q-74 -71 -186 -71 l-247 0 l0 709 l247 0 q111 0 186 -72 q91 -86 91 -282 ZM534 355 q0 73 -11.5 128.5 q-11.5 55.5 -49.5 94.5 q-49 49 -126 49 l-158 0 l0 -545 l158 0 q77 0 126 49 q61 62 61 224 Z" /><glyph glyph-name="E" unicode="e" d="M574 0 l-474 0 l0 709 l474 0 l0 -82 l-385 0 l0 -216 l338 0 l0 -84 l-338 0 l0 -245 l385 0 l0 -82 Z" /><glyph glyph-name="F" unicode="f" d="M559 627 l-370 0 l0 -231 l330 0 l0 -84 l-330 0 l0 -312 l-89 0 l0 709 l459 0 l0 -82 Z" /><glyph glyph-name="G" unicode="g" d="M606 0 l-62 0 l-15 85 q-26 -44 -79.5 -71.5 q-53.5 -27.5 -113.5 -27.5 q-117 0 -191 73 q-51 50 -71.5 121.5 q-20.5 71.5 -20.5 173.5 q0 97 19.5 168.5 q19.5 71.5 72.5 123.5 q78 76 191 76 q128 0 203 -80 q57 -60 61 -138 l-93 0 q-4 44 -32 78 q-47 56 -139 56 q-77 0 -129 -54 q-62 -64 -62 -230 q0 -168 64 -233 q50 -51 127 -51 q80 0 129 49 q61 60 61 180 l-190 0 l0 83 l270 0 l0 -382 Z" /><glyph glyph-name="H" unicode="h" d="M618 0 l-89 0 l0 327 l-340 0 l0 -327 l-89 0 l0 709 l89 0 l0 -296 l340 0 l0 296 l89 0 l0 -709 Z" /><glyph glyph-name="I" unicode="i" d="M191 0 l-91 0 l0 709 l91 0 l0 -709 Z" /><glyph glyph-name="J" unicode="j" d="M413 198 q0 -97 -52.5 -154 q-52.5 -57 -147.5 -57 q-90 0 -148 60 q-57 58 -57 168 l90 0 q0 -81 37 -116 q31 -29 78 -29 q111 0 111 128 l0 511 l89 0 l0 -511 Z" /><glyph glyph-name="K" unicode="k" d="M649 0 l-104 0 l-212 368 l-144 -168 l0 -200 l-89 0 l0 709 l89 0 l0 -378 l325 378 l111 0 l-231 -270 l255 -439 Z" /><glyph glyph-name="L" unicode="l" d="M530 0 l-430 0 l0 709 l89 0 l0 -626 l341 0 l0 -83 Z" /><glyph glyph-name="M" unicode="m" d="M780 0 l-85 0 l0 598 l-220 -588 l-70 0 l-220 593 l0 -603 l-85 0 l0 709 l128 0 l214 -577 l213 577 l125 0 l0 -709 Z" /><glyph glyph-name="N" unicode="n" d="M634 0 l-100 0 l-348 570 l0 -570 l-86 0 l0 709 l100 0 l348 -572 l0 572 l86 0 l0 -709 Z" /><glyph glyph-name="O" unicode="o" d="M598 523 q19 -71 19 -169 q0 -98 -19 -169 q-19 -71 -72 -123 q-78 -76 -191 -76 q-113 0 -191 76 q-53 52 -72 123 q-19 71 -19 169 q0 98 19 169 q19 71 72 123 q78 76 191 76 q113 0 191 -76 q53 -52 72 -123 ZM522.5 273 q2.5 33 2.5 81 q0 48 -2.5 81 q-2.5 33 -17 77 q-14.5 44 -41.5 72 q-51 53 -129 53 q-78 0 -129 -53 q-27 -28 -41.5 -72 q-14.5 -44 -17 -77 q-2.5 -33 -2.5 -81 q0 -48 2.5 -81 q2.5 -33 17 -77 q14.5 -44 41.5 -72 q51 -53 129 -53 q78 0 129 53 q27 28 41.5 72 q14.5 44 17 77 Z" /><glyph glyph-name="P" unicode="p" d="M597 495 q0 -102 -59 -161 q-59 -59 -174 -59 l-175 0 l0 -275 l-89 0 l0 709 l263 0 q121 0 180 -64 q54 -59 54 -150 ZM505 495 q0 66 -38 99.5 q-38 33.5 -106 33.5 l-172 0 l0 -272 l173 0 q143 0 143 139 Z" /><glyph glyph-name="Q" unicode="q" d="M617 354 q0 -97 -18.5 -168 q-18.5 -71 -71.5 -123 l64 -83 l-59 -46 l-65 84 q-62 -32 -132 -32 q-113 0 -191 76 q-53 52 -72 123 q-19 71 -19 169 q0 98 19 169 q19 71 72 123 q78 76 191 76 q113 0 191 -76 q53 -52 72 -123 q19 -71 19 -169 ZM525 354 q0 48 -2.5 81 q-2.5 33 -17 77 q-14.5 44 -41.5 72 q-51 53 -129 53 q-78 0 -129 -53 q-27 -28 -41.5 -72 q-14.5 -44 -17 -77 q-2.5 -33 -2.5 -81 q0 -48 2.5 -81 q2.5 -33 17 -77 q14.5 -44 41.5 -72 q51 -53 129 -53 q39 0 78 17 l-84 108 l58 45 l85 -108 q53 64 53 221 Z" /><glyph glyph-name="R" unicode="r" d="M617 0 l-98 0 l-134 295 l-196 0 l0 -295 l-89 0 l0 709 l278 0 q119 0 180 -63 q56 -59 56 -144 q0 -83 -54 -140 q-31 -33 -85 -50 l142 -312 ZM522 502 q0 125 -144 125 l-189 0 l0 -249 l189 0 q144 0 144 124 Z" /><glyph glyph-name="S" unicode="s" d="M585 195 q0 -79 -60 -137 q-72 -71 -201 -71 q-129 0 -203 68 q-76 71 -76 170 l93 0 q0 -64 50 -112 q45 -44 136 -44 q88 0 132 41 q36 33 36 83 q0 44 -29.5 74.5 q-29.5 30.5 -89.5 39.5 l-112 17 q-85 13 -137 60 q-52 47 -52 128 q0 81 62 140 q75 70 186 70 q113 0 184 -68 q65 -62 68 -152 l-93 0 q-3 52 -35 89 q-43 49 -125 49 q-83 0 -126 -49 q-29 -34 -29 -77 q0 -44 30.5 -69 q30.5 -25 75.5 -31 q5 -1 118 -18 q90 -13 143.5 -66 q53.5 -53 53.5 -135 Z" /><glyph glyph-name="T" unicode="t" d="M525 626 l-211 0 l0 -626 l-90 0 l0 626 l-211 0 l0 83 l512 0 l0 -83 Z" /><glyph glyph-name="U" unicode="u" d="M598 260 q0 -131 -69 -202 q-69 -71 -190 -71 q-121 0 -190 71 q-69 71 -69 202 l0 449 l89 0 l0 -451 q0 -188 170 -188 q170 0 170 188 l0 451 l89 0 l0 -449 Z" /><glyph glyph-name="V" unicode="v" d="M575 709 l-239 -709 l-93 0 l-239 709 l92 0 l196 -599 l192 599 l91 0 Z" /><glyph glyph-name="W" unicode="w" d="M830 709 l-141 -709 l-95 0 l-162 571 l-164 -571 l-94 0 l-142 709 l83 0 l113 -578 l164 568 l80 0 l164 -567 l113 577 l81 0 Z" /><glyph glyph-name="X" unicode="x" d="M569 0 l-99 0 l-180 291 l-178 -291 l-97 0 l224 358 l-220 351 l99 0 l178 -287 l175 287 l95 0 l-221 -351 l224 -358 Z" /><glyph glyph-name="Y" unicode="y" d="M566 709 l-238 -421 l0 -288 l-90 0 l0 288 l-238 421 l100 0 l186 -337 l185 337 l95 0 Z" /><glyph glyph-name="Z" unicode="z" d="M566 0 l-523 0 l0 89 l413 537 l-409 0 l0 83 l515 0 l0 -90 l-414 -536 l418 0 l0 -83 Z" /><glyph glyph-name="bracketleft" unicode="[" d="M286 -114 l-188 0 l0 871 l188 0 l0 -62 l-119 0 l0 -747 l119 0 l0 -62 Z" /><glyph glyph-name="backslash" unicode="\" d="M383 -13 l-70 0 l-308 735 l70 0 l308 -735 Z" /><glyph glyph-name="bracketright" unicode="]" d="M213 -114 l-188 0 l0 62 l118 0 l0 747 l-118 0 l0 62 l188 0 l0 -871 Z" /><glyph glyph-name="asciicircum" unicode="^" d="M477 405 l-89 0 l-117 225 l-118 -225 l-88 0 l168 317 l76 0 l168 -317 Z" /><glyph glyph-name="underscore" unicode="_" d="M520 -60 l-495 0 l0 60 l495 0 l0 -60 Z" /><glyph glyph-name="grave" unicode="`" d="M226 598 l-31 -47 l-185 99 l45 71 l171 -123 Z" /><glyph glyph-name="a" unicode="a" d="M517 5 q-24 -12 -56 -12 q-33 0 -53 22 q-20 22 -20 55 l-2 0 q-22 -38 -66 -60.5 q-44 -22.5 -97 -22.5 q-82 0 -128 46.5 q-46 46.5 -46 109.5 q0 36 15 68.5 q15 32.5 57.5 59 q42.5 26.5 107.5 30.5 l154 9 l0 37 q0 53 -26 77 q-28 26 -83 26 q-62 0 -92 -30 q-25 -25 -25 -61 l-83 0 q1 62 44 106 q51 54 156 54 q136 0 178 -97 q15 -34 15 -78 l0 -245 q0 -34 28 -34 l22 3 l0 -63 ZM383 214 l0 30 l-136 -8 q-45 -3 -78 -25 q-33 -22 -33 -66 q0 -37 24.5 -62 q24.5 -25 75.5 -25 q64 0 104 41 q43 44 43 115 Z" /><glyph glyph-name="b" unicode="b" d="M541 252 q0 -135 -73 -210 q-53 -55 -143 -55 q-45 0 -87.5 21 q-42.5 21 -63.5 58 l-6 -66 l-75 0 l0 722 l85 0 l0 -275 q19 33 61.5 52.5 q42.5 19.5 85.5 19.5 q85 0 139 -51 q77 -74 77 -216 ZM421 115 q33 56 33 138 q0 82 -33 138 q-33 56 -110 56 q-45 0 -82 -33 q-56 -49 -56 -161 q0 -112 56 -161 q37 -33 82 -33 q77 0 110 56 Z" /><glyph glyph-name="c" unicode="c" d="M486 170 q-6 -76 -59 -128 q-57 -55 -146 -55 q-120 0 -185 95 q-42 62 -42 171 q0 109 42 171 q65 95 184 95 q88 0 144 -54 q54 -53 60 -130 l-86 0 q-6 49 -36 79 q-33 31 -82 31 q-50 0 -88 -33 q-51 -43 -51 -159 q0 -116 51 -159 q38 -33 88 -33 q54 0 86 34 q29 30 34 75 l86 0 Z" /><glyph glyph-name="d" unicode="d" d="M502 0 l-75 0 l-6 66 q-21 -37 -63.5 -58 q-42.5 -21 -87.5 -21 q-90 0 -143 55 q-73 75 -73 210 q0 142 77 216 q54 51 139 51 q43 0 85.5 -19.5 q42.5 -19.5 61.5 -52.5 l0 275 l85 0 l0 -722 ZM366 92 q56 49 56 161 q0 112 -56 161 q-37 33 -82 33 q-77 0 -110 -56 q-33 -56 -33 -138 q0 -82 33 -138 q33 -56 110 -56 q45 0 82 33 Z" /><glyph glyph-name="e" unicode="e" d="M501 276 l-1 -51 l-358 0 q0 -78 49 -127 q36 -36 93 -36 q62 0 94 33 q21 21 30 55 l83 0 q-11 -79 -78 -125 q-57 -38 -129 -38 q-104 0 -168 76 q-63 73 -63 188 q0 97 39 162 q28 48 77.5 77 q49.5 29 113.5 29 q94 0 154 -65 q66 -72 64 -178 ZM414 298 q0 61 -31 103 q-35 46 -100 46 q-65 0 -101 -44 q-36 -44 -38 -105 l270 0 Z" /><glyph glyph-name="f" unicode="f" d="M361 652 q-72 8 -84 8 q-33 0 -52.5 -19 q-19.5 -19 -19.5 -50 l0 -85 l146 0 l0 -72 l-146 0 l0 -434 l-85 0 l0 434 l-92 0 l0 72 l92 0 l0 90 q0 58 41 97 q41 39 106 39 q44 0 94 -9 l0 -71 Z" /><glyph glyph-name="g" unicode="g" d="M485 24 q40 -40 40 -99 q0 -59 -43 -102 q-60 -59 -204 -59 q-133 0 -192 59 q-36 36 -36 90 q0 76 72 112 q-26 10 -42.5 33 q-16.5 23 -16.5 52 q0 66 67 98 q-58 52 -58 131 q0 73 48 123 q55 57 150 57 q67 0 116 -30 q13 34 40.5 52.5 q27.5 18.5 63.5 18.5 q9 0 25 -2 l0 -69 q-5 1 -19 1 q-25 0 -41.5 -12.5 q-16.5 -12.5 -20.5 -33.5 q33 -42 33 -105 q0 -70 -46 -121 q-55 -60 -151 -60 q-44 0 -85 14 q-40 -13 -43 -45 q-1 -16 5.5 -26.5 q6.5 -10.5 19.5 -15 q13 -4.5 24.5 -6.5 q11.5 -2 26.5 -2 l100 0 q115 0 167 -53 ZM352 258 q32 32 32 81 q0 49 -31 80 q-31 31 -84 31 q-51 0 -83 -31.5 q-32 -31.5 -32 -79.5 q0 -49 31 -81 q31 -32 84 -32 q51 0 83 32 ZM442 -75 q0 19 -6 33.5 q-6 14.5 -19 23 q-13 8.5 -24 14 q-11 5.5 -32.5 7 q-21.5 1.5 -32 2 q-10.5 0.5 -33.5 0.5 q-8 0 -12 0 l-92 0 q-27 -9 -45.5 -30.5 q-18.5 -21.5 -18.5 -49.5 q0 -32 21 -53 q35 -35 135 -35 q102 0 138 36 q21 21 21 52 Z" /><glyph glyph-name="h" unicode="h" d="M502 0 l-85 0 l0 321 q0 121 -111 121 q-73 0 -110 -78 q-18 -39 -18 -129 l0 -235 l-85 0 l0 722 l85 0 l0 -283 q22 38 63 59 q41 21 85 21 q85 0 130.5 -48.5 q45.5 -48.5 45.5 -137.5 l0 -333 Z" /><glyph glyph-name="i" unicode="i" d="M186 622 l-99 0 l0 100 l99 0 l0 -100 ZM180 0 l-87 0 l0 506 l87 0 l0 -506 Z" /><glyph glyph-name="j" unicode="j" d="M196 622 l-99 0 l0 100 l99 0 l0 -100 ZM190 -71 q0 -68 -34.5 -105.5 q-34.5 -37.5 -104.5 -37.5 q-35 0 -66 10 l0 73 q26 -5 63 -5 q27 0 42 18.5 q15 18.5 15 45.5 l0 578 l85 0 l0 -577 Z" /><glyph glyph-name="k" unicode="k" d="M529 0 l-96 0 l-158 244 l-97 -108 l0 -136 l-85 0 l0 722 l85 0 l0 -471 l229 255 l103 0 l-180 -200 l199 -306 Z" /><glyph glyph-name="l" unicode="l" d="M256 0 q-19 -6 -60 -6 q-106 0 -106 124 l0 604 l85 0 l0 -599 q0 -27 10.5 -39.5 q10.5 -12.5 35.5 -12.5 l35 1 l0 -72 Z" /><glyph glyph-name="m" unicode="m" d="M793 0 l-85 0 l0 322 q0 58 -23 89 q-23 31 -80 31 q-45 0 -77 -34 q-43 -44 -43 -139 l0 -269 l-85 0 l0 322 q0 58 -22.5 89 q-22.5 31 -79.5 31 q-51 0 -86 -45 q-34 -44 -34 -128 l0 -269 l-85 0 l0 506 l74 0 l8 -72 q19 41 58 63 q39 22 84 22 q117 0 151 -96 q20 46 63 71 q43 25 93 25 q84 0 126.5 -49.5 q42.5 -49.5 42.5 -136.5 l0 -333 Z" /><glyph glyph-name="n" unicode="n" d="M502 0 l-85 0 l0 321 q0 121 -111 121 q-73 0 -110 -78 q-18 -39 -18 -129 l0 -235 l-85 0 l0 506 l74 0 l7 -76 q19 41 63 65 q44 24 90 24 q85 0 130 -48.5 q45 -48.5 45 -137.5 l0 -333 Z" /><glyph glyph-name="o" unicode="o" d="M432 460 q72 -71 72 -207 q0 -136 -72 -207 q-61 -59 -153 -59 q-92 0 -153 59 q-72 71 -72 207 q0 136 72 207 q61 59 153 59 q92 0 153 -59 ZM370 96 q47 48 47 157 q0 109 -47 157 q-36 36 -91 36 q-55 0 -91 -36 q-47 -48 -47 -157 q0 -109 47 -157 q36 -36 91 -36 q55 0 91 36 Z" /><glyph glyph-name="p" unicode="p" d="M541 253 q0 -142 -77 -216 q-54 -51 -139 -51 q-43 0 -85.5 19.5 q-42.5 19.5 -61.5 52.5 l0 -275 l-85 0 l0 722 l75 0 l6 -66 q21 37 63.5 58 q42.5 21 87.5 21 q90 0 143 -55 q73 -75 73 -210 ZM421 114 q33 56 33 138 q0 82 -33 138 q-33 56 -110 56 q-45 0 -82 -33 q-56 -49 -56 -161 q0 -112 56 -161 q37 -33 82 -33 q77 0 110 56 Z" /><glyph glyph-name="q" unicode="q" d="M502 -217 l-85 0 l0 275 q-19 -33 -61.5 -52.5 q-42.5 -19.5 -85.5 -19.5 q-85 0 -139 51 q-77 74 -77 216 q0 135 73 210 q53 55 143 55 q45 0 87.5 -21 q42.5 -21 63.5 -58 l6 66 l75 0 l0 -722 ZM366 91 q56 49 56 161 q0 112 -56 161 q-37 33 -82 33 q-77 0 -110 -56 q-33 -56 -33 -138 q0 -82 33 -138 q33 -56 110 -56 q45 0 82 33 Z" /><glyph glyph-name="r" unicode="r" d="M366 423 q-20 4 -47 4 q-54 0 -96 -40 q-46 -44 -46 -162 l0 -225 l-84 0 l0 506 l75 0 l7 -89 q19 45 60 68.5 q41 23.5 91 23.5 q20 0 40 -3 l0 -83 Z" /><glyph glyph-name="s" unicode="s" d="M468 147 q0 -61 -40 -103 q-56 -57 -165 -57 q-106 0 -164 57 q-49 47 -49 116 l85 0 q1 -49 41 -79 q31 -23 91 -23 q60 0 93 28 q25 20 25 55 q0 61 -79 72 l-114 15 q-58 9 -91 44 q-33 35 -33 92 q0 57 42 99 q54 56 149 56 q110 0 161 -64 q36 -44 36 -97 l-85 0 q-2 39 -29 63 q-30 27 -83 27 q-35 0 -59 -10 q-51 -21 -51 -68 q0 -56 68 -66 q9 -1 30 -4 q21 -3 44.5 -6 q23.5 -3 47.5 -7 q56 -9 92.5 -47 q36.5 -38 36.5 -93 Z" /><glyph glyph-name="t" unicode="t" d="M355 7 q-54 -14 -101 -14 q-75 0 -107 39 q-32 39 -32 98 l0 303 l-98 0 l0 73 l98 0 l0 129 l85 20 l0 -149 l150 0 l0 -73 l-150 0 l0 -293 q0 -36 16 -52.5 q16 -16.5 52 -16.5 q16 0 38 2.5 q22 2.5 36 4.5 l13 2 l0 -73 Z" /><glyph glyph-name="u" unicode="u" d="M489 0 l-74 0 l-7 77 q-19 -42 -61 -65.5 q-42 -23.5 -89 -23.5 q-85 0 -129 48.5 q-44 48.5 -44 137.5 l0 332 l85 0 l0 -320 q0 -60 25 -90.5 q25 -30.5 83 -30.5 q48 0 84 38 q42 43 42 140 l0 263 l85 0 l0 -506 Z" /><glyph glyph-name="v" unicode="v" d="M474 506 l-183 -506 l-92 0 l-187 506 l89 0 l146 -406 l141 406 l86 0 Z" /><glyph glyph-name="w" unicode="w" d="M729 506 l-131 -506 l-82 0 l-132 387 l-135 -387 l-81 0 l-130 506 l84 0 l97 -382 l129 376 l73 0 l127 -376 l98 382 l83 0 Z" /><glyph glyph-name="x" unicode="x" d="M481 0 l-102 0 l-133 199 l-132 -199 l-97 0 l172 258 l-170 248 l100 0 l132 -191 l127 191 l98 0 l-171 -248 l176 -258 Z" /><glyph glyph-name="y" unicode="y" d="M488 506 l-228 -610 q-19 -53 -51 -80.5 q-32 -27.5 -86 -27.5 q-42 0 -77 10 l0 74 q27 -8 60 -8 q57 0 76 51 l32 85 l-202 506 l96 0 l149 -399 l142 399 l89 0 Z" /><glyph glyph-name="z" unicode="z" d="M453 0 l-400 0 l0 75 l294 357 l-294 0 l0 74 l397 0 l0 -75 l-293 -357 l296 0 l0 -74 Z" /><glyph glyph-name="braceleft" unicode="{" d="M339 -119 l-27 0 q-85 0 -120.5 42 q-35.5 42 -35.5 128 l0 156 q0 67 -101 76 l0 72 q38 5 69.5 24.5 q31.5 19.5 31.5 53.5 l0 154 q0 90 33.5 130.5 q33.5 40.5 122.5 40.5 l26 0 l0 -63 l-26 0 q-51 0 -69 -24 q-18 -24 -18 -78 l0 -161 q0 -90 -94 -108 l0 -2 q42 -10 68 -37.5 q26 -27.5 26 -68.5 l0 -161 q0 -111 88 -111 l26 0 l0 -63 Z" /><glyph glyph-name="bar" unicode="|" d="M169 -119 l-69 0 l0 877 l69 0 l0 -877 Z" /><glyph glyph-name="braceright" unicode="}" d="M294 283 q-101 -9 -101 -76 l0 -156 q0 -86 -35.5 -128 q-35.5 -42 -120.5 -42 l-27 0 l0 63 l26 0 q88 0 88 111 l0 161 q0 41 26 68.5 q26 27.5 68 37.5 l0 2 q-94 18 -94 108 l0 161 q0 54 -18 78 q-18 24 -69 24 l-26 0 l0 63 l26 0 q89 0 122.5 -40.5 q33.5 -40.5 33.5 -130.5 l0 -154 q0 -34 31.5 -53.5 q31.5 -19.5 69.5 -24.5 l0 -72 Z" /><glyph glyph-name="asciitilde" unicode="~" d="M564 311 q-45 -46 -77 -62 q-32 -16 -70 -16 q-47 0 -117 34 q-54 26 -79 26 q-24 0 -45.5 -9 q-21.5 -9 -51.5 -40 l-49 56 q44 46 76 62 q32 16 71 16 q36 0 80 -17 q12 -5 37.5 -16.5 q25.5 -11.5 38.5 -16.5 q21 -8 39 -8 q25 0 46 9 q21 9 51 39 l50 -57 Z" /><glyph glyph-name="nonbreakingspace" unicode=" " d="" /><glyph glyph-name="exclamdown" unicode="¡" d="M201 396 l-106 0 l0 109 l106 0 l0 -109 ZM197 -204 l-102 0 l0 224 l23 270 l58 0 l21 -270 l0 -224 Z" /><glyph glyph-name="cent" unicode="¢" d="M496 271 q-6 -79 -59 -131 q-46 -46 -120 -54 l0 -86 l-61 0 l0 87 q-94 11 -150 92 q-42 62 -42 172 q0 110 41 171 q56 82 151 93 l0 94 l61 0 l0 -93 q68 -7 117 -53 q54 -53 60 -133 l-86 0 q-6 52 -36 82 q-22 22 -55 28 l0 -378 q37 8 59 31 q28 30 34 78 l86 0 ZM256 162 l0 378 q-105 -23 -105 -189 q0 -167 105 -189 Z" /><glyph glyph-name="sterling" unicode="£" d="M543 157 q0 -157 -164 -157 l-327 0 l0 79 q79 2 79 80 l0 172 l-80 0 l0 73 l80 0 l0 109 q0 81 52 139 q52 58 142 58 q84 0 136 -51.5 q52 -51.5 52 -128.5 l-85 0 q0 47 -28.5 76 q-28.5 29 -76.5 29 q-54 0 -80 -33.5 q-26 -33.5 -26 -88.5 l0 -109 l161 0 l0 -73 l-161 0 l0 -176 q0 -65 -43 -77 l0 -2 l208 0 q75 0 77 81 l84 0 Z" /><glyph glyph-name="currency" unicode="¤" d="M543 52 l-64 -64 l-70 78 q-58 -41 -129 -41 q-69 0 -129 41 l-69 -78 l-65 64 l79 68 q-42 60 -42 134 q0 74 42 134 l-79 65 l66 66 l67 -77 q58 40 130 40 q72 0 129 -40 l69 78 l65 -67 l-78 -65 q42 -60 42 -134 q0 -74 -42 -134 l78 -68 ZM425 254 q0 64 -39.5 107 q-39.5 43 -105.5 43 q-71 0 -108 -41.5 q-37 -41.5 -37 -108.5 q0 -62 39 -106.5 q39 -44.5 106 -44.5 q68 0 106.5 42.5 q38.5 42.5 38.5 108.5 Z" /><glyph glyph-name="yen" unicode="¥" d="M545 695 l-179 -313 l132 0 l0 -61 l-174 0 l0 -91 l174 0 l0 -61 l-174 0 l0 -169 l-89 0 l0 169 l-163 0 l0 61 l163 0 l0 91 l-163 0 l0 61 l121 0 l-178 313 l94 0 l174 -309 l170 309 l92 0 Z" /><glyph glyph-name="brokenbar" unicode="¦" d="M176 450 l-76 0 l0 309 l76 0 l0 -309 ZM176 -50 l-76 0 l0 308 l76 0 l0 -308 Z" /><glyph glyph-name="section" unicode="§" d="M502 163 q0 -42 -25 -77.5 q-25 -35.5 -61 -57.5 q41 -47 41 -109 q0 -69 -47 -114 q-50 -48 -131 -48 q-84 0 -135 54 q-46 49 -46 125 l83 0 q0 -49 26 -78 q26 -29 72 -29 q41 0 68 24 q27 24 27 64 q0 46 -42 82 l-202 171 q-65 54 -65 135 q0 42 25 77.5 q25 35.5 61 57.5 q-41 47 -41 109 q0 67 47 112 q52 50 131 50 q84 0 135 -54 q46 -49 46 -125 l-83 0 q0 49 -26 78 q-26 29 -72 29 q-41 0 -68 -24 q-27 -24 -27 -64 q0 -46 42 -82 l202 -171 q65 -54 65 -135 ZM384 236 l-184 158 q-48 -25 -52.5 -77 q-4.5 -52 35.5 -85 l184 -158 q48 25 52.5 77 q4.5 52 -35.5 85 Z" /><glyph glyph-name="dieresis" unicode="¨" d="M279 754 l-92 0 l0 92 l92 0 l0 -92 ZM103 754 l-92 0 l0 92 l92 0 l0 -92 Z" /><glyph glyph-name="copyright" unicode="©" d="M686.5 616 q103.5 -106 103.5 -261 q0 -155 -103.5 -261.5 q-103.5 -106.5 -257.5 -106.5 q-154 0 -257.5 106 q-103.5 106 -103.5 261 q0 155 103.5 261.5 q103.5 106.5 257.5 106.5 q154 0 257.5 -106 ZM641.5 136.5 q81.5 85.5 81.5 218.5 q0 133 -81.5 218 q-81.5 85 -212.5 85 q-131 0 -212.5 -85.5 q-81.5 -85.5 -81.5 -218.5 q0 -133 81.5 -218 q81.5 -85 212.5 -85 q131 0 212.5 85.5 ZM601 300 q-6 -64 -52.5 -104 q-46.5 -40 -113.5 -40 q-91 0 -141 72 q-38 54 -38 126 q0 83 48.5 140.5 q48.5 57.5 130.5 57.5 q69 0 115 -40.5 q46 -40.5 51 -103.5 l-76 0 q-5 39 -29.5 59 q-24.5 20 -60.5 20 q-46 0 -74 -35 q-30 -37 -30 -98 q0 -62 29 -98 q28 -35 75 -35 q36 0 60.5 20 q24.5 20 29.5 59 l76 0 Z" /><glyph glyph-name="ordfeminine" unicode="ª" d="M420 315 q-19 -10 -44 -10 q-25 0 -40.5 16 q-15.5 16 -17.5 40 q-37 -60 -121 -60 q-63 0 -98.5 35.5 q-35.5 35.5 -35.5 84.5 q0 45 33.5 81.5 q33.5 36.5 105.5 40.5 l113 7 l0 26 q0 42 -18 58 q-21 19 -62 19 q-46 0 -68 -22 q-18 -18 -18 -48 l-67 0 q1 63 44.5 94.5 q43.5 31.5 108.5 31.5 q106 0 137 -75 q10 -22 10 -60 l0 -186 q0 -24 20 -24 l18 2 l0 -51 ZM315 475 l0 21 l-100 -6 q-34 -2 -58 -18.5 q-24 -16.5 -24 -48.5 q0 -27 18 -45.5 q18 -18.5 56 -18.5 q47 0 76 30 q32 32 32 86 Z" /><glyph glyph-name="guillemotleft" unicode="«" d="M495 108 l-54 -40 l-164 230 l164 230 l53 -38 l-111 -191 l112 -191 ZM263 108 l-54 -40 l-164 230 l164 230 l53 -38 l-111 -191 l112 -191 Z" /><glyph glyph-name="logicalnot" unicode="¬" d="M540 99 l-78 0 l0 165 l-407 0 l0 77 l485 0 l0 -242 Z" /><glyph glyph-name="registered" unicode="®" d="M686.5 616 q103.5 -106 103.5 -261 q0 -155 -103.5 -261.5 q-103.5 -106.5 -257.5 -106.5 q-154 0 -257.5 106 q-103.5 106 -103.5 261 q0 155 103.5 261.5 q103.5 106.5 257.5 106.5 q154 0 257.5 -106 ZM641.5 136.5 q81.5 85.5 81.5 218.5 q0 133 -81.5 218 q-81.5 85 -212.5 85 q-131 0 -212.5 -85.5 q-81.5 -85.5 -81.5 -218.5 q0 -133 81.5 -218 q81.5 -85 212.5 -85 q131 0 212.5 85.5 ZM583 169 l-73 0 l-64 141 l-75 0 l0 -141 l-67 0 l0 383 l141 0 q58 0 97 -32 q39 -32 39 -88 q0 -80 -69 -111 l71 -152 ZM511 432 q0 28 -18.5 43 q-18.5 15 -47.5 15 l-75 0 l0 -118 l75 0 q66 0 66 60 Z" /><glyph glyph-name="macron" unicode="¯" d="M287 588 l-278 0 l0 68 l278 0 l0 -68 Z" /><glyph glyph-name="degree" unicode="°" d="M348.5 675.5 q47.5 -46.5 47.5 -117.5 q0 -71 -47.5 -117.5 q-47.5 -46.5 -118.5 -46.5 q-71 0 -118 46 q-47 46 -47 118 q0 72 47 118 q47 46 118 46 q71 0 118.5 -46.5 ZM295 491 q26 26 26 67 q0 41 -26 67 q-26 26 -65 26 q-39 0 -64.5 -26 q-25.5 -26 -25.5 -67 q0 -41 25.5 -67 q25.5 -26 64.5 -26 q39 0 65 26 Z" /><glyph glyph-name="plusminus" unicode="±" d="M504 332 l-184 0 l0 -187 l-70 0 l0 187 l-185 0 l0 70 l185 0 l0 185 l70 0 l0 -185 l184 0 l0 -70 ZM504 0 l-439 0 l0 69 l439 0 l0 -69 Z" /><glyph glyph-name="twosuperior" unicode="²" d="M347 343 l-274 0 l0 63 l155 130 q39 32 39 67 q0 15 -8 25 q-15 25 -55 25 q-32 0 -49 -18.5 q-17 -18.5 -19 -51.5 l-71 0 q1 61 40.5 97 q39.5 36 100.5 36 q56 0 93.5 -31.5 q37.5 -31.5 37.5 -85.5 q0 -27 -12 -50.5 q-12 -23.5 -24.5 -36 q-12.5 -12.5 -40.5 -35.5 l-81 -68 l168 0 l0 -66 Z" /><glyph glyph-name="threesuperior" unicode="³" d="M349 447 q0 -41 -25 -69 q-39 -42 -117 -42 q-73 0 -112 45 q-30 35 -30 80 l69 0 q1 -32 21 -50 q20 -18 52 -18 q71 0 71 53 q0 56 -66 56 l-28 0 l0 57 q39 0 54 4 q32 9 32 49 q0 21 -18 35 q-18 14 -45 14 q-27 0 -48 -15.5 q-21 -15.5 -22 -47.5 l-69 0 q0 50 35 83 q39 36 105 36 q74 0 110 -43 q24 -29 24 -66 q0 -25 -16 -48.5 q-16 -23.5 -40 -29.5 q28 -7 45.5 -31.5 q17.5 -24.5 17.5 -51.5 Z" /><glyph glyph-name="acute" unicode="´" d="M230 650 l-185 -99 l-30 47 l170 123 l45 -71 Z" /><glyph glyph-name="mu" unicode="µ" d="M497 0 l-74 0 l-7 77 q-19 -42 -61 -65.5 q-42 -23.5 -89 -23.5 q-55 0 -88 26 l0 -214 l-85 0 l0 706 l85 0 l0 -320 q0 -60 25 -90.5 q25 -30.5 83 -30.5 q48 0 84 38 q42 43 42 140 l0 263 l85 0 l0 -506 Z" /><glyph glyph-name="paragraph" unicode="¶" d="M582 640 l-69 0 l0 -765 l-73 0 l0 765 l-112 0 l0 -765 l-75 0 l0 457 q-78 0 -133 55.5 q-55 55.5 -55 133.5 q0 78 55 133 q55 55 133 55 l329 0 l0 -69 Z" /><glyph glyph-name="periodcentered" unicode="·" d="M208 247 l-118 0 l0 119 l118 0 l0 -119 Z" /><glyph glyph-name="cedilla" unicode="¸" d="M165 -62 l-69 -176 l-88 41 l79 135 l78 0 Z" /><glyph glyph-name="onesuperior" unicode="¹" d="M218 345 l-71 0 l0 281 l-92 -63 l0 79 l97 67 l66 0 l0 -364 Z" /><glyph glyph-name="ordmasculine" unicode="º" d="M413 505 q0 -105 -54 -159 q-46 -46 -117 -46 q-70 0 -116 46 q-55 55 -55 159 q0 103 55 158 q46 46 116 46 q71 0 117 -46 q54 -54 54 -158 ZM343 505 q0 83 -34 118 q-24 26 -67 26 q-42 0 -66 -26 q-34 -35 -34 -118 q0 -84 34 -119 q24 -26 66 -26 q43 0 67 26 q34 35 34 119 Z" /><glyph glyph-name="guillemotright" unicode="»" d="M505 298 l-164 -230 l-54 40 l112 191 l-111 191 l53 38 l164 -230 ZM273 298 l-164 -230 l-54 40 l112 191 l-111 191 l53 38 l164 -230 Z" /><glyph glyph-name="onequarter" unicode="¼" d="M795 75 l-59 0 l0 -75 l-69 0 l0 75 l-178 0 l0 69 l143 225 l81 0 l-148 -235 l102 0 l0 78 l69 0 l0 -78 l59 0 l0 -59 ZM710 685 l-516 -706 l-54 41 l515 704 l55 -39 ZM247 345 l-71 0 l0 281 l-92 -63 l0 79 l97 67 l66 0 l0 -364 Z" /><glyph glyph-name="onehalf" unicode="½" d="M804 -1 l-274 0 l0 63 l155 130 q39 32 39 67 q0 11 -8 25 q-16 25 -55 25 q-32 0 -49.5 -19 q-17.5 -19 -18.5 -51 l-71 0 q1 61 40 97 q39 36 101 36 q56 0 93.5 -31.5 q37.5 -31.5 37.5 -85.5 q0 -27 -12 -50.5 q-12 -23.5 -24.5 -36 q-12.5 -12.5 -40.5 -35.5 l-81 -68 l168 0 l0 -66 ZM705 685 l-516 -706 l-54 41 l515 704 l55 -39 ZM242 345 l-71 0 l0 281 l-92 -63 l0 79 l97 67 l66 0 l0 -364 Z" /><glyph glyph-name="threequarters" unicode="¾" d="M837 75 l-59 0 l0 -75 l-69 0 l0 75 l-178 0 l0 69 l143 225 l81 0 l-148 -235 l102 0 l0 78 l69 0 l0 -78 l59 0 l0 -59 ZM752 685 l-516 -706 l-54 41 l515 704 l55 -39 ZM349 447 q0 -41 -25 -69 q-39 -42 -117 -42 q-73 0 -112 45 q-30 35 -30 80 l69 0 q1 -32 21 -50 q20 -18 52 -18 q71 0 71 53 q0 56 -66 56 l-28 0 l0 57 q39 0 54 4 q32 9 32 49 q0 21 -18 35 q-18 14 -45 14 q-27 0 -48 -15.5 q-21 -15.5 -22 -47.5 l-69 0 q0 50 35 83 q39 36 105 36 q74 0 110 -43 q24 -29 24 -66 q0 -25 -16 -48.5 q-16 -23.5 -40 -29.5 q28 -7 45.5 -31.5 q17.5 -24.5 17.5 -51.5 Z" /><glyph glyph-name="questiondown" unicode="¿" d="M304 397 l-106 0 l0 110 l106 0 l0 -110 ZM464 2 q0 -91 -59.5 -155.5 q-59.5 -64.5 -164.5 -64.5 q-88 0 -149 52 q-61 52 -61 138 q0 105 108 184 q45 33 58 60 q13 27 13 77 l0 25 l82 0 l0 -28 q0 -75 -23.5 -114 q-23.5 -39 -88.5 -89 q-61 -47 -61 -116 q0 -44 30 -76 q34 -36 92 -36 q63 0 98.5 41 q35.5 41 35.5 102 l90 0 Z" /><glyph glyph-name="Agrave" unicode="à" d="M613 0 l-92 0 l-58 168 l-308 0 l-57 -168 l-90 0 l250 709 l104 0 l251 -709 ZM434 252 l-126 368 l-125 -368 l251 0 ZM407 802 l-31 -47 l-185 99 l45 71 l171 -123 Z" /><glyph glyph-name="Aacute" unicode="á" d="M613 0 l-92 0 l-58 168 l-308 0 l-57 -168 l-90 0 l250 709 l104 0 l251 -709 ZM434 252 l-126 368 l-125 -368 l251 0 ZM407 853 l-185 -99 l-30 47 l170 123 l45 -71 Z" /><glyph glyph-name="Acircumflex" unicode="â" d="M613 0 l-92 0 l-58 168 l-308 0 l-57 -168 l-90 0 l250 709 l104 0 l251 -709 ZM434 252 l-126 368 l-125 -368 l251 0 ZM332 915 l128 -113 l-46 -48 l-110 98 l-108 -98 l-46 48 l125 113 l57 0 Z" /><glyph glyph-name="Atilde" unicode="ã" d="M613 0 l-92 0 l-58 168 l-308 0 l-57 -168 l-90 0 l250 709 l104 0 l251 -709 ZM434 252 l-126 368 l-125 -368 l251 0 ZM466 835 q-42 -54 -101 -54 q-34 0 -72 21 q-38 21 -59 21 q-34 0 -62 -28 l-39 42 q48 54 102 54 q29 0 69 -22 q40 -22 62 -22 q37 0 63 30 l37 -42 Z" /><glyph glyph-name="Adieresis" unicode="ä" d="M613 0 l-92 0 l-58 168 l-308 0 l-57 -168 l-90 0 l250 709 l104 0 l251 -709 ZM434 252 l-126 368 l-125 -368 l251 0 ZM442 789 l-92 0 l0 92 l92 0 l0 -92 ZM266 789 l-92 0 l0 92 l92 0 l0 -92 Z" /><glyph glyph-name="Aring" unicode="å" d="M613 0 l-92 0 l-58 168 l-308 0 l-57 -168 l-90 0 l236 669 q-56 33 -56 101 q0 48 33 83 q33 35 88 35 q55 0 88.5 -35 q33.5 -35 33.5 -83 q0 -65 -55 -100 l237 -670 ZM352.5 726.5 q16.5 17.5 16.5 43.5 q0 26 -16.5 44 q-16.5 18 -43.5 18 q-27 0 -43.5 -18 q-16.5 -18 -16.5 -44 q0 -26 16.5 -43.5 q16.5 -17.5 43.5 -17.5 q27 0 43.5 17.5 ZM434 252 l-126 368 l-125 -368 l251 0 Z" /><glyph glyph-name="AE" unicode="æ" d="M863 0 l-428 0 l0 189 l-254 0 l-83 -189 l-98 0 l320 709 l543 0 l0 -83 l-338 0 l0 -205 l289 0 l0 -84 l-289 0 l0 -253 l338 0 l0 -84 ZM435 273 l0 356 l-60 0 l-157 -356 l217 0 Z" /><glyph glyph-name="Ccedilla" unicode="ç" d="M594 226 q-4 -97 -70 -164 q-34 -34 -84 -55 q-50 -21 -106 -21 q-114 0 -192 76 q-53 52 -71 122.5 q-18 70.5 -18 169.5 q0 99 18 169.5 q18 70.5 71 122.5 q78 76 192 76 q116 0 189 -73 q66 -67 70 -162 l-92 0 q-1 57 -39 99 q-47 52 -128 52 q-77 0 -129 -54 q-27 -28 -41 -72 q-14 -44 -16.5 -76.5 q-2.5 -32.5 -2.5 -81.5 q0 -49 2.5 -81.5 q2.5 -32.5 16.5 -76.5 q14 -44 41 -72 q52 -54 129 -54 q80 0 129 54 q37 42 39 102 l92 0 ZM391 -61 l-69 -176 l-88 41 l79 135 l78 0 Z" /><glyph glyph-name="Egrave" unicode="è" d="M574 0 l-474 0 l0 709 l474 0 l0 -82 l-385 0 l0 -216 l338 0 l0 -84 l-338 0 l0 -245 l385 0 l0 -82 ZM441 807 l-31 -47 l-185 99 l45 71 l171 -123 Z" /><glyph glyph-name="Eacute" unicode="é" d="M574 0 l-474 0 l0 709 l474 0 l0 -82 l-385 0 l0 -216 l338 0 l0 -84 l-338 0 l0 -245 l385 0 l0 -82 ZM446 853 l-185 -99 l-30 47 l170 123 l45 -71 Z" /><glyph glyph-name="Ecircumflex" unicode="ê" d="M574 0 l-474 0 l0 709 l474 0 l0 -82 l-385 0 l0 -216 l338 0 l0 -84 l-338 0 l0 -245 l385 0 l0 -82 ZM363 915 l128 -113 l-46 -48 l-110 98 l-108 -98 l-46 48 l125 113 l57 0 Z" /><glyph glyph-name="Edieresis" unicode="ë" d="M574 0 l-474 0 l0 709 l474 0 l0 -82 l-385 0 l0 -216 l338 0 l0 -84 l-338 0 l0 -245 l385 0 l0 -82 ZM477 789 l-92 0 l0 92 l92 0 l0 -92 ZM301 789 l-92 0 l0 92 l92 0 l0 -92 Z" /><glyph glyph-name="Igrave" unicode="ì" d="M191 0 l-91 0 l0 709 l91 0 l0 -709 ZM252 802 l-31 -47 l-185 99 l45 71 l171 -123 Z" /><glyph glyph-name="Iacute" unicode="í" d="M191 0 l-91 0 l0 709 l91 0 l0 -709 ZM256 853 l-185 -99 l-30 47 l170 123 l45 -71 Z" /><glyph glyph-name="Icircumflex" unicode="î" d="M191 0 l-91 0 l0 709 l91 0 l0 -709 ZM172 915 l128 -113 l-46 -48 l-110 98 l-108 -98 l-46 48 l125 113 l57 0 Z" /><glyph glyph-name="Idieresis" unicode="ï" d="M191 0 l-91 0 l0 709 l91 0 l0 -709 ZM280 789 l-92 0 l0 92 l92 0 l0 -92 ZM104 789 l-92 0 l0 92 l92 0 l0 -92 Z" /><glyph glyph-name="Eth" unicode="ð" d="M637 355 q0 -197 -91 -284 q-74 -71 -186 -71 l-247 0 l0 335 l-73 0 l0 66 l73 0 l0 308 l247 0 q111 0 186 -72 q91 -86 91 -282 ZM547 355 q0 73 -11.5 128.5 q-11.5 55.5 -49.5 94.5 q-49 49 -126 49 l-158 0 l0 -226 l146 0 l0 -66 l-146 0 l0 -253 l158 0 q77 0 126 49 q61 62 61 224 Z" /><glyph glyph-name="Ntilde" unicode="ñ" d="M634 0 l-100 0 l-348 570 l0 -570 l-86 0 l0 709 l100 0 l348 -572 l0 572 l86 0 l0 -709 ZM526 827 q-42 -54 -101 -54 q-34 0 -72 21 q-38 21 -59 21 q-34 0 -62 -28 l-39 42 q48 54 102 54 q29 0 69 -22 q40 -22 62 -22 q37 0 63 30 l37 -42 Z" /><glyph glyph-name="Ograve" unicode="ò" d="M598 523 q19 -71 19 -169 q0 -98 -19 -169 q-19 -71 -72 -123 q-78 -76 -191 -76 q-113 0 -191 76 q-53 52 -72 123 q-19 71 -19 169 q0 98 19 169 q19 71 72 123 q78 76 191 76 q113 0 191 -76 q53 -52 72 -123 ZM522.5 273 q2.5 33 2.5 81 q0 48 -2.5 81 q-2.5 33 -17 77 q-14.5 44 -41.5 72 q-51 53 -129 53 q-78 0 -129 -53 q-27 -28 -41.5 -72 q-14.5 -44 -17 -77 q-2.5 -33 -2.5 -81 q0 -48 2.5 -81 q2.5 -33 17 -77 q14.5 -44 41.5 -72 q51 -53 129 -53 q78 0 129 53 q27 28 41.5 72 q14.5 44 17 77 ZM441 807 l-31 -47 l-185 99 l45 71 l171 -123 Z" /><glyph glyph-name="Oacute" unicode="ó" d="M598 523 q19 -71 19 -169 q0 -98 -19 -169 q-19 -71 -72 -123 q-78 -76 -191 -76 q-113 0 -191 76 q-53 52 -72 123 q-19 71 -19 169 q0 98 19 169 q19 71 72 123 q78 76 191 76 q113 0 191 -76 q53 -52 72 -123 ZM522.5 273 q2.5 33 2.5 81 q0 48 -2.5 81 q-2.5 33 -17 77 q-14.5 44 -41.5 72 q-51 53 -129 53 q-78 0 -129 -53 q-27 -28 -41.5 -72 q-14.5 -44 -17 -77 q-2.5 -33 -2.5 -81 q0 -48 2.5 -81 q2.5 -33 17 -77 q14.5 -44 41.5 -72 q51 -53 129 -53 q78 0 129 53 q27 28 41.5 72 q14.5 44 17 77 ZM442 858 l-185 -99 l-30 47 l170 123 l45 -71 Z" /><glyph glyph-name="Ocircumflex" unicode="ô" d="M598 523 q19 -71 19 -169 q0 -98 -19 -169 q-19 -71 -72 -123 q-78 -76 -191 -76 q-113 0 -191 76 q-53 52 -72 123 q-19 71 -19 169 q0 98 19 169 q19 71 72 123 q78 76 191 76 q113 0 191 -76 q53 -52 72 -123 ZM522.5 273 q2.5 33 2.5 81 q0 48 -2.5 81 q-2.5 33 -17 77 q-14.5 44 -41.5 72 q-51 53 -129 53 q-78 0 -129 -53 q-27 -28 -41.5 -72 q-14.5 -44 -17 -77 q-2.5 -33 -2.5 -81 q0 -48 2.5 -81 q2.5 -33 17 -77 q14.5 -44 41.5 -72 q51 -53 129 -53 q78 0 129 53 q27 28 41.5 72 q14.5 44 17 77 ZM366 915 l128 -113 l-46 -48 l-110 98 l-108 -98 l-46 48 l125 113 l57 0 Z" /><glyph glyph-name="Otilde" unicode="õ" d="M598 523 q19 -71 19 -169 q0 -98 -19 -169 q-19 -71 -72 -123 q-78 -76 -191 -76 q-113 0 -191 76 q-53 52 -72 123 q-19 71 -19 169 q0 98 19 169 q19 71 72 123 q78 76 191 76 q113 0 191 -76 q53 -52 72 -123 ZM522.5 273 q2.5 33 2.5 81 q0 48 -2.5 81 q-2.5 33 -17 77 q-14.5 44 -41.5 72 q-51 53 -129 53 q-78 0 -129 -53 q-27 -28 -41.5 -72 q-14.5 -44 -17 -77 q-2.5 -33 -2.5 -81 q0 -48 2.5 -81 q2.5 -33 17 -77 q14.5 -44 41.5 -72 q51 -53 129 -53 q78 0 129 53 q27 28 41.5 72 q14.5 44 17 77 ZM502 834 q-42 -54 -101 -54 q-34 0 -72 21 q-38 21 -59 21 q-34 0 -62 -28 l-39 42 q48 54 102 54 q29 0 69 -22 q40 -22 62 -22 q37 0 63 30 l37 -42 Z" /><glyph glyph-name="Odieresis" unicode="ö" d="M598 523 q19 -71 19 -169 q0 -98 -19 -169 q-19 -71 -72 -123 q-78 -76 -191 -76 q-113 0 -191 76 q-53 52 -72 123 q-19 71 -19 169 q0 98 19 169 q19 71 72 123 q78 76 191 76 q113 0 191 -76 q53 -52 72 -123 ZM522.5 273 q2.5 33 2.5 81 q0 48 -2.5 81 q-2.5 33 -17 77 q-14.5 44 -41.5 72 q-51 53 -129 53 q-78 0 -129 -53 q-27 -28 -41.5 -72 q-14.5 -44 -17 -77 q-2.5 -33 -2.5 -81 q0 -48 2.5 -81 q2.5 -33 17 -77 q14.5 -44 41.5 -72 q51 -53 129 -53 q78 0 129 53 q27 28 41.5 72 q14.5 44 17 77 ZM472 791 l-92 0 l0 92 l92 0 l0 -92 ZM296 791 l-92 0 l0 92 l92 0 l0 -92 Z" /><glyph glyph-name="multiply" unicode="×" d="M617 76 l-54 -54 l-222 222 l-222 -222 l-54 54 l222 222 l-222 222 l54 54 l221 -222 l223 222 l54 -54 l-223 -222 l223 -222 Z" /><glyph glyph-name="Oslash" unicode="ø" d="M598 523 q19 -71 19 -169 q0 -98 -19 -169 q-19 -71 -72 -123 q-78 -76 -191 -76 q-69 0 -127 30 l-39 -85 l-56 26 l43 94 l-12 11 q-53 52 -72 123 q-19 71 -19 169 q0 98 19 169 q19 71 72 123 q78 76 191 76 q63 0 116 -25 l32 71 l55 -25 l-35 -77 q12 -9 23 -20 q53 -52 72 -123 ZM522.5 273 q2.5 33 2.5 81 q0 48 -2.5 80.5 q-2.5 32.5 -17 76.5 q-14.5 44 -40.5 72 l-221 -488 q40 -24 91 -24 q78 0 129 53 q27 28 41.5 72 q14.5 44 17 77 ZM415 619 q-37 18 -80 18 q-78 0 -129 -53 q-27 -28 -41.5 -72 q-14.5 -44 -17 -77 q-2.5 -33 -2.5 -81 q0 -153 50 -217 l220 482 Z" /><glyph glyph-name="Ugrave" unicode="ù" d="M598 260 q0 -131 -69 -202 q-69 -71 -190 -71 q-121 0 -190 71 q-69 71 -69 202 l0 449 l89 0 l0 -451 q0 -188 170 -188 q170 0 170 188 l0 451 l89 0 l0 -449 ZM433 802 l-31 -47 l-185 99 l45 71 l171 -123 Z" /><glyph glyph-name="Uacute" unicode="ú" d="M598 260 q0 -131 -69 -202 q-69 -71 -190 -71 q-121 0 -190 71 q-69 71 -69 202 l0 449 l89 0 l0 -451 q0 -188 170 -188 q170 0 170 188 l0 451 l89 0 l0 -449 ZM454 853 l-185 -99 l-30 47 l170 123 l45 -71 Z" /><glyph glyph-name="Ucircumflex" unicode="û" d="M598 260 q0 -131 -69 -202 q-69 -71 -190 -71 q-121 0 -190 71 q-69 71 -69 202 l0 449 l89 0 l0 -451 q0 -188 170 -188 q170 0 170 188 l0 451 l89 0 l0 -449 ZM375 915 l128 -113 l-46 -48 l-110 98 l-108 -98 l-46 48 l125 113 l57 0 Z" /><glyph glyph-name="Udieresis" unicode="ü" d="M598 260 q0 -131 -69 -202 q-69 -71 -190 -71 q-121 0 -190 71 q-69 71 -69 202 l0 449 l89 0 l0 -451 q0 -188 170 -188 q170 0 170 188 l0 451 l89 0 l0 -449 ZM484 790 l-92 0 l0 92 l92 0 l0 -92 ZM308 790 l-92 0 l0 92 l92 0 l0 -92 Z" /><glyph glyph-name="Yacute" unicode="ý" d="M397 847 l-186 -98 l-29 48 l170 123 l45 -73 ZM566 709 l-238 -421 l0 -288 l-90 0 l0 288 l-238 421 l100 0 l186 -337 l185 337 l95 0 Z" /><glyph glyph-name="Thorn" unicode="þ" d="M577 363 q0 -102 -59 -161 q-59 -59 -173 -59 l-155 0 l0 -143 l-90 0 l0 710 l90 0 l0 -133 l154 0 q120 0 179 -64 q54 -59 54 -150 ZM485 363 q0 133 -143 133 l-152 0 l0 -272 l153 0 q76 0 109 34 q33 34 33 105 Z" /><glyph glyph-name="germandbls" unicode="ß" d="M563 208 q0 -99 -62 -156.5 q-62 -57.5 -160 -57.5 q-48 0 -84 8 l0 71 q28 -5 67 -5 q68 0 109.5 35 q41.5 35 41.5 105 q0 76 -43.5 111 q-43.5 35 -116.5 35 l-28 0 l0 74 l28 0 q47 0 80 34.5 q33 34.5 33 85.5 q0 51 -29.5 81.5 q-29.5 30.5 -83.5 30.5 q-62 0 -90.5 -42.5 q-28.5 -42.5 -28.5 -114.5 l0 -503 l-86 0 l0 430 l-85 0 l0 76 l86 0 q0 106 54 166 q54 60 150 60 q91 0 145.5 -51 q54.5 -51 54.5 -133 q0 -55 -30 -97.5 q-30 -42.5 -79 -55.5 q70 -9 113.5 -62.5 q43.5 -53.5 43.5 -124.5 Z" /><glyph glyph-name="agrave" unicode="à" d="M517 5 q-24 -12 -56 -12 q-33 0 -53 22 q-20 22 -20 55 l-2 0 q-22 -38 -66 -60.5 q-44 -22.5 -97 -22.5 q-82 0 -128 46.5 q-46 46.5 -46 109.5 q0 36 15 68.5 q15 32.5 57.5 59 q42.5 26.5 107.5 30.5 l154 9 l0 37 q0 53 -26 77 q-28 26 -83 26 q-62 0 -92 -30 q-25 -25 -25 -61 l-83 0 q1 62 44 106 q51 54 156 54 q136 0 178 -97 q15 -34 15 -78 l0 -245 q0 -34 28 -34 l22 3 l0 -63 ZM383 214 l0 30 l-136 -8 q-45 -3 -78 -25 q-33 -22 -33 -66 q0 -37 24.5 -62 q24.5 -25 75.5 -25 q64 0 104 41 q43 44 43 115 ZM355 554 l-185 100 l45 71 l170 -124 l-30 -47 Z" /><glyph glyph-name="aacute" unicode="á" d="M517 5 q-24 -12 -56 -12 q-33 0 -53 22 q-20 22 -20 55 l-2 0 q-22 -38 -66 -60.5 q-44 -22.5 -97 -22.5 q-82 0 -128 46.5 q-46 46.5 -46 109.5 q0 36 15 68.5 q15 32.5 57.5 59 q42.5 26.5 107.5 30.5 l154 9 l0 37 q0 53 -26 77 q-28 26 -83 26 q-62 0 -92 -30 q-25 -25 -25 -61 l-83 0 q1 62 44 106 q51 54 156 54 q136 0 178 -97 q15 -34 15 -78 l0 -245 q0 -34 28 -34 l22 3 l0 -63 ZM383 214 l0 30 l-136 -8 q-45 -3 -78 -25 q-33 -22 -33 -66 q0 -37 24.5 -62 q24.5 -25 75.5 -25 q64 0 104 41 q43 44 43 115 ZM379 654 l-185 -99 l-30 47 l170 123 l45 -71 Z" /><glyph glyph-name="acircumflex" unicode="â" d="M517 5 q-24 -12 -56 -12 q-33 0 -53 22 q-20 22 -20 55 l-2 0 q-22 -38 -66 -60.5 q-44 -22.5 -97 -22.5 q-82 0 -128 46.5 q-46 46.5 -46 109.5 q0 36 15 68.5 q15 32.5 57.5 59 q42.5 26.5 107.5 30.5 l154 9 l0 37 q0 53 -26 77 q-28 26 -83 26 q-62 0 -92 -30 q-25 -25 -25 -61 l-83 0 q1 62 44 106 q51 54 156 54 q136 0 178 -97 q15 -34 15 -78 l0 -245 q0 -34 28 -34 l22 3 l0 -63 ZM383 214 l0 30 l-136 -8 q-45 -3 -78 -25 q-33 -22 -33 -66 q0 -37 24.5 -62 q24.5 -25 75.5 -25 q64 0 104 41 q43 44 43 115 ZM299 712 l111 -117 l-48 -44 l-90 94 l-88 -94 l-50 44 l110 117 l55 0 Z" /><glyph glyph-name="atilde" unicode="ã" d="M517 5 q-24 -12 -56 -12 q-33 0 -53 22 q-20 22 -20 55 l-2 0 q-22 -38 -66 -60.5 q-44 -22.5 -97 -22.5 q-82 0 -128 46.5 q-46 46.5 -46 109.5 q0 36 15 68.5 q15 32.5 57.5 59 q42.5 26.5 107.5 30.5 l154 9 l0 37 q0 53 -26 77 q-28 26 -83 26 q-62 0 -92 -30 q-25 -25 -25 -61 l-83 0 q1 62 44 106 q51 54 156 54 q136 0 178 -97 q15 -34 15 -78 l0 -245 q0 -34 28 -34 l22 3 l0 -63 ZM383 214 l0 30 l-136 -8 q-45 -3 -78 -25 q-33 -22 -33 -66 q0 -37 24.5 -62 q24.5 -25 75.5 -25 q64 0 104 41 q43 44 43 115 ZM443 647 q-42 -54 -101 -54 q-34 0 -72 21 q-38 21 -59 21 q-34 0 -62 -28 l-39 42 q48 54 102 54 q29 0 69 -22 q40 -22 62 -22 q37 0 63 30 l37 -42 Z" /><glyph glyph-name="adieresis" unicode="ä" d="M517 5 q-24 -12 -56 -12 q-33 0 -53 22 q-20 22 -20 55 l-2 0 q-22 -38 -66 -60.5 q-44 -22.5 -97 -22.5 q-82 0 -128 46.5 q-46 46.5 -46 109.5 q0 36 15 68.5 q15 32.5 57.5 59 q42.5 26.5 107.5 30.5 l154 9 l0 37 q0 53 -26 77 q-28 26 -83 26 q-62 0 -92 -30 q-25 -25 -25 -61 l-83 0 q1 62 44 106 q51 54 156 54 q136 0 178 -97 q15 -34 15 -78 l0 -245 q0 -34 28 -34 l22 3 l0 -63 ZM383 214 l0 30 l-136 -8 q-45 -3 -78 -25 q-33 -22 -33 -66 q0 -37 24.5 -62 q24.5 -25 75.5 -25 q64 0 104 41 q43 44 43 115 ZM413 602 l-92 0 l0 92 l92 0 l0 -92 ZM237 602 l-92 0 l0 92 l92 0 l0 -92 Z" /><glyph glyph-name="aring" unicode="å" d="M517 5 q-24 -12 -56 -12 q-33 0 -53 22 q-20 22 -20 55 l-2 0 q-22 -38 -66 -60.5 q-44 -22.5 -97 -22.5 q-82 0 -128 46.5 q-46 46.5 -46 109.5 q0 36 15 68.5 q15 32.5 57.5 59 q42.5 26.5 107.5 30.5 l154 9 l0 37 q0 53 -26 77 q-28 26 -83 26 q-62 0 -92 -30 q-25 -25 -25 -61 l-83 0 q1 62 44 106 q51 54 156 54 q136 0 178 -97 q15 -34 15 -78 l0 -245 q0 -34 28 -34 l22 3 l0 -63 ZM383 214 l0 30 l-136 -8 q-45 -3 -78 -25 q-33 -22 -33 -66 q0 -37 24.5 -62 q24.5 -25 75.5 -25 q64 0 104 41 q43 44 43 115 ZM360 746 q30 -32 30 -75 q0 -43 -30 -75 q-30 -32 -80 -32 q-50 0 -80 32 q-30 32 -30 75 q0 43 30 75 q30 32 80 32 q50 0 80 -32 ZM319 632 q15 16 15 39 q0 23 -15 39.5 q-15 16.5 -39 16.5 q-24 0 -39.5 -16.5 q-15.5 -16.5 -15.5 -39.5 q0 -23 15.5 -39 q15.5 -16 39.5 -16 q24 0 39 16 Z" /><glyph glyph-name="ae" unicode="æ" d="M797 230 l-342 -1 q-1 -73 32 -123 q33 -50 104 -50 q40 0 72 23.5 q32 23.5 42 68.5 l84 0 q-10 -74 -65 -120 q-51 -43 -132 -43 q-61 0 -108.5 25 q-47.5 25 -70.5 72 q-55 -96 -182 -96 q-87 0 -139 52 q-43 45 -43 107 q0 67 47.5 108.5 q47.5 41.5 114.5 42.5 l162 2 l0 54 q0 49 -29 73.5 q-29 24.5 -78 24.5 q-50 0 -80.5 -22.5 q-30.5 -22.5 -33.5 -68.5 l-83 0 q4 81 61 121.5 q57 40.5 137 40.5 q48 0 92.5 -19 q44.5 -19 69.5 -56 q52 73 158 73 q113 0 171 -89 q39 -59 39 -174 l0 -26 ZM711 296 q-2 75 -33 113 q-32 41 -92 41 q-52 0 -87 -37 q-42 -43 -42 -117 l254 0 ZM376 234 l-145 -1 q-41 0 -68.5 -23.5 q-27.5 -23.5 -27.5 -63.5 q0 -41 27 -64 q27 -23 68 -23 q68 0 105 37 q20 20 29.5 45 q9.5 25 10.5 40.5 q1 15.5 1 52.5 Z" /><glyph glyph-name="ccedilla" unicode="ç" d="M486 170 q-6 -76 -59 -128 q-57 -55 -146 -55 q-120 0 -185 95 q-42 62 -42 171 q0 109 42 171 q65 95 184 95 q88 0 144 -54 q54 -53 60 -130 l-86 0 q-6 49 -36 79 q-33 31 -82 31 q-50 0 -88 -33 q-51 -43 -51 -159 q0 -116 51 -159 q38 -33 88 -33 q54 0 86 34 q29 30 34 75 l86 0 ZM337 -62 l-66 -171 l-86 40 l77 131 l75 0 Z" /><glyph glyph-name="egrave" unicode="è" d="M501 276 l-1 -51 l-358 0 q0 -78 49 -127 q36 -36 93 -36 q62 0 94 33 q21 21 30 55 l83 0 q-11 -79 -78 -125 q-57 -38 -129 -38 q-104 0 -168 76 q-63 73 -63 188 q0 97 39 162 q28 48 77.5 77 q49.5 29 113.5 29 q94 0 154 -65 q66 -72 64 -178 ZM414 298 q0 61 -31 103 q-35 46 -100 46 q-65 0 -101 -44 q-36 -44 -38 -105 l270 0 ZM363 556 l-185 99 l45 71 l170 -123 l-30 -47 Z" /><glyph glyph-name="eacute" unicode="é" d="M501 276 l-1 -51 l-358 0 q0 -78 49 -127 q36 -36 93 -36 q62 0 94 33 q21 21 30 55 l83 0 q-11 -79 -78 -125 q-57 -38 -129 -38 q-104 0 -168 76 q-63 73 -63 188 q0 97 39 162 q28 48 77.5 77 q49.5 29 113.5 29 q94 0 154 -65 q66 -72 64 -178 ZM414 298 q0 61 -31 103 q-35 46 -100 46 q-65 0 -101 -44 q-36 -44 -38 -105 l270 0 ZM394 652 l-185 -99 l-30 47 l170 123 l45 -71 Z" /><glyph glyph-name="ecircumflex" unicode="ê" d="M501 276 l-1 -51 l-358 0 q0 -78 49 -127 q36 -36 93 -36 q62 0 94 33 q21 21 30 55 l83 0 q-11 -79 -78 -125 q-57 -38 -129 -38 q-104 0 -168 76 q-63 73 -63 188 q0 97 39 162 q28 48 77.5 77 q49.5 29 113.5 29 q94 0 154 -65 q66 -72 64 -178 ZM414 298 q0 61 -31 103 q-35 46 -100 46 q-65 0 -101 -44 q-36 -44 -38 -105 l270 0 ZM311 712 l111 -117 l-48 -44 l-90 94 l-88 -94 l-50 44 l110 117 l55 0 Z" /><glyph glyph-name="edieresis" unicode="ë" d="M501 276 l-1 -51 l-358 0 q0 -78 49 -127 q36 -36 93 -36 q62 0 94 33 q21 21 30 55 l83 0 q-11 -79 -78 -125 q-57 -38 -129 -38 q-104 0 -168 76 q-63 73 -63 188 q0 97 39 162 q28 48 77.5 77 q49.5 29 113.5 29 q94 0 154 -65 q66 -72 64 -178 ZM414 298 q0 61 -31 103 q-35 46 -100 46 q-65 0 -101 -44 q-36 -44 -38 -105 l270 0 ZM419 599 l-92 0 l0 92 l92 0 l0 -92 ZM243 599 l-92 0 l0 92 l92 0 l0 -92 Z" /><glyph glyph-name="igrave" unicode="ì" d="M178 0 l-86 0 l0 506 l86 0 l0 -506 ZM193 550 l-185 99 l45 71 l170 -123 l-30 -47 Z" /><glyph glyph-name="iacute" unicode="í" d="M166 0 l-86 0 l0 506 l86 0 l0 -506 ZM251 650 l-185 -99 l-30 47 l170 123 l45 -71 Z" /><glyph glyph-name="icircumflex" unicode="î" d="M182 0 l-86 0 l0 506 l86 0 l0 -506 ZM163 712 l111 -117 l-48 -44 l-90 94 l-88 -94 l-50 44 l110 117 l55 0 Z" /><glyph glyph-name="idieresis" unicode="ï" d="M179 0 l-86 0 l0 506 l86 0 l0 -506 ZM271 599 l-92 0 l0 92 l92 0 l0 -92 ZM95 599 l-92 0 l0 92 l92 0 l0 -92 Z" /><glyph glyph-name="eth" unicode="ð" d="M497 253 q0 -140 -68 -207 q-61 -59 -154 -59 q-92 0 -153 59 q-68 67 -68 207 q0 140 68 207 q61 59 153 59 l43 -4 l-43 73 l-120 0 l0 59 l85 0 l-45 75 l89 0 l44 -75 l98 0 l0 -59 l-63 0 l83 -142 q51 -86 51 -193 ZM366 96 q46 47 46 157 q0 110 -46 157 q-36 36 -91 36 q-54 0 -90 -36 q-46 -47 -46 -157 q0 -110 46 -157 q36 -36 90 -36 q55 0 91 36 Z" /><glyph glyph-name="ntilde" unicode="ñ" d="M502 0 l-85 0 l0 321 q0 121 -111 121 q-73 0 -110 -78 q-18 -39 -18 -129 l0 -235 l-85 0 l0 506 l74 0 l7 -76 q19 41 63 65 q44 24 90 24 q85 0 130 -48.5 q45 -48.5 45 -137.5 l0 -333 ZM465 647 q-42 -54 -101 -54 q-34 0 -72 21 q-38 21 -59 21 q-34 0 -62 -28 l-39 42 q48 54 102 54 q29 0 69 -22 q40 -22 62 -22 q37 0 63 30 l37 -42 Z" /><glyph glyph-name="ograve" unicode="ò" d="M432 460 q72 -71 72 -207 q0 -136 -72 -207 q-61 -59 -153 -59 q-92 0 -153 59 q-72 71 -72 207 q0 136 72 207 q61 59 153 59 q92 0 153 -59 ZM370 96 q47 48 47 157 q0 109 -47 157 q-36 36 -91 36 q-55 0 -91 -36 q-47 -48 -47 -157 q0 -109 47 -157 q36 -36 91 -36 q55 0 91 36 ZM360 554 l-185 99 l45 71 l170 -123 l-30 -47 Z" /><glyph glyph-name="oacute" unicode="ó" d="M432 460 q72 -71 72 -207 q0 -136 -72 -207 q-61 -59 -153 -59 q-92 0 -153 59 q-72 71 -72 207 q0 136 72 207 q61 59 153 59 q92 0 153 -59 ZM370 96 q47 48 47 157 q0 109 -47 157 q-36 36 -91 36 q-55 0 -91 -36 q-47 -48 -47 -157 q0 -109 47 -157 q36 -36 91 -36 q55 0 91 36 ZM389 653 l-185 -99 l-30 47 l170 123 l45 -71 Z" /><glyph glyph-name="ocircumflex" unicode="ô" d="M432 460 q72 -71 72 -207 q0 -136 -72 -207 q-61 -59 -153 -59 q-92 0 -153 59 q-72 71 -72 207 q0 136 72 207 q61 59 153 59 q92 0 153 -59 ZM370 96 q47 48 47 157 q0 109 -47 157 q-36 36 -91 36 q-55 0 -91 -36 q-47 -48 -47 -157 q0 -109 47 -157 q36 -36 91 -36 q55 0 91 36 ZM306 712 l111 -117 l-48 -44 l-90 94 l-88 -94 l-50 44 l110 117 l55 0 Z" /><glyph glyph-name="otilde" unicode="õ" d="M432 460 q72 -71 72 -207 q0 -136 -72 -207 q-61 -59 -153 -59 q-92 0 -153 59 q-72 71 -72 207 q0 136 72 207 q61 59 153 59 q92 0 153 -59 ZM370 96 q47 48 47 157 q0 109 -47 157 q-36 36 -91 36 q-55 0 -91 -36 q-47 -48 -47 -157 q0 -109 47 -157 q36 -36 91 -36 q55 0 91 36 ZM447 653 q-42 -54 -101 -54 q-34 0 -72 21 q-38 21 -59 21 q-34 0 -62 -28 l-39 42 q48 54 102 54 q29 0 69 -22 q40 -22 62 -22 q37 0 63 30 l37 -42 Z" /><glyph glyph-name="odieresis" unicode="ö" d="M432 460 q72 -71 72 -207 q0 -136 -72 -207 q-61 -59 -153 -59 q-92 0 -153 59 q-72 71 -72 207 q0 136 72 207 q61 59 153 59 q92 0 153 -59 ZM370 96 q47 48 47 157 q0 109 -47 157 q-36 36 -91 36 q-55 0 -91 -36 q-47 -48 -47 -157 q0 -109 47 -157 q36 -36 91 -36 q55 0 91 36 ZM422 599 l-92 0 l0 92 l92 0 l0 -92 ZM246 599 l-92 0 l0 92 l92 0 l0 -92 Z" /><glyph glyph-name="divide" unicode="÷" d="M381 442 l-114 0 l0 118 l114 0 l0 -118 ZM577 261 l-502 0 l0 78 l502 0 l0 -78 ZM381 48 l-114 0 l0 118 l114 0 l0 -118 Z" /><glyph glyph-name="oslash" unicode="ø" d="M432 460 q72 -71 72 -207 q0 -136 -72 -207 q-61 -59 -153 -59 q-47 0 -84 15 l-36 -79 l-54 25 l38 83 l-17 15 q-72 71 -72 207 q0 136 72 207 q61 59 153 59 q40 0 79 -13 l36 79 l54 -24 l-37 -83 q11 -8 21 -18 ZM417 253 q0 101 -41 150 l-150 -333 q25 -10 53 -10 q55 0 91 36 q47 48 47 157 ZM327 438 q-22 8 -48 8 q-55 0 -91 -36 q-47 -48 -47 -157 q0 -95 37 -145 l149 330 Z" /><glyph glyph-name="ugrave" unicode="ù" d="M489 0 l-74 0 l-7 77 q-19 -42 -61 -65.5 q-42 -23.5 -89 -23.5 q-85 0 -129 48.5 q-44 48.5 -44 137.5 l0 332 l85 0 l0 -320 q0 -60 25 -90.5 q25 -30.5 83 -30.5 q48 0 84 38 q42 43 42 140 l0 263 l85 0 l0 -506 ZM352 553 l-185 99 l45 71 l170 -123 l-30 -47 Z" /><glyph glyph-name="uacute" unicode="ú" d="M489 0 l-74 0 l-7 77 q-19 -42 -61 -65.5 q-42 -23.5 -89 -23.5 q-85 0 -129 48.5 q-44 48.5 -44 137.5 l0 332 l85 0 l0 -320 q0 -60 25 -90.5 q25 -30.5 83 -30.5 q48 0 84 38 q42 43 42 140 l0 263 l85 0 l0 -506 ZM402 652 l-185 -99 l-30 47 l170 123 l45 -71 Z" /><glyph glyph-name="ucircumflex" unicode="û" d="M489 0 l-74 0 l-7 77 q-19 -42 -61 -65.5 q-42 -23.5 -89 -23.5 q-85 0 -129 48.5 q-44 48.5 -44 137.5 l0 332 l85 0 l0 -320 q0 -60 25 -90.5 q25 -30.5 83 -30.5 q48 0 84 38 q42 43 42 140 l0 263 l85 0 l0 -506 ZM315 712 l111 -117 l-48 -44 l-90 94 l-88 -94 l-50 44 l110 117 l55 0 Z" /><glyph glyph-name="udieresis" unicode="ü" d="M489 0 l-74 0 l-7 77 q-19 -42 -61 -65.5 q-42 -23.5 -89 -23.5 q-85 0 -129 48.5 q-44 48.5 -44 137.5 l0 332 l85 0 l0 -320 q0 -60 25 -90.5 q25 -30.5 83 -30.5 q48 0 84 38 q42 43 42 140 l0 263 l85 0 l0 -506 ZM423 599 l-92 0 l0 92 l92 0 l0 -92 ZM247 599 l-92 0 l0 92 l92 0 l0 -92 Z" /><glyph glyph-name="yacute" unicode="ý" d="M381 654 l-187 -104 l-32 47 l172 129 l47 -72 ZM488 506 l-228 -610 q-19 -53 -51 -80.5 q-32 -27.5 -86 -27.5 q-42 0 -77 10 l0 74 q27 -8 60 -8 q57 0 76 51 l32 85 l-202 506 l96 0 l149 -399 l142 399 l89 0 Z" /><glyph glyph-name="thorn" unicode="þ" d="M536 252 q0 -141 -77 -215 q-54 -51 -136 -51 q-43 0 -84 19.5 q-41 19.5 -61 52.5 l0 -259 l-85 0 l0 923 l85 0 l0 -275 q20 33 61 52.5 q41 19.5 84 19.5 q82 0 136 -51 q77 -74 77 -216 ZM443.5 182 q6.5 32 6.5 70 q0 38 -6.5 70 q-6.5 32 -21.5 61.5 q-15 29.5 -44 46.5 q-29 17 -69 17 q-43 0 -80 -33 q-56 -49 -56 -162 q0 -112 56 -161 q37 -33 80 -33 q40 0 69 16.5 q29 16.5 44 46 q15 29.5 21.5 61.5 Z" /><glyph glyph-name="ydieresis" unicode="ÿ" d="M488 506 l-228 -610 q-19 -53 -51 -80.5 q-32 -27.5 -86 -27.5 q-42 0 -77 10 l0 74 q27 -8 60 -8 q57 0 76 51 l32 85 l-202 506 l96 0 l149 -399 l142 399 l89 0 ZM385 599 l-92 0 l0 92 l92 0 l0 -92 ZM209 599 l-92 0 l0 92 l92 0 l0 -92 Z" /><glyph glyph-name="Amacron" unicode="&#x100;" d="M613 0 l-92 0 l-58 168 l-308 0 l-57 -168 l-90 0 l250 709 l104 0 l251 -709 ZM434 252 l-126 368 l-125 -368 l251 0 ZM449 774 l-278 0 l0 68 l278 0 l0 -68 Z" /><glyph glyph-name="amacron" unicode="&#x101;" d="M517 5 q-24 -12 -56 -12 q-33 0 -53 22 q-20 22 -20 55 l-2 0 q-22 -38 -66 -60.5 q-44 -22.5 -97 -22.5 q-82 0 -128 46.5 q-46 46.5 -46 109.5 q0 36 15 68.5 q15 32.5 57.5 59 q42.5 26.5 107.5 30.5 l154 9 l0 37 q0 53 -26 77 q-28 26 -83 26 q-62 0 -92 -30 q-25 -25 -25 -61 l-83 0 q1 62 44 106 q51 54 156 54 q136 0 178 -97 q15 -34 15 -78 l0 -245 q0 -34 28 -34 l22 3 l0 -63 ZM383 214 l0 30 l-136 -8 q-45 -3 -78 -25 q-33 -22 -33 -66 q0 -37 24.5 -62 q24.5 -25 75.5 -25 q64 0 104 41 q43 44 43 115 ZM418 588 l-278 0 l0 68 l278 0 l0 -68 Z" /><glyph glyph-name="Abreve" unicode="&#x102;" d="M613 0 l-92 0 l-58 168 l-308 0 l-57 -168 l-90 0 l250 709 l104 0 l251 -709 ZM434 252 l-126 368 l-125 -368 l251 0 ZM475 910 q-6 -69 -47.5 -112.5 q-41.5 -43.5 -116.5 -43.5 q-75 0 -117 43.5 q-42 43.5 -48 112.5 l68 0 q12 -92 97 -92 q85 0 96 92 l68 0 Z" /><glyph glyph-name="abreve" unicode="&#x103;" d="M517 5 q-24 -12 -56 -12 q-33 0 -53 22 q-20 22 -20 55 l-2 0 q-22 -38 -66 -60.5 q-44 -22.5 -97 -22.5 q-82 0 -128 46.5 q-46 46.5 -46 109.5 q0 36 15 68.5 q15 32.5 57.5 59 q42.5 26.5 107.5 30.5 l154 9 l0 37 q0 53 -26 77 q-28 26 -83 26 q-62 0 -92 -30 q-25 -25 -25 -61 l-83 0 q1 62 44 106 q51 54 156 54 q136 0 178 -97 q15 -34 15 -78 l0 -245 q0 -34 28 -34 l22 3 l0 -63 ZM383 214 l0 30 l-136 -8 q-45 -3 -78 -25 q-33 -22 -33 -66 q0 -37 24.5 -62 q24.5 -25 75.5 -25 q64 0 104 41 q43 44 43 115 ZM444 710 q-6 -69 -47.5 -112.5 q-41.5 -43.5 -116.5 -43.5 q-75 0 -117 43.5 q-42 43.5 -48 112.5 l68 0 q11 -92 97 -92 q84 0 96 92 l68 0 Z" /><glyph glyph-name="Aogonek" unicode="&#x104;" d="M458 -103 q0 30 15.5 55.5 q15.5 25.5 28 35 q12.5 9.5 20.5 12.5 l-1 0 l-58 168 l-308 0 l-57 -168 l-90 0 l250 709 l104 0 l251 -709 q-35 -13 -57.5 -35.5 q-22.5 -22.5 -22.5 -51.5 q0 -43 50 -43 l30 1 l0 -58 q-22 -6 -40 -7 l-10 0 q-45 0 -75 26 q-30 26 -30 65 ZM434 252 l-126 368 l-125 -368 l251 0 Z" /><glyph glyph-name="aogonek" unicode="&#x105;" d="M517 0 q-35 -13 -57.5 -35.5 q-22.5 -22.5 -22.5 -51.5 q0 -43 50 -43 l30 1 l0 -58 q-22 -6 -40 -7 l-10 0 q-45 0 -75 26 q-30 26 -30 65 q0 31 16.5 56.5 q16.5 25.5 29 34.5 q12.5 9 19.5 12 q-39 19 -39 70 l-2 0 q-22 -38 -66 -60.5 q-44 -22.5 -97 -22.5 q-82 0 -128 46.5 q-46 46.5 -46 109.5 q0 36 15 68.5 q15 32.5 57.5 59 q42.5 26.5 107.5 30.5 l154 9 l0 37 q0 53 -26 77 q-28 26 -83 26 q-62 0 -92 -30 q-25 -25 -25 -61 l-83 0 q1 62 44 106 q51 54 156 54 q136 0 178 -97 q15 -34 15 -78 l0 -245 q0 -34 28 -34 l22 3 l0 -68 ZM383 214 l0 30 l-136 -8 q-45 -3 -78 -25 q-33 -22 -33 -66 q0 -37 24.5 -62 q24.5 -25 75.5 -25 q64 0 104 41 q43 44 43 115 Z" /><glyph glyph-name="Cacute" unicode="&#x106;" d="M594 226 q-4 -97 -70 -164 q-34 -34 -84 -55 q-50 -21 -106 -21 q-114 0 -192 76 q-53 52 -71 122.5 q-18 70.5 -18 169.5 q0 99 18 169.5 q18 70.5 71 122.5 q78 76 192 76 q116 0 189 -73 q66 -67 70 -162 l-92 0 q-1 57 -39 99 q-47 52 -128 52 q-77 0 -129 -54 q-27 -28 -41 -72 q-14 -44 -16.5 -76.5 q-2.5 -32.5 -2.5 -81.5 q0 -49 2.5 -81.5 q2.5 -32.5 16.5 -76.5 q14 -44 41 -72 q52 -54 129 -54 q80 0 129 54 q37 42 39 102 l92 0 ZM484 853 l-185 -99 l-30 47 l170 123 l45 -71 Z" /><glyph glyph-name="cacute" unicode="&#x107;" d="M486 170 q-6 -76 -59 -128 q-57 -55 -146 -55 q-120 0 -185 95 q-42 62 -42 171 q0 109 42 171 q65 95 184 95 q88 0 144 -54 q54 -53 60 -130 l-86 0 q-6 49 -36 79 q-33 31 -82 31 q-50 0 -88 -33 q-51 -43 -51 -159 q0 -116 51 -159 q38 -33 88 -33 q54 0 86 34 q29 30 34 75 l86 0 ZM436 650 l-185 -99 l-30 47 l170 123 l45 -71 Z" /><glyph glyph-name="Ccircumflex" unicode="&#x108;" d="M594 226 q-4 -97 -70 -164 q-34 -34 -84 -55 q-50 -21 -106 -21 q-114 0 -192 76 q-53 52 -71 122.5 q-18 70.5 -18 169.5 q0 99 18 169.5 q18 70.5 71 122.5 q78 76 192 76 q116 0 189 -73 q66 -67 70 -162 l-92 0 q-1 57 -39 99 q-47 52 -128 52 q-77 0 -129 -54 q-27 -28 -41 -72 q-14 -44 -16.5 -76.5 q-2.5 -32.5 -2.5 -81.5 q0 -49 2.5 -81.5 q2.5 -32.5 16.5 -76.5 q14 -44 41 -72 q52 -54 129 -54 q80 0 129 54 q37 42 39 102 l92 0 ZM360 915 l128 -113 l-46 -48 l-110 98 l-108 -98 l-46 48 l125 113 l57 0 Z" /><glyph glyph-name="ccircumflex" unicode="&#x109;" d="M486 170 q-6 -76 -59 -128 q-57 -55 -146 -55 q-120 0 -185 95 q-42 62 -42 171 q0 109 42 171 q65 95 184 95 q88 0 144 -54 q54 -53 60 -130 l-86 0 q-6 49 -36 79 q-33 31 -82 31 q-50 0 -88 -33 q-51 -43 -51 -159 q0 -116 51 -159 q38 -33 88 -33 q54 0 86 34 q29 30 34 75 l86 0 ZM302 712 l111 -117 l-48 -44 l-90 94 l-88 -94 l-50 44 l110 117 l55 0 Z" /><glyph glyph-name="Cdotaccent" unicode="&#x10a;" d="M594 226 q-4 -97 -70 -164 q-34 -34 -84 -55 q-50 -21 -106 -21 q-114 0 -192 76 q-53 52 -71 122.5 q-18 70.5 -18 169.5 q0 99 18 169.5 q18 70.5 71 122.5 q78 76 192 76 q116 0 189 -73 q66 -67 70 -162 l-92 0 q-1 57 -39 99 q-47 52 -128 52 q-77 0 -129 -54 q-27 -28 -41 -72 q-14 -44 -16.5 -76.5 q-2.5 -32.5 -2.5 -81.5 q0 -49 2.5 -81.5 q2.5 -32.5 16.5 -76.5 q14 -44 41 -72 q52 -54 129 -54 q80 0 129 54 q37 42 39 102 l92 0 ZM383 789 l-92 0 l0 92 l92 0 l0 -92 Z" /><glyph glyph-name="cdotaccent" unicode="&#x10b;" d="M486 170 q-6 -76 -59 -128 q-57 -55 -146 -55 q-120 0 -185 95 q-42 62 -42 171 q0 109 42 171 q65 95 184 95 q88 0 144 -54 q54 -53 60 -130 l-86 0 q-6 49 -36 79 q-33 31 -82 31 q-50 0 -88 -33 q-51 -43 -51 -159 q0 -116 51 -159 q38 -33 88 -33 q54 0 86 34 q29 30 34 75 l86 0 ZM322 599 l-92 0 l0 92 l92 0 l0 -92 Z" /><glyph glyph-name="Ccaron" unicode="&#x10c;" d="M594 226 q-4 -97 -70 -164 q-34 -34 -84 -55 q-50 -21 -106 -21 q-114 0 -192 76 q-53 52 -71 122.5 q-18 70.5 -18 169.5 q0 99 18 169.5 q18 70.5 71 122.5 q78 76 192 76 q116 0 189 -73 q66 -67 70 -162 l-92 0 q-1 57 -39 99 q-47 52 -128 52 q-77 0 -129 -54 q-27 -28 -41 -72 q-14 -44 -16.5 -76.5 q-2.5 -32.5 -2.5 -81.5 q0 -49 2.5 -81.5 q2.5 -32.5 16.5 -76.5 q14 -44 41 -72 q52 -54 129 -54 q80 0 129 54 q37 42 39 102 l92 0 ZM488 867 l-128 -113 l-57 0 l-125 113 l48 51 l106 -97 l108 97 l48 -51 Z" /><glyph glyph-name="ccaron" unicode="&#x10d;" d="M486 170 q-6 -76 -59 -128 q-57 -55 -146 -55 q-120 0 -185 95 q-42 62 -42 171 q0 109 42 171 q65 95 184 95 q88 0 144 -54 q54 -53 60 -130 l-86 0 q-6 49 -36 79 q-33 31 -82 31 q-50 0 -88 -33 q-51 -43 -51 -159 q0 -116 51 -159 q38 -33 88 -33 q54 0 86 34 q29 30 34 75 l86 0 ZM411 674 l-111 -117 l-55 0 l-110 117 l50 44 l88 -94 l90 94 l48 -44 Z" /><glyph glyph-name="Dcaron" unicode="&#x10e;" d="M624 355 q0 -197 -91 -284 q-74 -71 -186 -71 l-247 0 l0 709 l247 0 q111 0 186 -72 q91 -86 91 -282 ZM534 355 q0 73 -11.5 128.5 q-11.5 55.5 -49.5 94.5 q-49 49 -126 49 l-158 0 l0 -545 l158 0 q77 0 126 49 q61 62 61 224 ZM485 867 l-128 -113 l-57 0 l-125 113 l48 51 l106 -97 l108 97 l48 -51 Z" /><glyph glyph-name="dcaron" unicode="&#x10f;" d="M502 0 l-75 0 l-6 66 q-21 -37 -63.5 -58 q-42.5 -21 -87.5 -21 q-90 0 -143 55 q-73 75 -73 210 q0 142 77 216 q54 51 139 51 q43 0 85.5 -19.5 q42.5 -19.5 61.5 -52.5 l0 275 l85 0 l0 -722 ZM366 92 q56 49 56 161 q0 112 -56 161 q-37 33 -82 33 q-77 0 -110 -56 q-33 -56 -33 -138 q0 -82 33 -138 q33 -56 110 -56 q45 0 82 33 ZM609 722 l0 -85 q0 -72 -64 -102 l-15 33 q22 11 28.5 24 q6.5 13 6.5 33 l0 6 l-33 0 l0 91 l77 0 Z" /><glyph glyph-name="Dcroat" unicode="&#x110;" d="M637 355 q0 -197 -91 -284 q-74 -71 -186 -71 l-247 0 l0 335 l-73 0 l0 66 l73 0 l0 308 l247 0 q111 0 186 -72 q91 -86 91 -282 ZM547 355 q0 73 -11.5 128.5 q-11.5 55.5 -49.5 94.5 q-49 49 -126 49 l-158 0 l0 -226 l146 0 l0 -66 l-146 0 l0 -253 l158 0 q77 0 126 49 q61 62 61 224 Z" /><glyph glyph-name="dcroat" unicode="&#x111;" d="M502 0 l-75 0 l-6 66 q-21 -37 -63.5 -58 q-42.5 -21 -87.5 -21 q-90 0 -143 55 q-73 75 -73 210 q0 142 77 216 q54 51 139 51 q43 0 85.5 -19.5 q42.5 -19.5 61.5 -52.5 l0 131 l-163 0 l0 63 l163 0 l0 81 l85 0 l0 -81 l60 0 l0 -63 l-60 0 l0 -578 ZM366 92 q56 49 56 161 q0 112 -56 161 q-37 33 -82 33 q-77 0 -110 -56 q-33 -56 -33 -138 q0 -82 33 -138 q33 -56 110 -56 q45 0 82 33 Z" /><glyph glyph-name="Emacron" unicode="&#x112;" d="M574 0 l-474 0 l0 709 l474 0 l0 -82 l-385 0 l0 -216 l338 0 l0 -84 l-338 0 l0 -245 l385 0 l0 -82 ZM479 774 l-278 0 l0 68 l278 0 l0 -68 Z" /><glyph glyph-name="emacron" unicode="&#x113;" d="M501 276 l-1 -51 l-358 0 q0 -78 49 -127 q36 -36 93 -36 q62 0 94 33 q21 21 30 55 l83 0 q-11 -79 -78 -125 q-57 -38 -129 -38 q-104 0 -168 76 q-63 73 -63 188 q0 97 39 162 q28 48 77.5 77 q49.5 29 113.5 29 q94 0 154 -65 q66 -72 64 -178 ZM414 298 q0 61 -31 103 q-35 46 -100 46 q-65 0 -101 -44 q-36 -44 -38 -105 l270 0 ZM424 588 l-278 0 l0 68 l278 0 l0 -68 Z" /><glyph glyph-name="Edotaccent" unicode="&#x116;" d="M574 0 l-474 0 l0 709 l474 0 l0 -82 l-385 0 l0 -216 l338 0 l0 -84 l-338 0 l0 -245 l385 0 l0 -82 ZM385 789 l-92 0 l0 92 l92 0 l0 -92 Z" /><glyph glyph-name="edotaccent" unicode="&#x117;" d="M501 276 l-1 -51 l-358 0 q0 -78 49 -127 q36 -36 93 -36 q62 0 94 33 q21 21 30 55 l83 0 q-11 -79 -78 -125 q-57 -38 -129 -38 q-104 0 -168 76 q-63 73 -63 188 q0 97 39 162 q28 48 77.5 77 q49.5 29 113.5 29 q94 0 154 -65 q66 -72 64 -178 ZM414 298 q0 61 -31 103 q-35 46 -100 46 q-65 0 -101 -44 q-36 -44 -38 -105 l270 0 ZM321 599 l-92 0 l0 92 l92 0 l0 -92 Z" /><glyph glyph-name="Eogonek" unicode="&#x118;" d="M418 -103 q0 30 15.5 55.5 q15.5 25.5 28 35 q12.5 9.5 20.5 12.5 l-382 0 l0 709 l474 0 l0 -82 l-385 0 l0 -216 l338 0 l0 -84 l-338 0 l0 -245 l385 0 l0 -82 l-1 0 q-35 -13 -57.5 -35.5 q-22.5 -22.5 -22.5 -51.5 q0 -43 50 -43 l30 1 l0 -58 q-22 -6 -40 -7 l-10 0 q-45 0 -75 26 q-30 26 -30 65 Z" /><glyph glyph-name="eogonek" unicode="&#x119;" d="M501 276 l-1 -51 l-358 0 q0 -78 49 -127 q36 -36 93 -36 q62 0 94 33 q21 21 30 55 l83 0 q-7 -54 -46 -97 q-62 -80 -62 -137 q0 -46 50 -46 l30 3 l0 -60 q-22 -6 -40 -7 l-10 0 q-45 0 -75 25 q-30 25 -30 66 q0 62 46 101 q-35 -11 -70 -11 q-104 0 -168 76 q-63 73 -63 188 q0 97 39 162 q28 48 77.5 77 q49.5 29 113.5 29 q94 0 154 -65 q66 -72 64 -178 ZM414 298 q0 61 -31 103 q-35 46 -100 46 q-65 0 -101 -44 q-36 -44 -38 -105 l270 0 Z" /><glyph glyph-name="Ecaron" unicode="&#x11a;" d="M574 0 l-474 0 l0 709 l474 0 l0 -82 l-385 0 l0 -216 l338 0 l0 -84 l-338 0 l0 -245 l385 0 l0 -82 ZM496 867 l-128 -113 l-57 0 l-125 113 l48 51 l106 -97 l108 97 l48 -51 Z" /><glyph glyph-name="ecaron" unicode="&#x11b;" d="M501 276 l-1 -51 l-358 0 q0 -78 49 -127 q36 -36 93 -36 q62 0 94 33 q21 21 30 55 l83 0 q-11 -79 -78 -125 q-57 -38 -129 -38 q-104 0 -168 76 q-63 73 -63 188 q0 97 39 162 q28 48 77.5 77 q49.5 29 113.5 29 q94 0 154 -65 q66 -72 64 -178 ZM414 298 q0 61 -31 103 q-35 46 -100 46 q-65 0 -101 -44 q-36 -44 -38 -105 l270 0 ZM416 674 l-111 -117 l-55 0 l-110 117 l50 44 l88 -94 l90 94 l48 -44 Z" /><glyph glyph-name="Gcircumflex" unicode="&#x11c;" d="M606 0 l-62 0 l-15 85 q-26 -44 -79.5 -71.5 q-53.5 -27.5 -113.5 -27.5 q-117 0 -191 73 q-51 50 -71.5 121.5 q-20.5 71.5 -20.5 173.5 q0 97 19.5 168.5 q19.5 71.5 72.5 123.5 q78 76 191 76 q128 0 203 -80 q57 -60 61 -138 l-93 0 q-4 44 -32 78 q-47 56 -139 56 q-77 0 -129 -54 q-62 -64 -62 -230 q0 -168 64 -233 q50 -51 127 -51 q80 0 129 49 q61 60 61 180 l-190 0 l0 83 l270 0 l0 -382 ZM365 915 l128 -113 l-46 -48 l-110 98 l-108 -98 l-46 48 l125 113 l57 0 Z" /><glyph glyph-name="gcircumflex" unicode="&#x11d;" d="M485 24 q40 -40 40 -99 q0 -59 -43 -102 q-60 -59 -204 -59 q-133 0 -192 59 q-36 36 -36 90 q0 76 72 112 q-26 10 -42.5 33 q-16.5 23 -16.5 52 q0 66 67 98 q-58 52 -58 131 q0 73 48 123 q55 57 150 57 q67 0 116 -30 q13 34 40.5 52.5 q27.5 18.5 63.5 18.5 q9 0 25 -2 l0 -69 q-5 1 -19 1 q-25 0 -41.5 -12.5 q-16.5 -12.5 -20.5 -33.5 q33 -42 33 -105 q0 -70 -46 -121 q-55 -60 -151 -60 q-44 0 -85 14 q-40 -13 -43 -45 q-1 -16 5.5 -26.5 q6.5 -10.5 19.5 -15 q13 -4.5 24.5 -6.5 q11.5 -2 26.5 -2 l100 0 q115 0 167 -53 ZM352 258 q32 32 32 81 q0 49 -31 80 q-31 31 -84 31 q-51 0 -83 -31.5 q-32 -31.5 -32 -79.5 q0 -49 31 -81 q31 -32 84 -32 q51 0 83 32 ZM442 -75 q0 19 -6 33.5 q-6 14.5 -19 23 q-13 8.5 -24 14 q-11 5.5 -32.5 7 q-21.5 1.5 -32 2 q-10.5 0.5 -33.5 0.5 q-8 0 -12 0 l-92 0 q-27 -9 -45.5 -30.5 q-18.5 -21.5 -18.5 -49.5 q0 -32 21 -53 q35 -35 135 -35 q102 0 138 36 q21 21 21 52 ZM296 712 l111 -117 l-48 -44 l-90 94 l-88 -94 l-50 44 l110 117 l55 0 Z" /><glyph glyph-name="Gbreve" unicode="&#x11e;" d="M606 0 l-62 0 l-15 85 q-26 -44 -79.5 -71.5 q-53.5 -27.5 -113.5 -27.5 q-117 0 -191 73 q-51 50 -71.5 121.5 q-20.5 71.5 -20.5 173.5 q0 97 19.5 168.5 q19.5 71.5 72.5 123.5 q78 76 191 76 q128 0 203 -80 q57 -60 61 -138 l-93 0 q-4 44 -32 78 q-47 56 -139 56 q-77 0 -129 -54 q-62 -64 -62 -230 q0 -168 64 -233 q50 -51 127 -51 q80 0 129 49 q61 60 61 180 l-190 0 l0 83 l270 0 l0 -382 ZM500 910 q-6 -69 -47.5 -112.5 q-41.5 -43.5 -116.5 -43.5 q-75 0 -117 43.5 q-42 43.5 -48 112.5 l68 0 q11 -92 97 -92 q84 0 96 92 l68 0 Z" /><glyph glyph-name="gbreve" unicode="&#x11f;" d="M485 24 q40 -40 40 -99 q0 -59 -43 -102 q-60 -59 -204 -59 q-133 0 -192 59 q-36 36 -36 90 q0 76 72 112 q-26 10 -42.5 33 q-16.5 23 -16.5 52 q0 66 67 98 q-58 52 -58 131 q0 73 48 123 q55 57 150 57 q67 0 116 -30 q13 34 40.5 52.5 q27.5 18.5 63.5 18.5 q9 0 25 -2 l0 -69 q-5 1 -19 1 q-25 0 -41.5 -12.5 q-16.5 -12.5 -20.5 -33.5 q33 -42 33 -105 q0 -70 -46 -121 q-55 -60 -151 -60 q-44 0 -85 14 q-40 -13 -43 -45 q-1 -16 5.5 -26.5 q6.5 -10.5 19.5 -15 q13 -4.5 24.5 -6.5 q11.5 -2 26.5 -2 l100 0 q115 0 167 -53 ZM352 258 q32 32 32 81 q0 49 -31 80 q-31 31 -84 31 q-51 0 -83 -31.5 q-32 -31.5 -32 -79.5 q0 -49 31 -81 q31 -32 84 -32 q51 0 83 32 ZM442 -75 q0 19 -6 33.5 q-6 14.5 -19 23 q-13 8.5 -24 14 q-11 5.5 -32.5 7 q-21.5 1.5 -32 2 q-10.5 0.5 -33.5 0.5 q-8 0 -12 0 l-92 0 q-27 -9 -45.5 -30.5 q-18.5 -21.5 -18.5 -49.5 q0 -32 21 -53 q35 -35 135 -35 q102 0 138 36 q21 21 21 52 ZM434 710 q-6 -69 -47.5 -112.5 q-41.5 -43.5 -116.5 -43.5 q-75 0 -117 43.5 q-42 43.5 -48 112.5 l68 0 q11 -92 97 -92 q84 0 96 92 l68 0 Z" /><glyph glyph-name="Gdotaccent" unicode="&#x120;" d="M606 0 l-62 0 l-15 85 q-26 -44 -79.5 -71.5 q-53.5 -27.5 -113.5 -27.5 q-117 0 -191 73 q-51 50 -71.5 121.5 q-20.5 71.5 -20.5 173.5 q0 97 19.5 168.5 q19.5 71.5 72.5 123.5 q78 76 191 76 q128 0 203 -80 q57 -60 61 -138 l-93 0 q-4 44 -32 78 q-47 56 -139 56 q-77 0 -129 -54 q-62 -64 -62 -230 q0 -168 64 -233 q50 -51 127 -51 q80 0 129 49 q61 60 61 180 l-190 0 l0 83 l270 0 l0 -382 ZM382 789 l-92 0 l0 92 l92 0 l0 -92 Z" /><glyph glyph-name="gdotaccent" unicode="&#x121;" d="M485 24 q40 -40 40 -99 q0 -59 -43 -102 q-60 -59 -204 -59 q-133 0 -192 59 q-36 36 -36 90 q0 76 72 112 q-26 10 -42.5 33 q-16.5 23 -16.5 52 q0 66 67 98 q-58 52 -58 131 q0 73 48 123 q55 57 150 57 q67 0 116 -30 q13 34 40.5 52.5 q27.5 18.5 63.5 18.5 q9 0 25 -2 l0 -69 q-5 1 -19 1 q-25 0 -41.5 -12.5 q-16.5 -12.5 -20.5 -33.5 q33 -42 33 -105 q0 -70 -46 -121 q-55 -60 -151 -60 q-44 0 -85 14 q-40 -13 -43 -45 q-1 -16 5.5 -26.5 q6.5 -10.5 19.5 -15 q13 -4.5 24.5 -6.5 q11.5 -2 26.5 -2 l100 0 q115 0 167 -53 ZM352 258 q32 32 32 81 q0 49 -31 80 q-31 31 -84 31 q-51 0 -83 -31.5 q-32 -31.5 -32 -79.5 q0 -49 31 -81 q31 -32 84 -32 q51 0 83 32 ZM442 -75 q0 19 -6 33.5 q-6 14.5 -19 23 q-13 8.5 -24 14 q-11 5.5 -32.5 7 q-21.5 1.5 -32 2 q-10.5 0.5 -33.5 0.5 q-8 0 -12 0 l-92 0 q-27 -9 -45.5 -30.5 q-18.5 -21.5 -18.5 -49.5 q0 -32 21 -53 q35 -35 135 -35 q102 0 138 36 q21 21 21 52 ZM316 599 l-92 0 l0 92 l92 0 l0 -92 Z" /><glyph glyph-name="Gcommaaccent" unicode="&#x122;" d="M606 0 l-62 0 l-15 85 q-26 -44 -79.5 -71.5 q-53.5 -27.5 -113.5 -27.5 q-117 0 -191 73 q-51 50 -71.5 121.5 q-20.5 71.5 -20.5 173.5 q0 97 19.5 168.5 q19.5 71.5 72.5 123.5 q78 76 191 76 q128 0 203 -80 q57 -60 61 -138 l-93 0 q-4 44 -32 78 q-47 56 -139 56 q-77 0 -129 -54 q-62 -64 -62 -230 q0 -168 64 -233 q50 -51 127 -51 q80 0 129 49 q61 60 61 180 l-190 0 l0 83 l270 0 l0 -382 ZM383 -61 l0 -77 q0 -66 -68 -85 l-16 30 q21 7 29.5 17.5 q8.5 10.5 8.5 32.5 l-39 0 l0 82 l85 0 Z" /><glyph glyph-name="gcommaaccent" unicode="&#x123;" d="M485 24 q40 -40 40 -99 q0 -59 -43 -102 q-60 -59 -204 -59 q-133 0 -192 59 q-36 36 -36 90 q0 76 72 112 q-26 10 -42.5 33 q-16.5 23 -16.5 52 q0 66 67 98 q-58 52 -58 131 q0 73 48 123 q55 57 150 57 q67 0 116 -30 q13 34 40.5 52.5 q27.5 18.5 63.5 18.5 q9 0 25 -2 l0 -69 q-5 1 -19 1 q-25 0 -41.5 -12.5 q-16.5 -12.5 -20.5 -33.5 q33 -42 33 -105 q0 -70 -46 -121 q-55 -60 -151 -60 q-44 0 -85 14 q-40 -13 -43 -45 q-1 -16 5.5 -26.5 q6.5 -10.5 19.5 -15 q13 -4.5 24.5 -6.5 q11.5 -2 26.5 -2 l100 0 q115 0 167 -53 ZM352 258 q32 32 32 81 q0 49 -31 80 q-31 31 -84 31 q-51 0 -83 -31.5 q-32 -31.5 -32 -79.5 q0 -49 31 -81 q31 -32 84 -32 q51 0 83 32 ZM442 -75 q0 19 -6 33.5 q-6 14.5 -19 23 q-13 8.5 -24 14 q-11 5.5 -32.5 7 q-21.5 1.5 -32 2 q-10.5 0.5 -33.5 0.5 q-8 0 -12 0 l-92 0 q-27 -9 -45.5 -30.5 q-18.5 -21.5 -18.5 -49.5 q0 -32 21 -53 q35 -35 135 -35 q102 0 138 36 q21 21 21 52 ZM228 557 l0 77 q0 66 68 85 l16 -30 q-21 -7 -29.5 -17.5 q-8.5 -10.5 -8.5 -32.5 l39 0 l0 -82 l-85 0 Z" /><glyph glyph-name="Hcircumflex" unicode="&#x124;" d="M618 0 l-89 0 l0 327 l-340 0 l0 -327 l-89 0 l0 709 l89 0 l0 -296 l340 0 l0 296 l89 0 l0 -709 ZM384 915 l128 -113 l-46 -48 l-110 98 l-108 -98 l-46 48 l125 113 l57 0 Z" /><glyph glyph-name="hcircumflex" unicode="&#x125;" d="M502 0 l-85 0 l0 321 q0 121 -111 121 q-73 0 -110 -78 q-18 -39 -18 -129 l0 -235 l-85 0 l0 722 l85 0 l0 -283 q22 38 63 59 q41 21 85 21 q85 0 130.5 -48.5 q45.5 -48.5 45.5 -137.5 l0 -333 ZM180 886 l111 -117 l-48 -44 l-90 94 l-88 -94 l-50 44 l110 117 l55 0 Z" /><glyph glyph-name="Hbar" unicode="&#x126;" d="M618 0 l-89 0 l0 327 l-340 0 l0 -327 l-89 0 l0 490 l-59 0 l0 68 l59 0 l0 151 l89 0 l0 -151 l340 0 l0 151 l89 0 l0 -151 l62 0 l0 -68 l-62 0 l0 -490 ZM189 413 l340 0 l0 77 l-340 0 l0 -77 Z" /><glyph glyph-name="hbar" unicode="&#x127;" d="M502 0 l-85 0 l0 321 q0 121 -111 121 q-73 0 -110 -78 q-18 -39 -18 -129 l0 -235 l-85 0 l0 568 l-58 0 l0 63 l58 0 l0 91 l85 0 l0 -91 l163 0 l0 -63 l-163 0 l0 -129 q22 38 63 59 q41 21 85 21 q85 0 130.5 -48.5 q45.5 -48.5 45.5 -137.5 l0 -333 Z" /><glyph glyph-name="Imacron" unicode="&#x12a;" d="M191 0 l-91 0 l0 709 l91 0 l0 -709 ZM284 774 l-278 0 l0 68 l278 0 l0 -68 Z" /><glyph glyph-name="imacron" unicode="&#x12b;" d="M180 0 l-86 0 l0 506 l86 0 l0 -506 ZM276 588 l-278 0 l0 68 l278 0 l0 -68 Z" /><glyph glyph-name="Iogonek" unicode="&#x12e;" d="M36 -103 q0 30 15.5 55.5 q15.5 25.5 28 35 q12.5 9.5 20.5 12.5 l0 709 l91 0 l0 -709 q-35 -13 -57.5 -35.5 q-22.5 -22.5 -22.5 -51.5 q0 -43 50 -43 l30 1 l0 -58 q-22 -6 -40 -7 l-10 0 q-45 0 -75 26 q-30 26 -30 65 Z" /><glyph glyph-name="iogonek" unicode="&#x12f;" d="M25 -103 q0 31 16.5 56.5 q16.5 25.5 29 34.5 q12.5 9 19.5 12 q2 0 3 1 l0 505 l87 0 l0 -506 q-35 -13 -57.5 -35.5 q-22.5 -22.5 -22.5 -51.5 q0 -43 50 -43 l30 1 l0 -58 q-22 -6 -40 -7 l-10 0 q-45 0 -75 26 q-30 26 -30 65 ZM186 622 l-99 0 l0 100 l99 0 l0 -100 Z" /><glyph glyph-name="Idotaccent" unicode="&#x130;" d="M191 0 l-91 0 l0 709 l91 0 l0 -709 ZM191 789 l-92 0 l0 92 l92 0 l0 -92 Z" /><glyph glyph-name="dotlessi" unicode="&#x131;" d="M180 0 l-86 0 l0 506 l86 0 l0 -506 Z" /><glyph glyph-name="Jcircumflex" unicode="&#x134;" d="M413 198 q0 -97 -52.5 -154 q-52.5 -57 -147.5 -57 q-90 0 -148 60 q-57 58 -57 168 l90 0 q0 -81 37 -116 q31 -29 78 -29 q111 0 111 128 l0 511 l89 0 l0 -511 ZM352 915 l128 -113 l-46 -48 l-110 98 l-108 -98 l-46 48 l125 113 l57 0 Z" /><glyph glyph-name="jcircumflex" unicode="&#x135;" d="M190 -71 q0 -68 -34.5 -105.5 q-34.5 -37.5 -104.5 -37.5 q-35 0 -66 10 l0 73 q26 -5 63 -5 q27 0 42 18.5 q15 18.5 15 45.5 l0 578 l85 0 l0 -577 ZM168 712 l111 -117 l-48 -44 l-90 94 l-88 -94 l-50 44 l110 117 l55 0 Z" /><glyph glyph-name="Kcommaaccent" unicode="&#x136;" d="M649 0 l-104 0 l-212 368 l-144 -168 l0 -200 l-89 0 l0 709 l89 0 l0 -378 l325 378 l111 0 l-231 -270 l255 -439 ZM394 -61 l0 -77 q0 -66 -68 -85 l-16 30 q21 7 29.5 17.5 q8.5 10.5 8.5 32.5 l-39 0 l0 82 l85 0 Z" /><glyph glyph-name="kcommaaccent" unicode="&#x137;" d="M529 0 l-96 0 l-158 244 l-97 -108 l0 -136 l-85 0 l0 722 l85 0 l0 -471 l229 255 l103 0 l-180 -200 l199 -306 ZM336 -61 l0 -77 q0 -66 -68 -85 l-16 30 q21 7 29.5 17.5 q8.5 10.5 8.5 32.5 l-39 0 l0 82 l85 0 Z" /><glyph glyph-name="Lacute" unicode="&#x139;" d="M530 0 l-430 0 l0 709 l89 0 l0 -626 l341 0 l0 -83 ZM315 853 l-185 -99 l-30 47 l170 123 l45 -71 Z" /><glyph glyph-name="lacute" unicode="&#x13a;" d="M256 0 q-19 -6 -60 -6 q-106 0 -106 124 l0 604 l85 0 l0 -599 q0 -27 10.5 -39.5 q10.5 -12.5 35.5 -12.5 l35 1 l0 -72 ZM293 853 l-185 -99 l-30 47 l170 123 l45 -71 Z" /><glyph glyph-name="Lcommaaccent" unicode="&#x13b;" d="M530 0 l-430 0 l0 709 l89 0 l0 -626 l341 0 l0 -83 ZM355 -61 l0 -77 q0 -66 -68 -85 l-16 30 q21 7 29.5 17.5 q8.5 10.5 8.5 32.5 l-39 0 l0 82 l85 0 Z" /><glyph glyph-name="lcommaaccent" unicode="&#x13c;" d="M256 0 q-19 -6 -60 -6 q-106 0 -106 124 l0 604 l85 0 l0 -599 q0 -27 10.5 -39.5 q10.5 -12.5 35.5 -12.5 l35 1 l0 -72 ZM188 -61 l0 -77 q0 -66 -68 -85 l-16 30 q21 7 29.5 17.5 q8.5 10.5 8.5 32.5 l-39 0 l0 82 l85 0 Z" /><glyph glyph-name="Lcaron" unicode="&#x13d;" d="M530 0 l-430 0 l0 709 l89 0 l0 -626 l341 0 l0 -83 ZM327 772 l0 -85 q0 -72 -64 -102 l-15 33 q22 11 28.5 24 q6.5 13 6.5 33 l0 6 l-33 0 l0 91 l77 0 Z" /><glyph glyph-name="lcaron" unicode="&#x13e;" d="M256 0 q-19 -6 -60 -6 q-106 0 -106 124 l0 604 l85 0 l0 -599 q0 -27 10.5 -39.5 q10.5 -12.5 35.5 -12.5 l35 1 l0 -72 ZM282 722 l0 -85 q0 -72 -64 -102 l-15 33 q22 11 28.5 24 q6.5 13 6.5 33 l0 6 l-33 0 l0 91 l77 0 Z" /><glyph glyph-name="Lslash" unicode="&#x141;" d="M551 0 l-430 0 l0 296 l-65 -40 l-33 52 l98 61 l0 340 l89 0 l0 -285 l127 79 l33 -53 l-160 -99 l0 -268 l341 0 l0 -83 Z" /><glyph glyph-name="lslash" unicode="&#x142;" d="M308 466 l-113 -70 l0 -273 q0 -27 10.5 -39.5 q10.5 -12.5 35.5 -12.5 l35 1 l0 -72 q-19 -6 -60 -6 q-106 0 -106 124 l0 225 l-57 -35 l-33 52 l90 56 l0 306 l85 0 l0 -253 l80 50 l33 -53 Z" /><glyph glyph-name="Nacute" unicode="&#x143;" d="M634 0 l-100 0 l-348 570 l0 -570 l-86 0 l0 709 l100 0 l348 -572 l0 572 l86 0 l0 -709 ZM514 853 l-185 -99 l-30 47 l170 123 l45 -71 Z" /><glyph glyph-name="nacute" unicode="&#x144;" d="M502 0 l-85 0 l0 321 q0 121 -111 121 q-73 0 -110 -78 q-18 -39 -18 -129 l0 -235 l-85 0 l0 506 l74 0 l7 -76 q19 41 63 65 q44 24 90 24 q85 0 130 -48.5 q45 -48.5 45 -137.5 l0 -333 ZM440 650 l-185 -99 l-30 47 l170 123 l45 -71 Z" /><glyph glyph-name="Ncommaaccent" unicode="&#x145;" d="M634 0 l-100 0 l-348 570 l0 -570 l-86 0 l0 709 l100 0 l348 -572 l0 572 l86 0 l0 -709 ZM420 -61 l0 -77 q0 -66 -68 -85 l-16 30 q21 7 29.5 17.5 q8.5 10.5 8.5 32.5 l-39 0 l0 82 l85 0 Z" /><glyph glyph-name="ncommaaccent" unicode="&#x146;" d="M502 0 l-85 0 l0 321 q0 121 -111 121 q-73 0 -110 -78 q-18 -39 -18 -129 l0 -235 l-85 0 l0 506 l74 0 l7 -76 q19 41 63 65 q44 24 90 24 q85 0 130 -48.5 q45 -48.5 45 -137.5 l0 -333 ZM345 -61 l0 -77 q0 -66 -68 -85 l-16 30 q21 7 29.5 17.5 q8.5 10.5 8.5 32.5 l-39 0 l0 82 l85 0 Z" /><glyph glyph-name="Ncaron" unicode="&#x147;" d="M634 0 l-100 0 l-348 570 l0 -570 l-86 0 l0 709 l100 0 l348 -572 l0 572 l86 0 l0 -709 ZM530 867 l-128 -113 l-57 0 l-125 113 l48 51 l106 -97 l108 97 l48 -51 Z" /><glyph glyph-name="ncaron" unicode="&#x148;" d="M502 0 l-85 0 l0 321 q0 121 -111 121 q-73 0 -110 -78 q-18 -39 -18 -129 l0 -235 l-85 0 l0 506 l74 0 l7 -76 q19 41 63 65 q44 24 90 24 q85 0 130 -48.5 q45 -48.5 45 -137.5 l0 -333 ZM443 674 l-111 -117 l-55 0 l-110 117 l50 44 l88 -94 l90 94 l48 -44 Z" /><glyph glyph-name="Omacron" unicode="&#x14c;" d="M598 523 q19 -71 19 -169 q0 -98 -19 -169 q-19 -71 -72 -123 q-78 -76 -191 -76 q-113 0 -191 76 q-53 52 -72 123 q-19 71 -19 169 q0 98 19 169 q19 71 72 123 q78 76 191 76 q113 0 191 -76 q53 -52 72 -123 ZM522.5 273 q2.5 33 2.5 81 q0 48 -2.5 81 q-2.5 33 -17 77 q-14.5 44 -41.5 72 q-51 53 -129 53 q-78 0 -129 -53 q-27 -28 -41.5 -72 q-14.5 -44 -17 -77 q-2.5 -33 -2.5 -81 q0 -48 2.5 -81 q2.5 -33 17 -77 q14.5 -44 41.5 -72 q51 -53 129 -53 q78 0 129 53 q27 28 41.5 72 q14.5 44 17 77 ZM474 774 l-278 0 l0 68 l278 0 l0 -68 Z" /><glyph glyph-name="omacron" unicode="&#x14d;" d="M432 460 q72 -71 72 -207 q0 -136 -72 -207 q-61 -59 -153 -59 q-92 0 -153 59 q-72 71 -72 207 q0 136 72 207 q61 59 153 59 q92 0 153 -59 ZM370 96 q47 48 47 157 q0 109 -47 157 q-36 36 -91 36 q-55 0 -91 -36 q-47 -48 -47 -157 q0 -109 47 -157 q36 -36 91 -36 q55 0 91 36 ZM418 588 l-278 0 l0 68 l278 0 l0 -68 Z" /><glyph glyph-name="Ohungarumlaut" unicode="&#x150;" d="M598 523 q19 -71 19 -169 q0 -98 -19 -169 q-19 -71 -72 -123 q-78 -76 -191 -76 q-113 0 -191 76 q-53 52 -72 123 q-19 71 -19 169 q0 98 19 169 q19 71 72 123 q78 76 191 76 q113 0 191 -76 q53 -52 72 -123 ZM522.5 273 q2.5 33 2.5 81 q0 48 -2.5 81 q-2.5 33 -17 77 q-14.5 44 -41.5 72 q-51 53 -129 53 q-78 0 -129 -53 q-27 -28 -41.5 -72 q-14.5 -44 -17 -77 q-2.5 -33 -2.5 -81 q0 -48 2.5 -81 q2.5 -33 17 -77 q14.5 -44 41.5 -72 q51 -53 129 -53 q78 0 129 53 q27 28 41.5 72 q14.5 44 17 77 ZM591 858 l-187 -104 l-32 47 l172 129 l47 -72 ZM398 858 l-187 -104 l-32 47 l172 129 l47 -72 Z" /><glyph glyph-name="ohungarumlaut" unicode="&#x151;" d="M432 460 q72 -71 72 -207 q0 -136 -72 -207 q-61 -59 -153 -59 q-92 0 -153 59 q-72 71 -72 207 q0 136 72 207 q61 59 153 59 q92 0 153 -59 ZM370 96 q47 48 47 157 q0 109 -47 157 q-36 36 -91 36 q-55 0 -91 -36 q-47 -48 -47 -157 q0 -109 47 -157 q36 -36 91 -36 q55 0 91 36 ZM525 657 l-187 -104 l-32 47 l172 129 l47 -72 ZM332 657 l-187 -104 l-32 47 l172 129 l47 -72 Z" /><glyph glyph-name="OE" unicode="&#x152;" d="M932 0 l-420 0 l0 65 q-62 -78 -187 -78 q-114 0 -189 77 q-49 51 -66 121.5 q-17 70.5 -17 169.5 q0 99 17 169 q17 70 66 121 q76 78 189 78 q123 0 187 -81 l0 67 l420 0 l0 -83 l-338 0 l0 -206 l289 0 l0 -84 l-289 0 l0 -253 l338 0 l0 -83 ZM507 355 q0 171 -54 234 q-46 53 -128 53 q-69 0 -117 -44 q-65 -63 -65 -243 q0 -172 56 -236 q45 -52 126 -52 q76 0 121 45 q37 37 49 97.5 q12 60.5 12 145.5 Z" /><glyph glyph-name="oe" unicode="&#x153;" d="M839 229 l-349 0 q0 -65 20 -104 q35 -68 117 -68 q41 0 75.5 23.5 q34.5 23.5 43.5 67.5 l85 0 q-10 -71 -66 -118 q-54 -45 -137 -45 q-124 0 -179 94 q-16 -25 -26 -35 q-58 -60 -151 -60 q-91 0 -150 61 q-68 69 -68 206 q0 139 67 207 q59 61 151 61 q91 0 151 -62 q11 -11 24 -32 l5 8 q24 40 69.5 63 q45.5 23 102.5 23 q115 0 175 -92 q40 -61 40 -171 l0 -27 ZM752 296 q-2 72 -36 112 q-36 41 -93 41 q-61 0 -96 -44 q-35 -44 -36 -109 l261 0 ZM407 251 q0 114 -47 162 q-35 35 -88 35 q-48 0 -82 -31 q-51 -46 -51 -166 q0 -110 45 -159 q34 -37 88 -37 q62 0 97 45 q38 50 38 151 Z" /><glyph glyph-name="Racute" unicode="&#x154;" d="M617 0 l-98 0 l-134 295 l-196 0 l0 -295 l-89 0 l0 709 l278 0 q119 0 180 -63 q56 -59 56 -144 q0 -83 -54 -140 q-31 -33 -85 -50 l142 -312 ZM522 502 q0 125 -144 125 l-189 0 l0 -249 l189 0 q144 0 144 124 ZM458 853 l-185 -99 l-30 47 l170 123 l45 -71 Z" /><glyph glyph-name="racute" unicode="&#x155;" d="M366 423 q-20 4 -47 4 q-54 0 -96 -40 q-46 -44 -46 -162 l0 -225 l-84 0 l0 506 l75 0 l7 -89 q19 45 60 68.5 q41 23.5 91 23.5 q20 0 40 -3 l0 -83 ZM388 650 l-185 -99 l-30 47 l170 123 l45 -71 Z" /><glyph glyph-name="Rcommaaccent" unicode="&#x156;" d="M617 0 l-98 0 l-134 295 l-196 0 l0 -295 l-89 0 l0 709 l278 0 q119 0 180 -63 q56 -59 56 -144 q0 -83 -54 -140 q-31 -33 -85 -50 l142 -312 ZM522 502 q0 125 -144 125 l-189 0 l0 -249 l189 0 q144 0 144 124 ZM389 -61 l0 -77 q0 -66 -68 -85 l-16 30 q21 7 29.5 17.5 q8.5 10.5 8.5 32.5 l-39 0 l0 82 l85 0 Z" /><glyph glyph-name="rcommaaccent" unicode="&#x157;" d="M366 423 q-20 4 -47 4 q-54 0 -96 -40 q-46 -44 -46 -162 l0 -225 l-84 0 l0 506 l75 0 l7 -89 q19 45 60 68.5 q41 23.5 91 23.5 q20 0 40 -3 l0 -83 ZM178 -61 l0 -77 q0 -66 -68 -85 l-16 30 q21 7 29.5 17.5 q8.5 10.5 8.5 32.5 l-39 0 l0 82 l85 0 Z" /><glyph glyph-name="Rcaron" unicode="&#x158;" d="M617 0 l-98 0 l-134 295 l-196 0 l0 -295 l-89 0 l0 709 l278 0 q119 0 180 -63 q56 -59 56 -144 q0 -83 -54 -140 q-31 -33 -85 -50 l142 -312 ZM522 502 q0 125 -144 125 l-189 0 l0 -249 l189 0 q144 0 144 124 ZM487 867 l-128 -113 l-57 0 l-125 113 l48 51 l106 -97 l108 97 l48 -51 Z" /><glyph glyph-name="rcaron" unicode="&#x159;" d="M366 423 q-20 4 -47 4 q-54 0 -96 -40 q-46 -44 -46 -162 l0 -225 l-84 0 l0 506 l75 0 l7 -89 q19 45 60 68.5 q41 23.5 91 23.5 q20 0 40 -3 l0 -83 ZM370 674 l-111 -117 l-55 0 l-110 117 l50 44 l88 -94 l90 94 l48 -44 Z" /><glyph glyph-name="Sacute" unicode="&#x15a;" d="M585 195 q0 -79 -60 -137 q-72 -71 -201 -71 q-129 0 -203 68 q-76 71 -76 170 l93 0 q0 -64 50 -112 q45 -44 136 -44 q88 0 132 41 q36 33 36 83 q0 44 -29.5 74.5 q-29.5 30.5 -89.5 39.5 l-112 17 q-85 13 -137 60 q-52 47 -52 128 q0 81 62 140 q75 70 186 70 q113 0 184 -68 q65 -62 68 -152 l-93 0 q-3 52 -35 89 q-43 49 -125 49 q-83 0 -126 -49 q-29 -34 -29 -77 q0 -44 30.5 -69 q30.5 -25 75.5 -31 q5 -1 118 -18 q90 -13 143.5 -66 q53.5 -53 53.5 -135 ZM455 853 l-185 -99 l-30 47 l170 123 l45 -71 Z" /><glyph glyph-name="sacute" unicode="&#x15b;" d="M468 147 q0 -61 -40 -103 q-56 -57 -165 -57 q-106 0 -164 57 q-49 47 -49 116 l85 0 q1 -49 41 -79 q31 -23 91 -23 q60 0 93 28 q25 20 25 55 q0 61 -79 72 l-114 15 q-58 9 -91 44 q-33 35 -33 92 q0 57 42 99 q54 56 149 56 q110 0 161 -64 q36 -44 36 -97 l-85 0 q-2 39 -29 63 q-30 27 -83 27 q-35 0 -59 -10 q-51 -21 -51 -68 q0 -56 68 -66 q9 -1 30 -4 q21 -3 44.5 -6 q23.5 -3 47.5 -7 q56 -9 92.5 -47 q36.5 -38 36.5 -93 ZM408 650 l-185 -99 l-30 47 l170 123 l45 -71 Z" /><glyph glyph-name="Scircumflex" unicode="&#x15c;" d="M585 195 q0 -79 -60 -137 q-72 -71 -201 -71 q-129 0 -203 68 q-76 71 -76 170 l93 0 q0 -64 50 -112 q45 -44 136 -44 q88 0 132 41 q36 33 36 83 q0 44 -29.5 74.5 q-29.5 30.5 -89.5 39.5 l-112 17 q-85 13 -137 60 q-52 47 -52 128 q0 81 62 140 q75 70 186 70 q113 0 184 -68 q65 -62 68 -152 l-93 0 q-3 52 -35 89 q-43 49 -125 49 q-83 0 -126 -49 q-29 -34 -29 -77 q0 -44 30.5 -69 q30.5 -25 75.5 -31 q5 -1 118 -18 q90 -13 143.5 -66 q53.5 -53 53.5 -135 ZM344 915 l128 -113 l-46 -48 l-110 98 l-108 -98 l-46 48 l125 113 l57 0 Z" /><glyph glyph-name="scircumflex" unicode="&#x15d;" d="M468 147 q0 -61 -40 -103 q-56 -57 -165 -57 q-106 0 -164 57 q-49 47 -49 116 l85 0 q1 -49 41 -79 q31 -23 91 -23 q60 0 93 28 q25 20 25 55 q0 61 -79 72 l-114 15 q-58 9 -91 44 q-33 35 -33 92 q0 57 42 99 q54 56 149 56 q110 0 161 -64 q36 -44 36 -97 l-85 0 q-2 39 -29 63 q-30 27 -83 27 q-35 0 -59 -10 q-51 -21 -51 -68 q0 -56 68 -66 q9 -1 30 -4 q21 -3 44.5 -6 q23.5 -3 47.5 -7 q56 -9 92.5 -47 q36.5 -38 36.5 -93 ZM291 712 l111 -117 l-48 -44 l-90 94 l-88 -94 l-50 44 l110 117 l55 0 Z" /><glyph glyph-name="Scedilla" unicode="&#x15e;" d="M585 195 q0 -79 -60 -137 q-72 -71 -201 -71 q-129 0 -203 68 q-76 71 -76 170 l93 0 q0 -64 50 -112 q45 -44 136 -44 q88 0 132 41 q36 33 36 83 q0 44 -29.5 74.5 q-29.5 30.5 -89.5 39.5 l-112 17 q-85 13 -137 60 q-52 47 -52 128 q0 81 62 140 q75 70 186 70 q113 0 184 -68 q65 -62 68 -152 l-93 0 q-3 52 -35 89 q-43 49 -125 49 q-83 0 -126 -49 q-29 -34 -29 -77 q0 -44 30.5 -69 q30.5 -25 75.5 -31 q5 -1 118 -18 q90 -13 143.5 -66 q53.5 -53 53.5 -135 ZM376 -62 l-69 -176 l-88 41 l79 135 l78 0 Z" /><glyph glyph-name="scedilla" unicode="&#x15f;" d="M468 147 q0 -61 -40 -103 q-56 -57 -165 -57 q-106 0 -164 57 q-49 47 -49 116 l85 0 q1 -49 41 -79 q31 -23 91 -23 q60 0 93 28 q25 20 25 55 q0 61 -79 72 l-114 15 q-58 9 -91 44 q-33 35 -33 92 q0 57 42 99 q54 56 149 56 q110 0 161 -64 q36 -44 36 -97 l-85 0 q-2 39 -29 63 q-30 27 -83 27 q-35 0 -59 -10 q-51 -21 -51 -68 q0 -56 68 -66 q9 -1 30 -4 q21 -3 44.5 -6 q23.5 -3 47.5 -7 q56 -9 92.5 -47 q36.5 -38 36.5 -93 ZM319 -62 l-69 -176 l-88 41 l79 135 l78 0 Z" /><glyph glyph-name="Scaron" unicode="&#x160;" d="M585 195 q0 -79 -60 -137 q-72 -71 -201 -71 q-129 0 -203 68 q-76 71 -76 170 l93 0 q0 -64 50 -112 q45 -44 136 -44 q88 0 132 41 q36 33 36 83 q0 44 -29.5 74.5 q-29.5 30.5 -89.5 39.5 l-112 17 q-85 13 -137 60 q-52 47 -52 128 q0 81 62 140 q75 70 186 70 q113 0 184 -68 q65 -62 68 -152 l-93 0 q-3 52 -35 89 q-43 49 -125 49 q-83 0 -126 -49 q-29 -34 -29 -77 q0 -44 30.5 -69 q30.5 -25 75.5 -31 q5 -1 118 -18 q90 -13 143.5 -66 q53.5 -53 53.5 -135 ZM476 867 l-128 -113 l-57 0 l-125 113 l48 51 l106 -97 l108 97 l48 -51 Z" /><glyph glyph-name="scaron" unicode="&#x161;" d="M468 147 q0 -61 -40 -103 q-56 -57 -165 -57 q-106 0 -164 57 q-49 47 -49 116 l85 0 q1 -49 41 -79 q31 -23 91 -23 q60 0 93 28 q25 20 25 55 q0 61 -79 72 l-114 15 q-58 9 -91 44 q-33 35 -33 92 q0 57 42 99 q54 56 149 56 q110 0 161 -64 q36 -44 36 -97 l-85 0 q-2 39 -29 63 q-30 27 -83 27 q-35 0 -59 -10 q-51 -21 -51 -68 q0 -56 68 -66 q9 -1 30 -4 q21 -3 44.5 -6 q23.5 -3 47.5 -7 q56 -9 92.5 -47 q36.5 -38 36.5 -93 ZM401 674 l-111 -117 l-55 0 l-110 117 l50 44 l88 -94 l90 94 l48 -44 Z" /><glyph glyph-name="Tcommaaccent" unicode="&#x162;" d="M525 626 l-211 0 l0 -626 l-90 0 l0 626 l-211 0 l0 83 l512 0 l0 -83 ZM312 -61 l0 -77 q0 -66 -68 -85 l-16 30 q21 7 29.5 17.5 q8.5 10.5 8.5 32.5 l-39 0 l0 82 l85 0 Z" /><glyph glyph-name="tcommaaccent" unicode="&#x163;" d="M355 7 q-54 -14 -101 -14 q-75 0 -107 39 q-32 39 -32 98 l0 303 l-98 0 l0 73 l98 0 l0 129 l85 20 l0 -149 l150 0 l0 -73 l-150 0 l0 -293 q0 -36 16 -52.5 q16 -16.5 52 -16.5 q16 0 38 2.5 q22 2.5 36 4.5 l13 2 l0 -73 ZM235 -61 l0 -77 q0 -66 -68 -85 l-16 30 q21 7 29.5 17.5 q8.5 10.5 8.5 32.5 l-39 0 l0 82 l85 0 Z" /><glyph glyph-name="Tcaron" unicode="&#x164;" d="M525 626 l-211 0 l0 -626 l-90 0 l0 626 l-211 0 l0 83 l512 0 l0 -83 ZM422 867 l-128 -113 l-57 0 l-125 113 l48 51 l106 -97 l108 97 l48 -51 Z" /><glyph glyph-name="tcaron" unicode="&#x165;" d="M355 7 q-54 -14 -101 -14 q-75 0 -107 39 q-32 39 -32 98 l0 303 l-98 0 l0 73 l98 0 l0 129 l85 20 l0 -149 l150 0 l0 -73 l-150 0 l0 -293 q0 -36 16 -52.5 q16 -16.5 52 -16.5 q16 0 38 2.5 q22 2.5 36 4.5 l13 2 l0 -73 ZM340 752 l0 -85 q0 -72 -64 -102 l-15 33 q22 11 28.5 24 q6.5 13 6.5 33 l0 6 l-33 0 l0 91 l77 0 Z" /><glyph glyph-name="Umacron" unicode="&#x16a;" d="M598 260 q0 -131 -69 -202 q-69 -71 -190 -71 q-121 0 -190 71 q-69 71 -69 202 l0 449 l89 0 l0 -451 q0 -188 170 -188 q170 0 170 188 l0 451 l89 0 l0 -449 ZM478 774 l-278 0 l0 68 l278 0 l0 -68 Z" /><glyph glyph-name="umacron" unicode="&#x16b;" d="M489 0 l-74 0 l-7 77 q-19 -42 -61 -65.5 q-42 -23.5 -89 -23.5 q-85 0 -129 48.5 q-44 48.5 -44 137.5 l0 332 l85 0 l0 -320 q0 -60 25 -90.5 q25 -30.5 83 -30.5 q48 0 84 38 q42 43 42 140 l0 263 l85 0 l0 -506 ZM430 588 l-278 0 l0 68 l278 0 l0 -68 Z" /><glyph glyph-name="Ubreve" unicode="&#x16c;" d="M598 260 q0 -131 -69 -202 q-69 -71 -190 -71 q-121 0 -190 71 q-69 71 -69 202 l0 449 l89 0 l0 -451 q0 -188 170 -188 q170 0 170 188 l0 451 l89 0 l0 -449 ZM503 910 q-6 -69 -47.5 -112.5 q-41.5 -43.5 -116.5 -43.5 q-75 0 -117 43.5 q-42 43.5 -48 112.5 l68 0 q12 -92 97 -92 q85 0 96 92 l68 0 Z" /><glyph glyph-name="ubreve" unicode="&#x16d;" d="M489 0 l-74 0 l-7 77 q-19 -42 -61 -65.5 q-42 -23.5 -89 -23.5 q-85 0 -129 48.5 q-44 48.5 -44 137.5 l0 332 l85 0 l0 -320 q0 -60 25 -90.5 q25 -30.5 83 -30.5 q48 0 84 38 q42 43 42 140 l0 263 l85 0 l0 -506 ZM458 710 q-6 -69 -47.5 -112.5 q-41.5 -43.5 -116.5 -43.5 q-75 0 -117 43.5 q-42 43.5 -48 112.5 l68 0 q11 -92 97 -92 q84 0 96 92 l68 0 Z" /><glyph glyph-name="Uring" unicode="&#x16e;" d="M598 260 q0 -131 -69 -202 q-69 -71 -190 -71 q-121 0 -190 71 q-69 71 -69 202 l0 449 l89 0 l0 -451 q0 -188 170 -188 q170 0 170 188 l0 451 l89 0 l0 -449 ZM419 884 q30 -32 30 -75 q0 -43 -30 -75 q-30 -32 -80 -32 q-50 0 -80 32 q-30 32 -30 75 q0 43 30 75 q30 32 80 32 q50 0 80 -32 ZM378 770 q15 16 15 39 q0 23 -15 39.5 q-15 16.5 -39 16.5 q-24 0 -39.5 -16.5 q-15.5 -16.5 -15.5 -39.5 q0 -23 15.5 -39 q15.5 -16 39.5 -16 q24 0 39 16 Z" /><glyph glyph-name="uring" unicode="&#x16f;" d="M489 0 l-74 0 l-7 77 q-19 -42 -61 -65.5 q-42 -23.5 -89 -23.5 q-85 0 -129 48.5 q-44 48.5 -44 137.5 l0 332 l85 0 l0 -320 q0 -60 25 -90.5 q25 -30.5 83 -30.5 q48 0 84 38 q42 43 42 140 l0 263 l85 0 l0 -506 ZM371 745 q30 -32 30 -75 q0 -43 -30 -75 q-30 -32 -80 -32 q-50 0 -80 32 q-30 32 -30 75 q0 43 30 75 q30 32 80 32 q50 0 80 -32 ZM330 631 q15 16 15 39 q0 23 -15 39.5 q-15 16.5 -39 16.5 q-24 0 -39.5 -16.5 q-15.5 -16.5 -15.5 -39.5 q0 -23 15.5 -39 q15.5 -16 39.5 -16 q24 0 39 16 Z" /><glyph glyph-name="Uhungarumlaut" unicode="&#x170;" d="M598 260 q0 -131 -69 -202 q-69 -71 -190 -71 q-121 0 -190 71 q-69 71 -69 202 l0 449 l89 0 l0 -451 q0 -188 170 -188 q170 0 170 188 l0 451 l89 0 l0 -449 ZM595 858 l-187 -104 l-32 47 l172 129 l47 -72 ZM402 858 l-187 -104 l-32 47 l172 129 l47 -72 Z" /><glyph glyph-name="uhungarumlaut" unicode="&#x171;" d="M489 0 l-74 0 l-7 77 q-19 -42 -61 -65.5 q-42 -23.5 -89 -23.5 q-85 0 -129 48.5 q-44 48.5 -44 137.5 l0 332 l85 0 l0 -320 q0 -60 25 -90.5 q25 -30.5 83 -30.5 q48 0 84 38 q42 43 42 140 l0 263 l85 0 l0 -506 ZM527 657 l-187 -104 l-32 47 l172 129 l47 -72 ZM334 657 l-187 -104 l-32 47 l172 129 l47 -72 Z" /><glyph glyph-name="Uogonek" unicode="&#x172;" d="M598 260 q0 -121 -60 -192 q-74 -92 -74 -152 q0 -46 50 -46 l30 3 l0 -60 q-22 -6 -40 -7 l-10 0 q-45 0 -75 25 q-30 25 -30 66 q0 68 54 107 q-48 -17 -104 -17 q-121 0 -190 71 q-69 71 -69 202 l0 449 l89 0 l0 -451 q0 -188 170 -188 q170 0 170 188 l0 451 l89 0 l0 -449 Z" /><glyph glyph-name="uogonek" unicode="&#x173;" d="M334 -103 q0 31 16.5 56.5 q16.5 25.5 29 34.5 q12.5 9 19.5 12 q2 1 7 2.5 q5 1.5 8 3.5 l-6 71 q-19 -42 -61 -65.5 q-42 -23.5 -89 -23.5 q-85 0 -129 48.5 q-44 48.5 -44 137.5 l0 332 l85 0 l0 -320 q0 -60 25 -90.5 q25 -30.5 83 -30.5 q48 0 84 38 q42 43 42 140 l0 263 l85 0 l0 -506 q-35 -13 -57.5 -35.5 q-22.5 -22.5 -22.5 -51.5 q0 -43 50 -43 l30 1 l0 -58 q-22 -6 -40 -7 l-10 0 q-45 0 -75 26 q-30 26 -30 65 Z" /><glyph glyph-name="Wcircumflex" unicode="&#x174;" d="M830 709 l-141 -709 l-95 0 l-162 571 l-164 -571 l-94 0 l-142 709 l83 0 l113 -578 l164 568 l80 0 l164 -567 l113 577 l81 0 ZM465 915 l128 -113 l-46 -48 l-110 98 l-108 -98 l-46 48 l125 113 l57 0 Z" /><glyph glyph-name="wcircumflex" unicode="&#x175;" d="M729 506 l-131 -506 l-82 0 l-132 387 l-135 -387 l-81 0 l-130 506 l84 0 l97 -382 l129 376 l73 0 l127 -376 l98 382 l83 0 ZM410 712 l111 -117 l-48 -44 l-90 94 l-88 -94 l-50 44 l110 117 l55 0 Z" /><glyph glyph-name="Ycircumflex" unicode="&#x176;" d="M566 709 l-238 -421 l0 -288 l-90 0 l0 288 l-238 421 l100 0 l186 -337 l185 337 l95 0 ZM314 915 l128 -113 l-46 -48 l-110 98 l-108 -98 l-46 48 l125 113 l57 0 Z" /><glyph glyph-name="ycircumflex" unicode="&#x177;" d="M488 506 l-228 -610 q-19 -53 -51 -80.5 q-32 -27.5 -86 -27.5 q-42 0 -77 10 l0 74 q27 -8 60 -8 q57 0 76 51 l32 85 l-202 506 l96 0 l149 -399 l142 399 l89 0 ZM286 712 l111 -117 l-48 -44 l-90 94 l-88 -94 l-50 44 l110 117 l55 0 Z" /><glyph glyph-name="Ydieresis" unicode="&#x178;" d="M566 709 l-238 -421 l0 -288 l-90 0 l0 288 l-238 421 l100 0 l186 -337 l185 337 l95 0 ZM419 778 l-92 0 l0 92 l92 0 l0 -92 ZM243 778 l-92 0 l0 92 l92 0 l0 -92 Z" /><glyph glyph-name="Zacute" unicode="&#x179;" d="M566 0 l-523 0 l0 89 l413 537 l-409 0 l0 83 l515 0 l0 -90 l-414 -536 l418 0 l0 -83 ZM427 853 l-185 -99 l-30 47 l170 123 l45 -71 Z" /><glyph glyph-name="zacute" unicode="&#x17a;" d="M453 0 l-400 0 l0 75 l294 357 l-294 0 l0 74 l397 0 l0 -75 l-293 -357 l296 0 l0 -74 ZM378 650 l-185 -99 l-30 47 l170 123 l45 -71 Z" /><glyph glyph-name="Zdotaccent" unicode="&#x17b;" d="M566 0 l-523 0 l0 89 l413 537 l-409 0 l0 83 l515 0 l0 -90 l-414 -536 l418 0 l0 -83 ZM354 789 l-92 0 l0 92 l92 0 l0 -92 Z" /><glyph glyph-name="zdotaccent" unicode="&#x17c;" d="M453 0 l-400 0 l0 75 l294 357 l-294 0 l0 74 l397 0 l0 -75 l-293 -357 l296 0 l0 -74 ZM303 599 l-92 0 l0 92 l92 0 l0 -92 Z" /><glyph glyph-name="Zcaron" unicode="&#x17d;" d="M566 0 l-523 0 l0 89 l413 537 l-409 0 l0 83 l515 0 l0 -90 l-414 -536 l418 0 l0 -83 ZM460 867 l-128 -113 l-57 0 l-125 113 l48 51 l106 -97 l108 97 l48 -51 Z" /><glyph glyph-name="zcaron" unicode="&#x17e;" d="M453 0 l-400 0 l0 75 l294 357 l-294 0 l0 74 l397 0 l0 -75 l-293 -357 l296 0 l0 -74 ZM116 670 l40 40 l98 -103 l96 103 l40 -40 l-112 -118 l-50 0 l-112 118 Z" /><glyph glyph-name="florin" unicode="&#x192;" d="M479 635 q-42 6 -58 6 q-67 0 -85 -89 l-23 -115 l141 0 l0 -75 l-156 0 l-67 -339 q-13 -63 -54 -100.5 q-41 -37.5 -94 -37.5 q-39 0 -75 8 l0 75 q42 -6 58 -6 q67 0 85 89 l62 311 l-102 0 l0 75 l117 0 l28 143 q13 63 54 100.5 q41 37.5 94 37.5 q39 0 75 -8 l0 -75 Z" /><glyph glyph-name="Scommaaccent" unicode="&#x218;" d="M585 195 q0 -79 -60 -137 q-72 -71 -201 -71 q-129 0 -203 68 q-76 71 -76 170 l93 0 q0 -64 50 -112 q45 -44 136 -44 q88 0 132 41 q36 33 36 83 q0 44 -29.5 74.5 q-29.5 30.5 -89.5 39.5 l-112 17 q-85 13 -137 60 q-52 47 -52 128 q0 81 62 140 q75 70 186 70 q113 0 184 -68 q65 -62 68 -152 l-93 0 q-3 52 -35 89 q-43 49 -125 49 q-83 0 -126 -49 q-29 -34 -29 -77 q0 -44 30.5 -69 q30.5 -25 75.5 -31 q5 -1 118 -18 q90 -13 143.5 -66 q53.5 -53 53.5 -135 ZM367 -61 l0 -77 q0 -66 -68 -85 l-16 30 q21 7 29.5 17.5 q8.5 10.5 8.5 32.5 l-39 0 l0 82 l85 0 Z" /><glyph glyph-name="scommaaccent" unicode="&#x219;" d="M468 147 q0 -61 -40 -103 q-56 -57 -165 -57 q-106 0 -164 57 q-49 47 -49 116 l85 0 q1 -49 41 -79 q31 -23 91 -23 q60 0 93 28 q25 20 25 55 q0 61 -79 72 l-114 15 q-58 9 -91 44 q-33 35 -33 92 q0 57 42 99 q54 56 149 56 q110 0 161 -64 q36 -44 36 -97 l-85 0 q-2 39 -29 63 q-30 27 -83 27 q-35 0 -59 -10 q-51 -21 -51 -68 q0 -56 68 -66 q9 -1 30 -4 q21 -3 44.5 -6 q23.5 -3 47.5 -7 q56 -9 92.5 -47 q36.5 -38 36.5 -93 ZM303 -61 l0 -77 q0 -66 -68 -85 l-16 30 q21 7 29.5 17.5 q8.5 10.5 8.5 32.5 l-39 0 l0 82 l85 0 Z" /><glyph glyph-name="circumflex" unicode="&#x2c6;" d="M204 712 l111 -117 l-48 -44 l-90 94 l-88 -94 l-50 44 l110 117 l55 0 Z" /><glyph glyph-name="caron" unicode="&#x2c7;" d="M325 674 l-111 -117 l-55 0 l-110 117 l50 44 l88 -94 l90 94 l48 -44 Z" /><glyph glyph-name="breve" unicode="&#x2d8;" d="M338 710 q-6 -69 -47.5 -112.5 q-41.5 -43.5 -116.5 -43.5 q-75 0 -117 43.5 q-42 43.5 -48 112.5 l68 0 q11 -92 97 -92 q84 0 96 92 l68 0 Z" /><glyph glyph-name="dotaccent" unicode="&#x2d9;" d="M183 599 l-92 0 l0 92 l92 0 l0 -92 Z" /><glyph glyph-name="ring" unicode="&#x2da;" d="M190 745 q30 -32 30 -75 q0 -43 -30 -75 q-30 -32 -80 -32 q-50 0 -80 32 q-30 32 -30 75 q0 43 30 75 q30 32 80 32 q50 0 80 -32 ZM149 631 q15 16 15 39 q0 23 -15 39.5 q-15 16.5 -39 16.5 q-24 0 -39.5 -16.5 q-15.5 -16.5 -15.5 -39.5 q0 -23 15.5 -39 q15.5 -16 39.5 -16 q24 0 39 16 Z" /><glyph glyph-name="ogonek" unicode="&#x2db;" d="M44 -103 q0 31 16.5 56.5 q16.5 25.5 29 34.5 q12.5 9 19.5 12 q45 18 49 34 l41 -34 q-35 -13 -57.5 -35.5 q-22.5 -22.5 -22.5 -51.5 q0 -43 50 -43 l30 1 l0 -58 q-22 -6 -40 -7 l-10 0 q-45 0 -75 26 q-30 26 -30 65 Z" /><glyph glyph-name="tilde" unicode="&#x2dc;" d="M346 647 q-42 -54 -101 -54 q-34 0 -72 21 q-38 21 -59 21 q-34 0 -62 -28 l-39 42 q48 54 102 54 q29 0 69 -22 q40 -22 62 -22 q37 0 63 30 l37 -42 Z" /><glyph glyph-name="hungarumlaut" unicode="&#x2dd;" d="M450 657 l-187 -104 l-32 47 l172 129 l47 -72 ZM257 657 l-187 -104 l-32 47 l172 129 l47 -72 Z" /><glyph glyph-name="Delta" unicode="&#x394;" d="M539 364 q0 -41 -26.5 -67.5 q-26.5 -26.5 -66.5 -26.5 l-72 0 q17 -23 17 -54 q0 -40 -26.5 -66.5 q-26.5 -26.5 -66.5 -26.5 l-249 0 l0 248 q0 41 26.5 67.5 q26.5 26.5 66.5 26.5 q30 0 55 -17 l0 71 q0 41 26.5 67.5 q26.5 26.5 66.5 26.5 q40 0 66.5 -26.5 q26.5 -26.5 26.5 -67.5 l0 -62 l63 0 q40 0 66.5 -26.5 q26.5 -26.5 26.5 -66.5 ZM501 308.5 q21 21.5 21 55.5 q0 34 -21 55 q-21 21 -55 21 l-79 0 l0 79 q0 34 -21.5 55.5 q-21.5 21.5 -55.5 21.5 q-34 0 -55 -21.5 q-21 -21.5 -21 -55.5 l0 -232 l232 0 q34 0 55 21.5 Z" /><glyph glyph-name="pi" unicode="&#x3c0;" d="M570 4 q-28 -11 -67 -11 q-56 0 -82.5 36 q-26.5 36 -26.5 89 l0 320 l-167 0 l0 -439 l-84 0 l0 439 l-78 0 l0 68 l491 0 l0 -68 l-77 0 l0 -310 q0 -62 46 -62 q33 0 45 5 l0 -67 Z" /><glyph glyph-name="Wgrave" unicode="&#x1e80;" d="M830 709 l-141 -709 l-95 0 l-162 571 l-164 -571 l-94 0 l-142 709 l83 0 l113 -578 l164 568 l80 0 l164 -567 l113 577 l81 0 ZM548 807 l-31 -47 l-185 99 l45 71 l171 -123 Z" /><glyph glyph-name="wgrave" unicode="&#x1e81;" d="M729 506 l-131 -506 l-82 0 l-132 387 l-135 -387 l-81 0 l-130 506 l84 0 l97 -382 l129 376 l73 0 l127 -376 l98 382 l83 0 ZM501 598 l-31 -47 l-185 99 l45 71 l171 -123 Z" /><glyph glyph-name="endash" unicode="&#x2013;" d="M585 262 l-515 0 l0 79 l515 0 l0 -79 Z" /><glyph glyph-name="emdash" unicode="&#x2014;" d="M1055 262 l-985 0 l0 79 l985 0 l0 -79 Z" /><glyph glyph-name="quoteleft" unicode="&#x2018;" d="M199 672 q-38 -17 -51 -41 q-13 -24 -13 -69 l62 0 l0 -117 l-122 0 l0 117 q0 58 22.5 96.5 q22.5 38.5 75.5 60.5 l26 -47 Z" /><glyph glyph-name="quoteright" unicode="&#x2019;" d="M194 588 q0 -58 -22.5 -96.5 q-22.5 -38.5 -75.5 -60.5 l-26 47 q38 17 51 41 q13 24 13 69 l-62 0 l0 117 l122 0 l0 -117 Z" /><glyph glyph-name="quotesinglbase" unicode="&#x201a;" d="M204 -2 q0 -58 -22.5 -96.5 q-22.5 -38.5 -75.5 -60.5 l-26 47 q38 17 51 41 q13 24 13 69 l-62 0 l0 117 l122 0 l0 -117 Z" /><glyph glyph-name="quotedblleft" unicode="&#x201c;" d="M402 672 q-38 -17 -51 -41 q-13 -24 -13 -69 l62 0 l0 -117 l-122 0 l0 117 q0 58 22.5 96.5 q22.5 38.5 75.5 60.5 l26 -47 ZM204 672 q-38 -17 -51 -41 q-13 -24 -13 -69 l62 0 l0 -117 l-122 0 l0 117 q0 58 22.5 96.5 q22.5 38.5 75.5 60.5 l26 -47 Z" /><glyph glyph-name="quotedblright" unicode="&#x201d;" d="M397 586 q0 -58 -22.5 -96.5 q-22.5 -38.5 -75.5 -60.5 l-26 47 q38 17 51 41 q13 24 13 69 l-62 0 l0 117 l122 0 l0 -117 ZM199 586 q0 -58 -22.5 -96.5 q-22.5 -38.5 -75.5 -60.5 l-26 47 q38 17 51 41 q13 24 13 69 l-62 0 l0 117 l122 0 l0 -117 Z" /><glyph glyph-name="quotedblbase" unicode="&#x201e;" d="M407 -1 q0 -58 -22.5 -96.5 q-22.5 -38.5 -75.5 -60.5 l-26 47 q38 17 51 41 q13 24 13 69 l-62 0 l0 117 l122 0 l0 -117 ZM209 -1 q0 -58 -22.5 -96.5 q-22.5 -38.5 -75.5 -60.5 l-26 47 q38 17 51 41 q13 24 13 69 l-62 0 l0 117 l122 0 l0 -117 Z" /><glyph glyph-name="dagger" unicode="&#x2020;" d="M511 433 l-186 0 l0 -558 l-83 0 l0 558 l-187 0 l0 73 l187 0 l0 203 l83 0 l0 -203 l186 0 l0 -73 Z" /><glyph glyph-name="daggerdbl" unicode="&#x2021;" d="M511 78 l-187 0 l0 -203 l-82 0 l0 203 l-187 0 l0 73 l187 0 l0 282 l-187 0 l0 73 l187 0 l0 203 l82 0 l0 -203 l187 0 l0 -73 l-187 0 l0 -282 l187 0 l0 -73 Z" /><glyph glyph-name="bullet" unicode="&#x2022;" d="M308 384.5 q37 -38.5 37 -92.5 q0 -54 -37 -92.5 q-37 -38.5 -90 -38.5 q-53 0 -90.5 38.5 q-37.5 38.5 -37.5 92.5 q0 54 37.5 92.5 q37.5 38.5 90.5 38.5 q53 0 90 -38.5 Z" /><glyph glyph-name="ellipsis" unicode="&#x2026;" d="M728 0 l-115 0 l0 115 l115 0 l0 -115 ZM459 0 l-114 0 l0 115 l114 0 l0 -115 ZM191 0 l-114 0 l0 115 l114 0 l0 -115 Z" /><glyph glyph-name="perthousand" unicode="&#x2030;" d="M1125 168 q0 -73 -29 -115 q-45 -66 -126 -66 q-80 0 -125 66 q-29 42 -29 115 q0 74 29 116 q45 67 125 67 q81 0 126 -67 q29 -42 29 -116 ZM765 168 q0 -73 -29 -115 q-45 -66 -125 -66 q-81 0 -126 66 q-29 42 -29 115 q0 74 29 116 q45 67 126 67 q80 0 125 -67 q29 -42 29 -116 ZM705 685 l-516 -706 l-54 41 l515 704 l55 -39 ZM370 540 q0 -71 -30 -115 q-45 -66 -125 -66 q-81 0 -126 66 q-29 42 -29 115 q0 74 29 116 q45 66 126 66 q80 0 125 -66 q30 -44 30 -116 ZM1052 168 q0 68 -27 96 q-21 23 -55 23 q-34 0 -55 -23 q-27 -28 -27 -96 q0 -67 27 -95 q21 -23 55 -23 q34 0 55 23 q27 28 27 95 ZM692 168 q0 68 -27 96 q-21 23 -54 23 q-34 0 -55 -23 q-28 -29 -28 -96 q0 -66 28 -95 q21 -23 55 -23 q33 0 54 23 q27 28 27 95 ZM297 540 q0 67 -28 96 q-21 23 -54 23 q-34 0 -55 -23 q-28 -29 -28 -96 q0 -66 28 -95 q21 -23 55 -23 q33 0 54 23 q28 29 28 95 Z" /><glyph glyph-name="guilsinglleft" unicode="&#x2039;" d="M263 108 l-54 -40 l-164 230 l164 230 l53 -38 l-111 -191 l112 -191 Z" /><glyph glyph-name="guilsinglright" unicode="&#x203a;" d="M273 298 l-164 -230 l-54 40 l112 191 l-111 191 l53 38 l164 -230 Z" /><glyph glyph-name="fraction" unicode="&#x2044;" d="M579 685 l-516 -706 l-54 41 l515 704 l55 -39 Z" /><glyph glyph-name="Euro" unicode="&#x20ac;" d="M571 45 q-76 -58 -182 -58 q-117 0 -196 81 q-69 70 -84 179 l-79 0 l0 61 l74 0 q-1 13 -1 40 q0 26 1 39 l-74 0 l0 61 l79 0 q15 110 84 180 q79 81 196 81 q106 0 182 -58 l-33 -72 q-64 50 -149 50 q-84 0 -139 -61 q-40 -44 -52 -120 l280 0 l-27 -61 l-258 0 q-1 -13 -1 -40 q0 -26 1 -39 l230 0 l-27 -61 l-198 0 q10 -73 52 -119 q55 -61 139 -61 q85 0 149 50 l33 -72 Z" /><glyph glyph-name="trademark" unicode="&#x2122;" d="M762 318 l-68 0 l0 320 l-106 -310 l-49 0 l-106 309 l0 -319 l-68 0 l0 391 l107 0 l93 -282 l93 282 l104 0 l0 -391 ZM310 647 l-111 0 l0 -329 l-68 0 l0 329 l-111 0 l0 62 l290 0 l0 -62 Z" /><glyph glyph-name="Omega" unicode="&#x2126;" d="M686.5 616 q103.5 -106 103.5 -261 q0 -155 -103.5 -261.5 q-103.5 -106.5 -257.5 -106.5 q-154 0 -257.5 106 q-103.5 106 -103.5 261 q0 155 103.5 261.5 q103.5 106.5 257.5 106.5 q154 0 257.5 -106 ZM641.5 136.5 q81.5 85.5 81.5 218.5 q0 133 -81.5 218 q-81.5 85 -212.5 85 q-131 0 -212.5 -85.5 q-81.5 -85.5 -81.5 -218.5 q0 -133 81.5 -218 q81.5 -85 212.5 -85 q131 0 212.5 85.5 ZM593 421 q0 -57 -39.5 -91 q-39.5 -34 -96.5 -34 l-74 0 l0 -135 l-67 0 l0 383 l141 0 q57 0 96.5 -33.5 q39.5 -33.5 39.5 -89.5 ZM523 421 q0 28 -19 44.5 q-19 16.5 -47 16.5 l-75 0 l0 -124 l75 0 q31 0 48.5 16 q17.5 16 17.5 47 Z" /><glyph glyph-name="arrowleft" unicode="&#x2190;" d="M792 269 l-604 0 l235 -232 l-48 -50 l-320 318 l320 318 l48 -50 l-235 -232 l604 0 l0 -72 Z" /><glyph glyph-name="arrowright" unicode="&#x2192;" d="M802 305 l-319 -318 l-48 50 l234 232 l-604 0 l0 72 l604 0 l-234 232 l48 50 l319 -318 Z" /><glyph glyph-name="uni2196" unicode="&#x2196;" d="M613 215 l-51 -51 l-427 427 l0 -331 l-70 0 l0 449 l451 0 l0 -67 l-330 0 l427 -427 Z" /><glyph glyph-name="uni2197" unicode="&#x2197;" d="M598 260 l-70 0 l0 331 l-427 -427 l-51 51 l427 427 l-331 0 l0 67 l452 0 l0 -449 Z" /><glyph glyph-name="partialdiff" unicode="&#x2202;" d="M501 0 l-382 0 l0 78 l148 0 l0 520 l-165 -121 l0 95 l170 123 l81 0 l0 -617 l148 0 l0 -78 Z" /><glyph glyph-name="product" unicode="&#x220f;" d="M741 881 q6 -6 6 -14 q0 -8 -6 -14.5 q-6 -6.5 -14 -6.5 q-8 0 -14.5 6.5 q-6.5 6.5 -6.5 14.5 q0 8 6.5 14 q6.5 6 14.5 6 q8 0 14 -6 ZM746 615 q0 -9 -6.5 -15 q-6.5 -6 -15.5 -6 q-19 0 -19 21 q0 8 6.5 14.5 q6.5 6.5 14.5 6.5 q8 0 14 -6.5 q6 -6.5 6 -14.5 ZM485.5 881 q6.5 -6 6.5 -14 q0 -8 -6.5 -14.5 q-6.5 -6.5 -14.5 -6.5 q-8 0 -14.5 6.5 q-6.5 6.5 -6.5 14.5 q0 8 6.5 14 q6.5 6 14.5 6 q8 0 14.5 -6 ZM614 751.5 q6 -6.5 6 -14.5 q0 -8 -6 -14 q-6 -6 -14 -6 q-8 0 -14.5 6 q-6.5 6 -6.5 14 q0 8 6.5 14.5 q6.5 6.5 14.5 6.5 q8 0 14 -6.5 ZM737.5 379 q6.5 -6 6.5 -14 q0 -8 -6.5 -14.5 q-6.5 -6.5 -14.5 -6.5 q-8 0 -14.5 6.5 q-6.5 6.5 -6.5 14.5 q0 8 6.5 14 q6.5 6 14.5 6 q8 0 14.5 -6 ZM484.5 629.5 q6.5 -6.5 6.5 -14.5 q0 -8 -6.5 -14.5 q-6.5 -6.5 -14.5 -6.5 q-8 0 -14.5 6.5 q-6.5 6.5 -6.5 14.5 q0 8 6.5 14.5 q6.5 6.5 14.5 6.5 q8 0 14.5 -6.5 ZM612.5 500.5 q6.5 -6.5 6.5 -14.5 q0 -8 -6.5 -14.5 q-6.5 -6.5 -14.5 -6.5 q-8 0 -14 6.5 q-6 6.5 -6 14.5 q0 8 6 14.5 q6 6.5 14 6.5 q8 0 14.5 -6.5 ZM230.5 881 q6.5 -6 6.5 -14 q0 -8 -6.5 -14.5 q-6.5 -6.5 -14.5 -6.5 q-8 0 -14 6.5 q-6 6.5 -6 14.5 q0 8 6 14 q6 6 14 6 q8 0 14.5 -6 ZM358.5 751.5 q6.5 -6.5 6.5 -14.5 q0 -8 -6.5 -14 q-6.5 -6 -14.5 -6 q-8 0 -14.5 6 q-6.5 6 -6.5 14 q0 8 6.5 14.5 q6.5 6.5 14.5 6.5 q8 0 14.5 -6.5 ZM738.5 127.5 q6.5 -6.5 6.5 -14.5 q0 -8 -6.5 -14.5 q-6.5 -6.5 -14.5 -6.5 q-8 0 -14.5 6.5 q-6.5 6.5 -6.5 14.5 q0 8 6.5 14.5 q6.5 6.5 14.5 6.5 q8 0 14.5 -6.5 ZM481.5 379 q6.5 -6 6.5 -14 q0 -8 -6.5 -14.5 q-6.5 -6.5 -14.5 -6.5 q-8 0 -14.5 6.5 q-6.5 6.5 -6.5 14.5 q0 8 6.5 14 q6.5 6 14.5 6 q8 0 14.5 -6 ZM610 250 q6 -6 6 -14 q0 -8 -6 -14.5 q-6 -6.5 -14 -6.5 q-8 0 -14.5 6.5 q-6.5 6.5 -6.5 14.5 q0 8 6.5 14 q6.5 6 14.5 6 q8 0 14 -6 ZM229.5 629.5 q6.5 -6.5 6.5 -14.5 q0 -8 -6.5 -14.5 q-6.5 -6.5 -14.5 -6.5 q-8 0 -14.5 6.5 q-6.5 6.5 -6.5 14.5 q0 8 6.5 14.5 q6.5 6.5 14.5 6.5 q8 0 14.5 -6.5 ZM357 500.5 q6 -6.5 6 -14.5 q0 -8 -6 -14.5 q-6 -6.5 -14 -6.5 q-8 0 -14.5 6.5 q-6.5 6.5 -6.5 14.5 q0 8 6.5 14.5 q6.5 6.5 14.5 6.5 q8 0 14 -6.5 ZM103.5 751.5 q6.5 -6.5 6.5 -14.5 q0 -8 -6.5 -14 q-6.5 -6 -14.5 -6 q-8 0 -14.5 6 q-6.5 6 -6.5 14 q0 8 6.5 14.5 q6.5 6.5 14.5 6.5 q8 0 14.5 -6.5 ZM738.5 -124.5 q6.5 -6.5 6.5 -14.5 q0 -8 -6.5 -14.5 q-6.5 -6.5 -14.5 -6.5 q-8 0 -14.5 6.5 q-6.5 6.5 -6.5 14.5 q0 8 6.5 14.5 q6.5 6.5 14.5 6.5 q8 0 14.5 -6.5 ZM482.5 127.5 q6.5 -6.5 6.5 -14.5 q0 -8 -6.5 -14.5 q-6.5 -6.5 -14.5 -6.5 q-8 0 -14.5 6.5 q-6.5 6.5 -6.5 14.5 q0 8 6.5 14.5 q6.5 6.5 14.5 6.5 q8 0 14.5 -6.5 ZM611 -1.5 q6 -6.5 6 -14.5 q0 -8 -6 -14.5 q-6 -6.5 -14 -6.5 q-8 0 -14.5 6.5 q-6.5 6.5 -6.5 14.5 q0 8 6.5 14.5 q6.5 6.5 14.5 6.5 q8 0 14 -6.5 ZM226.5 379 q6.5 -6 6.5 -14 q0 -8 -6.5 -14.5 q-6.5 -6.5 -14.5 -6.5 q-8 0 -14 6.5 q-6 6.5 -6 14.5 q0 8 6 14 q6 6 14 6 q8 0 14.5 -6 ZM354.5 250 q6.5 -6 6.5 -14 q0 -8 -6.5 -14.5 q-6.5 -6.5 -14.5 -6.5 q-8 0 -14.5 6.5 q-6.5 6.5 -6.5 14.5 q0 8 6.5 14 q6.5 6 14.5 6 q8 0 14.5 -6 ZM102.5 500.5 q6.5 -6.5 6.5 -14.5 q0 -8 -6.5 -14.5 q-6.5 -6.5 -14.5 -6.5 q-8 0 -14.5 6.5 q-6.5 6.5 -6.5 14.5 q0 8 6.5 14.5 q6.5 6.5 14.5 6.5 q8 0 14.5 -6.5 ZM482.5 -124.5 q6.5 -6.5 6.5 -14.5 q0 -8 -6.5 -14.5 q-6.5 -6.5 -14.5 -6.5 q-8 0 -14.5 6.5 q-6.5 6.5 -6.5 14.5 q0 8 6.5 14.5 q6.5 6.5 14.5 6.5 q8 0 14.5 -6.5 ZM611 -254 q6 -6 6 -14 q0 -8 -6 -14.5 q-6 -6.5 -14 -6.5 q-8 0 -14.5 6.5 q-6.5 6.5 -6.5 14.5 q0 8 6.5 14 q6.5 6 14.5 6 q8 0 14 -6 ZM228 127.5 q6 -6.5 6 -14.5 q0 -8 -6 -14.5 q-6 -6.5 -14 -6.5 q-8 0 -14.5 6.5 q-6.5 6.5 -6.5 14.5 q0 8 6.5 14.5 q6.5 6.5 14.5 6.5 q8 0 14 -6.5 ZM355.5 -1.5 q6.5 -6.5 6.5 -14.5 q0 -8 -6.5 -14.5 q-6.5 -6.5 -14.5 -6.5 q-8 0 -14.5 6.5 q-6.5 6.5 -6.5 14.5 q0 8 6.5 14.5 q6.5 6.5 14.5 6.5 q8 0 14.5 -6.5 ZM99.5 250 q6.5 -6 6.5 -14 q0 -8 -6.5 -14.5 q-6.5 -6.5 -14.5 -6.5 q-8 0 -14 6.5 q-6 6.5 -6 14.5 q0 8 6 14 q6 6 14 6 q8 0 14.5 -6 ZM227.5 -124.5 q6.5 -6.5 6.5 -14.5 q0 -8 -6.5 -14.5 q-6.5 -6.5 -14.5 -6.5 q-8 0 -14 6.5 q-6 6.5 -6 14.5 q0 8 6 14.5 q6 6.5 14 6.5 q8 0 14.5 -6.5 ZM355.5 -254 q6.5 -6 6.5 -14 q0 -8 -6.5 -14.5 q-6.5 -6.5 -14.5 -6.5 q-8 0 -14.5 6.5 q-6.5 6.5 -6.5 14.5 q0 8 6.5 14 q6.5 6 14.5 6 q8 0 14.5 -6 ZM100.5 -1.5 q6.5 -6.5 6.5 -14.5 q0 -8 -6.5 -14.5 q-6.5 -6.5 -14.5 -6.5 q-8 0 -14 6.5 q-6 6.5 -6 14.5 q0 8 6 14.5 q6 6.5 14 6.5 q8 0 14.5 -6.5 ZM100.5 -254 q6.5 -6 6.5 -14 q0 -8 -6.5 -14.5 q-6.5 -6.5 -14.5 -6.5 q-8 0 -14.5 6.5 q-6.5 6.5 -6.5 14.5 q0 8 6.5 14 q6.5 6 14.5 6 q8 0 14.5 -6 Z" /><glyph glyph-name="summation" unicode="&#x2211;" d="M852 -73 l-776 0 l0 221 l47 0 l0 -175 l683 0 l0 175 l46 0 l0 -221 Z" /><glyph glyph-name="minus" unicode="&#x2212;" d="M585 262 l-515 0 l0 79 l515 0 l0 -79 Z" /><glyph glyph-name="radical" unicode="&#x221a;" d="M690 766 l-110 0 l-259 -774 l-77 0 l-179 512 l91 0 l127 -385 l230 713 l177 0 l0 -66 Z" /><glyph glyph-name="infinity" unicode="&#x221e;" d="M653 328 l-111 0 l0 -252 l110 0 l0 -76 l-331 0 q-108 0 -169 59 q-57 55 -57 141 q0 53 33 98 q33 45 84 66 q-46 20 -75.5 61.5 q-29.5 41.5 -29.5 92.5 q0 86 57 138 q59 54 154 54 q50 0 86 -9 l0 -77 q-32 7 -80 7 q-57 0 -91 -31 q-34 -32 -34 -80 q0 -55 33.5 -86 q33.5 -31 92.5 -31 l132 0 l0 115 l85 0 l0 -115 l111 0 l0 -75 ZM457 76 l0 252 l-126 0 q-63 0 -105 -37 q-42 -37 -42 -94 q0 -47 28 -78 q39 -43 111 -43 l134 0 Z" /><glyph glyph-name="integral" unicode="&#x222b;" d="M539 364 q0 -41 -26.5 -67.5 q-26.5 -26.5 -66.5 -26.5 l-72 0 q17 -23 17 -54 q0 -40 -26.5 -66.5 q-26.5 -26.5 -66.5 -26.5 l-249 0 l0 248 q0 41 26.5 67.5 q26.5 26.5 66.5 26.5 q30 0 55 -17 l0 71 q0 41 26.5 67.5 q26.5 26.5 66.5 26.5 q40 0 66.5 -26.5 q26.5 -26.5 26.5 -67.5 l0 -62 l63 0 q40 0 66.5 -26.5 q26.5 -26.5 26.5 -66.5 ZM501 308.5 q21 21.5 21 55.5 q0 34 -21 55 q-21 21 -55 21 l-79 0 l0 79 q0 34 -21.5 55.5 q-21.5 21.5 -55.5 21.5 q-34 0 -55 -21.5 q-21 -21.5 -21 -55.5 l0 -232 l232 0 q34 0 55 21.5 Z" /><glyph glyph-name="approxequal" unicode="&#x2248;" d="M580 374 q-47 -46 -80 -62 q-33 -16 -73 -16 q-39 0 -115 34 q-55 24 -85 24 q-25 0 -46.5 -9 q-21.5 -9 -52.5 -39 l-53 55 q47 46 80 62 q33 16 73 16 q35 0 82 -18 q9 -3 36 -14.5 q27 -11.5 42 -16.5 q18 -7 39 -7 q25 0 46.5 8.5 q21.5 8.5 52.5 38.5 l54 -56 ZM580 184 q-47 -46 -80 -62 q-33 -16 -73 -16 q-42 0 -115 33 q-57 25 -85 25 q-25 0 -46.5 -9 q-21.5 -9 -52.5 -39 l-53 54 q47 46 80 62 q33 16 73 16 q38 0 82 -17 q9 -3 36 -14.5 q27 -11.5 42 -16.5 q21 -8 39 -8 q25 0 46.5 8.5 q21.5 8.5 52.5 38.5 l54 -55 Z" /><glyph glyph-name="notequal" unicode="&#x2260;" d="M587 134 l-319 0 l-83 -118 l-50 35 l58 83 l-88 0 l0 77 l142 0 l93 133 l-235 0 l0 77 l289 0 l79 113 l50 -35 l-55 -78 l119 0 l0 -77 l-172 0 l-94 -133 l266 0 l0 -77 Z" /><glyph glyph-name="lessequal" unicode="&#x2264;" d="M539 364 q0 -41 -26.5 -67.5 q-26.5 -26.5 -66.5 -26.5 l-72 0 q17 -23 17 -54 q0 -40 -26.5 -66.5 q-26.5 -26.5 -66.5 -26.5 l-249 0 l0 248 q0 41 26.5 67.5 q26.5 26.5 66.5 26.5 q30 0 55 -17 l0 71 q0 41 26.5 67.5 q26.5 26.5 66.5 26.5 q40 0 66.5 -26.5 q26.5 -26.5 26.5 -67.5 l0 -62 l63 0 q40 0 66.5 -26.5 q26.5 -26.5 26.5 -66.5 ZM501 308.5 q21 21.5 21 55.5 q0 34 -21 55 q-21 21 -55 21 l-79 0 l0 79 q0 34 -21.5 55.5 q-21.5 21.5 -55.5 21.5 q-34 0 -55 -21.5 q-21 -21.5 -21 -55.5 l0 -232 l232 0 q34 0 55 21.5 Z" /><glyph glyph-name="greaterequal" unicode="&#x2265;" d="M539 364 q0 -41 -26.5 -67.5 q-26.5 -26.5 -66.5 -26.5 l-72 0 q17 -23 17 -54 q0 -40 -26.5 -66.5 q-26.5 -26.5 -66.5 -26.5 l-249 0 l0 248 q0 41 26.5 67.5 q26.5 26.5 66.5 26.5 q30 0 55 -17 l0 71 q0 41 26.5 67.5 q26.5 26.5 66.5 26.5 q40 0 66.5 -26.5 q26.5 -26.5 26.5 -67.5 l0 -62 l63 0 q40 0 66.5 -26.5 q26.5 -26.5 26.5 -66.5 ZM501 308.5 q21 21.5 21 55.5 q0 34 -21 55 q-21 21 -55 21 l-79 0 l0 79 q0 34 -21.5 55.5 q-21.5 21.5 -55.5 21.5 q-34 0 -55 -21.5 q-21 -21.5 -21 -55.5 l0 -232 l232 0 q34 0 55 21.5 Z" /><glyph glyph-name="lozenge" unicode="&#x25ca;" d="M495.5 530.5 q16.5 -70.5 16.5 -182.5 q0 -112 -16.5 -182 q-16.5 -70 -65.5 -120 q-59 -59 -150 -59 q-91 0 -150 59 q-49 50 -65.5 120 q-16.5 70 -16.5 182 q0 112 16.5 182.5 q16.5 70.5 65.5 120.5 q58 58 150 58 q92 0 150 -58 q49 -50 65.5 -120.5 ZM400 550 q-12 28 -34 49 q-34 32 -86 32 q-52 0 -86 -32 q-21 -20 -33.5 -47 q-12.5 -27 -17 -67.5 q-4.5 -40.5 -5.5 -63 q-1 -22.5 -1 -73.5 q0 -90 3 -118 l260 320 ZM423 348 q0 75 -3 111 l-257 -319 q13 -27 31 -43 q34 -32 86 -32 q52 0 86 32 q21 20 33.5 47 q12.5 27 17 67.5 q4.5 40.5 5.5 63 q1 22.5 1 73.5 Z" /><glyph glyph-name="apple" unicode="&#xf8ff;" d="M539 364 q0 -41 -26.5 -67.5 q-26.5 -26.5 -66.5 -26.5 l-72 0 q17 -23 17 -54 q0 -40 -26.5 -66.5 q-26.5 -26.5 -66.5 -26.5 l-249 0 l0 248 q0 41 26.5 67.5 q26.5 26.5 66.5 26.5 q30 0 55 -17 l0 71 q0 41 26.5 67.5 q26.5 26.5 66.5 26.5 q40 0 66.5 -26.5 q26.5 -26.5 26.5 -67.5 l0 -62 l63 0 q40 0 66.5 -26.5 q26.5 -26.5 26.5 -66.5 ZM501 308.5 q21 21.5 21 55.5 q0 34 -21 55 q-21 21 -55 21 l-79 0 l0 79 q0 34 -21.5 55.5 q-21.5 21.5 -55.5 21.5 q-34 0 -55 -21.5 q-21 -21.5 -21 -55.5 l0 -232 l232 0 q34 0 55 21.5 Z" /><glyph glyph-name="fi" unicode="&#xfb01;" d="M361 652 q-72 8 -84 8 q-33 0 -52.5 -19 q-19.5 -19 -19.5 -50 l0 -85 l146 0 l0 -72 l-146 0 l0 -434 l-85 0 l0 434 l-92 0 l0 72 l92 0 l0 90 q0 58 41 97 q41 39 106 39 q44 0 94 -9 l0 -71 ZM551 622 l-99 0 l0 100 l99 0 l0 -100 ZM545 0 l-87 0 l0 506 l87 0 l0 -506 Z" /><glyph glyph-name="fl" unicode="&#xfb02;" d="M361 652 q-72 8 -84 8 q-33 0 -52.5 -19 q-19.5 -19 -19.5 -50 l0 -85 l146 0 l0 -72 l-146 0 l0 -434 l-85 0 l0 434 l-92 0 l0 72 l92 0 l0 90 q0 58 41 97 q41 39 106 39 q44 0 94 -9 l0 -71 ZM627 0 q-19 -6 -60 -6 q-106 0 -106 124 l0 604 l85 0 l0 -599 q0 -27 10.5 -39.5 q10.5 -12.5 35.5 -12.5 l35 1 l0 -72 Z" /></font>
</defs>
</svg>
