<?xml version="1.0" standalone="no"?><!DOCTYPE svg PUBLIC "-//W3C//DTD SVG 1.1//EN" "http://www.w3.org/Graphics/SVG/1.1/DTD/svg11.dtd" ><svg xmlns="http://www.w3.org/2000/svg"><metadata></metadata><defs><font id="LaurenzBrunner.www.lineto.com: Akkurat-Bold: 2004" horiz-adv-x="1165"><font-face font-family="Akkurat Pro" font-weight="700" font-stretch="normal" units-per-em="1000" panose-1="2 0 8 3 4 0 0 2 0 4" ascent="783" descent="-217" x-height="4" bbox="-105 -293 1147 973" underline-thickness="45" underline-position="-93" unicode-range="U+0020-fb02" /><missing-glyph horiz-adv-x="588" d="M88 0 l0 698 l412 0 l0 -698 l-412 0 ZM163 74 l262 0 l0 549 l-262 0 l0 -549 Z" /><glyph glyph-name="space" unicode=" " d="" /><glyph glyph-name="exclam" unicode="!" d="M249 487 l-28 -275 l-75 0 l-28 275 l0 222 l131 0 l0 -222 ZM250 0 l-132 0 l0 133 l132 0 l0 -133 Z" /><glyph glyph-name="quotedbl" unicode="&quot;" d="M443 563 l-25 -171 l-83 0 l-25 171 l0 147 l133 0 l0 -147 ZM215 563 l-25 -171 l-83 0 l-25 171 l0 147 l133 0 l0 -147 Z" /><glyph glyph-name="numbersign" unicode="#" d="M700 413 l-136 0 l-17 -131 l121 0 l0 -98 l-136 0 l-26 -184 l-105 0 l26 184 l-138 0 l-26 -184 l-105 0 l26 184 l-121 0 l0 98 l136 0 l18 131 l-122 0 l0 99 l136 0 l27 183 l104 0 l-26 -183 l138 0 l27 183 l104 0 l-26 -183 l121 0 l0 -99 ZM460 413 l-138 0 l-18 -131 l138 0 l18 131 Z" /><glyph glyph-name="dollar" unicode="$" d="M501 347.5 q52 -49.5 52 -130.5 q0 -81 -57 -140 q-60 -62 -163 -73 l0 -91 l-73 0 l0 90 q-101 8 -170 71 q-70 63 -71 154 l123 0 q1 -50 37 -84 q31 -30 81 -35 l0 198 q-35 4 -49 7 q-81 13 -127.5 62.5 q-46.5 49.5 -46.5 125.5 q0 73 61 132 q63 63 162 72 l0 93 l73 0 l0 -95 q87 -11 143 -62 q66 -61 69 -143 l-123 0 q-2 37 -31 68 q-20 21 -58 31 l0 -183 l34 -5 q82 -13 134 -62.5 ZM432 212 q0 66 -82 81 l-17 3 l0 -186 q46 8 71 33 q28 28 28 69 ZM260 425 l0 176 q-47 -7 -74 -33 q-27 -25 -27 -63 q0 -63 71 -75 q20 -4 30 -5 Z" /><glyph glyph-name="percent" unicode="%" d="M823 302 q31 -45 31 -120 q0 -75 -31 -120 q-50 -72 -141 -72 q-91 0 -141 72 q-31 45 -31 120 q0 75 31 120 q50 72 141 72 q91 0 141 -72 ZM743 670 l-507 -690 l-74 56 l505 687 l76 -53 ZM358 647 q31 -45 31 -120 q0 -75 -31 -120 q-50 -72 -141 -72 q-91 0 -141 72 q-31 45 -31 120 q0 75 31 120 q50 72 141 72 q91 0 141 -72 ZM682 76 q73 0 73 106 q0 106 -73 106 q-73 0 -73 -106 q0 -106 73 -106 ZM217 421 q73 0 73 106 q0 106 -73 106 q-73 0 -73 -106 q0 -106 73 -106 Z" /><glyph glyph-name="ampersand" unicode="&amp;" d="M704 -1 l-152 0 l-50 56 q-84 -74 -201 -74 q-98 0 -166.5 59 q-68.5 59 -68.5 156 q0 118 126 195 q-40 43 -58 76 q-18 33 -18 78 q0 82 55.5 130.5 q55.5 48.5 138.5 48.5 q81 0 138.5 -47.5 q57.5 -47.5 57.5 -127.5 q0 -64 -34.5 -108 q-34.5 -44 -99.5 -82 l123 -134 q14 26 18 87 q2 32 2 87 l183 0 l0 -99 l-82 0 q-5 -100 -43 -159 l131 -142 ZM389 544 q0 36 -22 56.5 q-22 20.5 -57 20.5 q-33 0 -56 -19.5 q-23 -19.5 -23 -54.5 q0 -10 2 -19 q2 -9 6.5 -18 q4.5 -9 8 -15.5 q3.5 -6.5 12 -16 q8.5 -9.5 12 -13.5 q3.5 -4 14 -14.5 q10.5 -10.5 12.5 -12.5 q25 14 34.5 19.5 q9.5 5.5 26.5 19.5 q17 14 23.5 30 q6.5 16 6.5 37 ZM427 134 l-162 179 q-29 -17 -44 -28.5 q-15 -11.5 -27.5 -33.5 q-12.5 -22 -12.5 -50 q0 -52 37 -81.5 q37 -29.5 90 -29.5 q79 0 119 44 Z" /><glyph glyph-name="quotesingle" unicode="&#39;" d="M205 563 l-25 -171 l-83 0 l-25 171 l0 147 l133 0 l0 -147 Z" /><glyph glyph-name="parenleft" unicode="(" d="M318 -115 l-71 -53 q-182 209 -182 485 q0 276 182 485 l71 -53 q-80 -107 -114.5 -203 q-34.5 -96 -34.5 -229 q0 -133 34.5 -229 q34.5 -96 114.5 -203 Z" /><glyph glyph-name="parenright" unicode=")" d="M81 802 q182 -209 182 -485 q0 -276 -182 -485 l-71 53 q80 107 114.5 203 q34.5 96 34.5 229 q0 133 -34.5 229 q-34.5 96 -114.5 203 l71 53 Z" /><glyph glyph-name="asterisk" unicode="*" d="M485 506 l-151 -40 l100 -125 l-87 -65 l-84 139 l-85 -140 l-87 65 l100 126 l-151 40 l33 106 l145 -60 l-10 161 l108 -1 l-11 -161 l146 61 l34 -106 Z" /><glyph glyph-name="plus" unicode="+" d="M624 255 l-228 0 l0 -250 l-113 0 l0 250 l-228 0 l0 107 l228 0 l0 234 l113 0 l0 -234 l228 0 l0 -107 Z" /><glyph glyph-name="comma" unicode="," d="M222 12 q0 -69 -24 -112.5 q-24 -43.5 -87 -69.5 l-35 58 q41 19 55 44 q14 25 14 68 l-75 0 l0 156 l152 0 l0 -144 Z" /><glyph glyph-name="hyphen" unicode="-" d="M403 252 l-343 0 l0 112 l343 0 l0 -112 Z" /><glyph glyph-name="period" unicode="." d="M222 0 l-152 0 l0 156 l152 0 l0 -156 Z" /><glyph glyph-name="slash" unicode="/" d="M399 722 l-307 -735 l-92 0 l307 735 l92 0 Z" /><glyph glyph-name="zero" unicode="0" d="M513 525 q17 -75 17 -177 q0 -102 -17 -177 q-17 -75 -66 -122 q-64 -62 -162 -62 q-98 0 -162 62 q-49 47 -66 122 q-17 75 -17 177 q0 102 17 177 q17 75 66 122 q64 62 162 62 q98 0 162 -62 q49 -47 66 -122 ZM403 348 q0 107 -8 143 q-21 102 -110 102 q-25 0 -44.5 -7.5 q-19.5 -7.5 -31.5 -21 q-12 -13.5 -21 -31.5 q-9 -18 -12.5 -38.5 q-3.5 -20.5 -6.5 -42.5 q-3 -22 -2.5 -43 q0.5 -21 0.5 -41 q0 -14 0 -20 q0 -107 8 -143 q21 -102 110 -102 q25 0 44.5 7.5 q19.5 7.5 31.5 21 q12 13.5 21 31.5 q9 18 12.5 38.5 q3.5 20.5 6.5 42.5 q3 22 2.5 43 q-0.5 21 -0.5 41 q0 14 0 20 Z" /><glyph glyph-name="one" unicode="1" d="M394 0 l-125 0 l0 547 l-153 -111 l0 136 l171 123 l107 0 l0 -695 Z" /><glyph glyph-name="two" unicode="2" d="M506 0 l-444 0 l0 100 l271 323 q36 42 36 89 q0 38 -23.5 62.5 q-23.5 24.5 -64.5 24.5 q-43 0 -68 -28.5 q-25 -28.5 -25 -71.5 l-128 0 q1 94 59 152 q58 58 163 58 q92 0 153 -53.5 q61 -53.5 61 -142.5 q0 -78 -76 -170 l-192 -230 l278 0 l0 -113 Z" /><glyph glyph-name="three" unicode="3" d="M516 199 q0 -100 -67 -156 q-67 -56 -170 -56 q-98 0 -165.5 59 q-67.5 59 -70.5 155 l125 0 q4 -50 34.5 -77 q30.5 -27 77.5 -27 q48 0 79 28 q31 28 31 76 q0 51 -35 78 q-35 27 -87 27 l-52 0 l0 109 l52 0 q107 0 107 93 q0 38 -27 64.5 q-27 26.5 -68 26.5 q-48 0 -77 -24 q-29 -24 -30 -70 l-126 0 q1 95 67.5 149.5 q66.5 54.5 165.5 54.5 q96 0 159 -54.5 q63 -54.5 63 -143.5 q0 -49 -27 -91 q-27 -42 -73 -58 q52 -15 83 -61 q31 -46 31 -102 Z" /><glyph glyph-name="four" unicode="4" d="M550 140 l-88 0 l0 -140 l-125 0 l0 140 l-310 0 l0 118 l255 437 l136 0 l-259 -442 l178 0 l0 163 l125 0 l0 -163 l88 0 l0 -113 Z" /><glyph glyph-name="five" unicode="5" d="M533 236 q0 -113 -64 -181.5 q-64 -68.5 -178 -68.5 q-104 0 -170 59.5 q-66 59.5 -71 157.5 l125 0 q2 -51 34 -78.5 q32 -27.5 83 -27.5 q59 0 86.5 37.5 q27.5 37.5 27.5 98.5 q0 58 -28 92 q-28 34 -86 34 q-31 0 -59.5 -15 q-28.5 -15 -44.5 -41 l-123 0 l15 392 l422 0 l0 -112 l-314 0 l-8 -159 q48 45 138 45 q102 0 158.5 -65 q56.5 -65 56.5 -168 Z" /><glyph glyph-name="six" unicode="6" d="M535 229 q0 -106 -62.5 -174 q-62.5 -68 -176.5 -68 q-96 0 -157.5 60.5 q-61.5 60.5 -77.5 158.5 q-11 62 -11 130 q0 100 15 176 q15 76 62 127 q66 70 170 70 q99 0 159 -57 q59 -56 59 -128 l-126 0 q-3 32 -24 53 q-24 25 -74 25 q-39 0 -69 -28 q-48 -44 -48 -159 q21 26 58.5 38.5 q37.5 12.5 73.5 12.5 q110 0 169.5 -64.5 q59.5 -64.5 59.5 -172.5 ZM408 234 q0 57 -29.5 93.5 q-29.5 36.5 -84.5 36.5 q-49 0 -78.5 -37 q-29.5 -37 -29.5 -93 q0 -60 28.5 -97.5 q28.5 -37.5 81.5 -37.5 q55 0 83.5 36 q28.5 36 28.5 99 Z" /><glyph glyph-name="seven" unicode="7" d="M526 595 l-271 -595 l-135 0 l272 583 l-345 0 l0 112 l479 0 l0 -100 Z" /><glyph glyph-name="eight" unicode="8" d="M525 195 q0 -97 -70.5 -153 q-70.5 -56 -169.5 -56 q-99 0 -169.5 56 q-70.5 56 -70.5 153 q0 53 26.5 98 q26.5 45 74.5 68 q-38 21 -62.5 63.5 q-24.5 42.5 -24.5 86.5 q0 94 65 146 q65 52 161 52 q96 0 161 -52 q65 -52 65 -146 q0 -44 -24.5 -86.5 q-24.5 -42.5 -62.5 -63.5 q48 -23 74.5 -68 q26.5 -45 26.5 -98 ZM359 442.5 q26 26.5 26 66.5 q0 40 -26 65 q-26 25 -74 25 q-48 0 -74 -25 q-26 -25 -26 -65 q0 -40 26 -66.5 q26 -26.5 74 -26.5 q48 0 74 26.5 ZM399 203 q0 45 -30 74 q-30 29 -84 29 q-54 0 -84 -29 q-30 -29 -30 -74 q0 -48 31.5 -77 q31.5 -29 82.5 -29 q51 0 82.5 29 q31.5 29 31.5 77 Z" /><glyph glyph-name="nine" unicode="9" d="M522 360 q0 -100 -15 -176 q-15 -76 -62 -127 q-67 -70 -170 -70 q-99 0 -159 57 q-59 56 -59 128 l126 0 q3 -32 24 -53 q24 -25 74 -25 q39 0 69 28 q48 44 48 159 q-21 -26 -58.5 -38.5 q-37.5 -12.5 -73.5 -12.5 q-110 0 -169.5 64.5 q-59.5 64.5 -59.5 172.5 q0 106 62.5 174 q62.5 68 176.5 68 q96 0 157.5 -60.5 q61.5 -60.5 77.5 -158.5 q11 -62 11 -130 ZM386 462 q0 60 -28.5 97.5 q-28.5 37.5 -81.5 37.5 q-55 0 -83.5 -36 q-28.5 -36 -28.5 -99 q0 -57 29.5 -93.5 q29.5 -36.5 84.5 -36.5 q49 0 78.5 37 q29.5 37 29.5 93 Z" /><glyph glyph-name="colon" unicode=":" d="M245 369 l-151 0 l0 151 l151 0 l0 -151 ZM245 0 l-151 0 l0 151 l151 0 l0 -151 Z" /><glyph glyph-name="semicolon" unicode=";" d="M245 369 l-151 0 l0 151 l151 0 l0 -151 ZM245 12 q0 -70 -23.5 -112.5 q-23.5 -42.5 -86.5 -68.5 l-35 58 q40 19 54.5 44 q14.5 25 14.5 67 l-75 0 l0 151 l151 0 l0 -139 Z" /><glyph glyph-name="less" unicode="&lt;" d="M351 645 l70 -70 l-254 -253 l254 -254 l-69 -68 l-322 323 l321 322 Z" /><glyph glyph-name="equal" unicode="=" d="M600 328 l-510 0 l0 98 l510 0 l0 -98 ZM600 129 l-510 0 l0 99 l510 0 l0 -99 Z" /><glyph glyph-name="greater" unicode="&gt;" d="M45 575 l70 70 l321 -322 l-322 -323 l-69 68 l254 254 l-254 253 Z" /><glyph glyph-name="question" unicode="?" d="M494 529 q0 -92 -79 -159 q-8 -7 -24.5 -20.5 q-16.5 -13.5 -23.5 -19.5 q-7 -6 -18.5 -18 q-11.5 -12 -16 -22.5 q-4.5 -10.5 -8.5 -26 q-4 -15.5 -4 -33.5 l0 -28 l-124 0 q0 73 5 97 q7 31 22 56.5 q15 25.5 28 38 q13 12.5 38.5 33 q25.5 20.5 35.5 29.5 q39 35 39 72 q0 35 -26 59.5 q-26 24.5 -71 24.5 q-48 0 -77 -26 q-29 -26 -29 -74 l-129 0 q0 101 68 157 q68 56 172 56 q97 0 159.5 -56 q62.5 -56 62.5 -140 ZM327 0 l-139 0 l0 140 l139 0 l0 -140 Z" /><glyph glyph-name="at" unicode="@" d="M874 384 q0 -63 -21 -122 q-21 -59 -71.5 -103.5 q-50.5 -44.5 -121.5 -44.5 q-76 0 -101 69 q-38 -67 -118 -67 q-80 0 -121 56.5 q-41 56.5 -41 138.5 q0 88 45.5 148 q45.5 60 127.5 60 q33 0 62.5 -17 q29.5 -17 38.5 -47 l14 53 l92 0 l-18 -254 q-3 -47 27 -47 q27 0 51 26.5 q24 26.5 35 59.5 q13 40 13 89 q0 118 -74.5 181 q-74.5 63 -198.5 63 q-145 0 -229.5 -85.5 q-84.5 -85.5 -84.5 -225.5 q0 -127 79 -210.5 q79 -83.5 207 -83.5 q139 0 247 38 l0 -96 q-108 -40 -248 -40 q-179 0 -287 112.5 q-108 112.5 -108 287.5 q0 179 117.5 289 q117.5 110 305.5 110 q165 0 273 -88.5 q108 -88.5 108 -249.5 ZM546 331 q0 99 -75 99 q-41 0 -61.5 -35 q-20.5 -35 -20.5 -84 q0 -44 17.5 -73 q17.5 -29 53.5 -29 q45 0 65.5 34 q20.5 34 20.5 88 Z" /><glyph glyph-name="A" unicode="a" d="M639 0 l-135 0 l-46 136 l-282 0 l-46 -136 l-130 0 l249 709 l141 0 l249 -709 ZM418 252 l-101 299 l-101 -299 l202 0 Z" /><glyph glyph-name="B" unicode="b" d="M626 206 q0 -104 -72 -159 q-63 -48 -189 -48 l-282 0 l0 710 l282 0 q104 0 164 -39 q39 -25 60.5 -66.5 q21.5 -41.5 21.5 -87.5 q0 -47 -22 -89 q-22 -42 -65 -61 q49 -23 75.5 -66 q26.5 -43 26.5 -94 ZM480 508 q0 48 -30.5 69 q-30.5 21 -79.5 21 l-159 0 l0 -178 l162 0 q107 0 107 88 ZM495 209 q0 103 -121 103 l-163 0 l0 -197 l159 0 q52 0 88.5 22 q36.5 22 36.5 72 Z" /><glyph glyph-name="C" unicode="c" d="M600 226 q-10 -96 -68 -155 q-82 -84 -203 -84 q-122 0 -201 79 q-53 53 -70.5 120.5 q-17.5 67.5 -17.5 167.5 q0 100 17.5 167.5 q17.5 67.5 70.5 120.5 q80 80 201 80 q123 0 203 -82 q58 -59 68 -154 l-132 0 q-4 41 -32 75 q-35 44 -107 44 q-65 0 -109 -47 q-23 -24 -34.5 -64 q-11.5 -40 -13 -67 q-1.5 -27 -1.5 -73 q0 -46 1.5 -73 q1.5 -27 13 -67 q11.5 -40 34.5 -64 q44 -47 109 -47 q71 0 107 45 q28 34 32 78 l132 0 Z" /><glyph glyph-name="D" unicode="d" d="M641 355 q0 -90 -16.5 -159 q-16.5 -69 -66.5 -120 q-73 -76 -199 -76 l-276 0 l0 709 l276 0 q126 0 199 -76 q50 -51 66.5 -120 q16.5 -69 16.5 -158 ZM508 283.5 q2 27.5 2 71.5 q0 44 -2 71.5 q-2 27.5 -14 65.5 q-12 38 -35 61 q-40 40 -100 40 l-147 0 l0 -477 l147 0 q60 0 100 40 q23 23 35 61.5 q12 38.5 14 66 Z" /><glyph glyph-name="E" unicode="e" d="M588 0 l-505 0 l0 709 l505 0 l0 -117 l-376 0 l0 -165 l331 0 l0 -116 l-331 0 l0 -194 l376 0 l0 -117 Z" /><glyph glyph-name="F" unicode="f" d="M573 592 l-361 0 l0 -190 l322 0 l0 -117 l-322 0 l0 -285 l-129 0 l0 709 l490 0 l0 -117 Z" /><glyph glyph-name="G" unicode="g" d="M621 0 l-83 0 l-15 78 q-18 -34 -67 -62 q-49 -28 -111 -29 q-134 -2 -211 79 q-52 54 -72 123.5 q-20 69.5 -20 164.5 q0 97 19 164 q19 67 73 121 q40 40 96.5 61.5 q56.5 21.5 114.5 21.5 q131 0 210 -81 q60 -61 65 -143 l-132 0 q-2 30 -31 65 q-37 43 -113 43 q-71 0 -116 -48 q-55 -57 -55 -204 q0 -149 56 -207 q42 -45 115 -45 q67 0 106 41 q46 48 46 138 l-169 0 l0 107 l294 0 l0 -388 Z" /><glyph glyph-name="H" unicode="h" d="M632 0 l-129 0 l0 309 l-291 0 l0 -309 l-129 0 l0 709 l129 0 l0 -277 l291 0 l0 277 l129 0 l0 -709 Z" /><glyph glyph-name="I" unicode="i" d="M214 0 l-131 0 l0 709 l131 0 l0 -709 Z" /><glyph glyph-name="J" unicode="j" d="M428 207 q0 -102 -57 -161.5 q-57 -59.5 -158 -59.5 q-95 0 -151 58 q-62 63 -62 178 l125 0 q0 -67 26 -95 q24 -26 62 -26 q42 0 64 25.5 q22 25.5 22 70.5 l0 512 l129 0 l0 -502 Z" /><glyph glyph-name="K" unicode="k" d="M678 0 l-152 0 l-192 335 l-122 -143 l0 -192 l-129 0 l0 709 l129 0 l0 -327 l283 327 l157 0 l-228 -268 l254 -441 Z" /><glyph glyph-name="L" unicode="l" d="M541 0 l-458 0 l0 709 l129 0 l0 -587 l329 0 l0 -122 Z" /><glyph glyph-name="M" unicode="m" d="M795 0 l-125 0 l0 506 l-184 -496 l-95 0 l-183 502 l0 -512 l-125 0 l0 709 l174 0 l186 -505 l187 505 l165 0 l0 -709 Z" /><glyph glyph-name="N" unicode="n" d="M650 0 l-133 0 l-307 487 l0 -487 l-127 0 l0 709 l137 0 l303 -480 l0 480 l127 0 l0 -709 Z" /><glyph glyph-name="O" unicode="o" d="M630 354 q0 -98 -18.5 -166 q-18.5 -68 -71.5 -121 q-80 -80 -204 -80 q-124 0 -204 80 q-53 53 -71.5 121 q-18.5 68 -18.5 166 q0 99 18.5 167 q18.5 68 71.5 121 q80 80 204 80 q124 0 204 -80 q53 -53 71.5 -121 q18.5 -68 18.5 -167 ZM499 354 q0 151 -51 204 q-44 47 -112 47 q-68 0 -112 -47 q-51 -53 -51 -204 q0 -43 2 -72 q2 -29 14 -68 q12 -39 35 -63 q44 -47 112 -47 q68 0 112 47 q23 24 35 63 q12 39 14 68 q2 29 2 72 Z" /><glyph glyph-name="P" unicode="p" d="M546 647.5 q65 -61.5 65 -165.5 q0 -104 -65 -166 q-65 -62 -185 -62 l-150 0 l0 -254 l-128 0 l0 709 l278 0 q120 0 185 -61.5 ZM449.5 397.5 q31.5 30.5 31.5 83.5 q0 53 -31.5 84 q-31.5 31 -93.5 31 l-145 0 l0 -229 l145 0 q62 0 93.5 30.5 Z" /><glyph glyph-name="Q" unicode="q" d="M630 354 q0 -98 -18 -165 q-18 -67 -71 -121 l62 -78 l-77 -60 l-66 82 q-57 -25 -124 -25 q-124 0 -204 80 q-53 53 -71.5 121 q-18.5 68 -18.5 166 q0 99 18.5 167 q18.5 68 71.5 121 q80 80 204 80 q124 0 204 -80 q53 -53 71.5 -121 q18.5 -68 18.5 -167 ZM499 354 q0 151 -51 204 q-44 47 -112 47 q-68 0 -112 -47 q-51 -53 -51 -204 q0 -43 2 -72 q2 -29 14 -68 q12 -39 35 -63 q44 -47 112 -47 q25 0 46 7 l-76 95 l78 61 l78 -99 q37 55 37 186 Z" /><glyph glyph-name="R" unicode="r" d="M628 0 l-140 0 l-118 268 l-157 0 l0 -268 l-130 0 l0 709 l299 0 q120 0 183 -63.5 q63 -63.5 63 -156.5 q0 -70 -35.5 -123.5 q-35.5 -53.5 -94.5 -75.5 l130 -290 ZM499 489 q0 45 -32 76 q-32 31 -85 31 l-170 0 l0 -212 l172 0 q55 0 85 27.5 q30 27.5 30 77.5 Z" /><glyph glyph-name="S" unicode="s" d="M599 211 q0 -89 -59 -148 q-76 -76 -224 -76 q-132 0 -212 73 q-74 67 -74 165 l132 0 q0 -50 37 -87 q38 -38 119 -38 q86 0 123 38 q28 30 28 68 q0 69 -84 84 q-25 5 -80 10 q-55 5 -77 9 q-79 13 -129.5 63.5 q-50.5 50.5 -50.5 134.5 q0 78 62 140 q36 35 91 55 q55 20 117 20 q124 0 198 -69 q71 -67 72 -151 l-132 0 q-2 39 -31 70 q-17 17 -47.5 27.5 q-30.5 10.5 -60.5 10.5 q-77 0 -115 -39 q-24 -26 -24 -60 q0 -65 72 -77 q25 -4 81 -10 q56 -6 73 -8 q85 -12 140 -65 q55 -53 55 -140 Z" /><glyph glyph-name="T" unicode="t" d="M555 589 l-210 0 l0 -589 l-129 0 l0 589 l-210 0 l0 120 l549 0 l0 -120 Z" /><glyph glyph-name="U" unicode="u" d="M619 272 q0 -130 -72 -207.5 q-72 -77.5 -206 -77.5 q-134 0 -206 77.5 q-72 77.5 -72 207.5 l0 437 l129 0 l0 -435 q0 -79 37 -124.5 q37 -45.5 112 -45.5 q75 0 112 45.5 q37 45.5 37 124.5 l0 435 l129 0 l0 -437 Z" /><glyph glyph-name="V" unicode="v" d="M610 709 l-233 -709 l-142 0 l-235 709 l137 0 l172 -541 l171 541 l130 0 Z" /><glyph glyph-name="W" unicode="w" d="M855 709 l-141 -709 l-129 0 l-148 489 l-148 -489 l-129 0 l-143 709 l123 0 l99 -493 l146 482 l108 0 l143 -482 l101 493 l118 0 Z" /><glyph glyph-name="X" unicode="x" d="M601 0 l-142 0 l-159 258 l-159 -258 l-139 0 l223 361 l-221 348 l141 0 l159 -248 l154 248 l140 0 l-218 -349 l221 -360 Z" /><glyph glyph-name="Y" unicode="y" d="M624 709 l-248 -437 l0 -272 l-130 0 l0 272 l-246 437 l140 0 l175 -306 l175 306 l134 0 Z" /><glyph glyph-name="Z" unicode="z" d="M584 0 l-555 0 l0 127 l391 465 l-385 0 l0 117 l544 0 l0 -127 l-388 -465 l393 0 l0 -117 Z" /><glyph glyph-name="bracketleft" unicode="[" d="M338 -148 l-234 0 l0 928 l234 0 l0 -85 l-140 0 l0 -758 l140 0 l0 -85 Z" /><glyph glyph-name="backslash" unicode="\" d="M389 -13 l-92 0 l-307 735 l92 0 l307 -735 Z" /><glyph glyph-name="bracketright" unicode="]" d="M259 -148 l-234 0 l0 85 l140 0 l0 758 l-140 0 l0 85 l234 0 l0 -928 Z" /><glyph glyph-name="asciicircum" unicode="^" d="M488 404 l-138 0 l-83 163 l-84 -163 l-133 0 l170 318 l99 0 l169 -318 Z" /><glyph glyph-name="underscore" unicode="_" d="M563 -90 l-539 0 l0 88 l539 0 l0 -88 Z" /><glyph glyph-name="grave" unicode="`" d="M243 631 l-40 -65 l-200 112 l56 91 l184 -138 Z" /><glyph glyph-name="a" unicode="a" d="M531 6 q-33 -14 -62 -14 q-39 0 -62 21 q-23 21 -26 52 q-19 -33 -62 -55.5 q-43 -22.5 -96 -22.5 q-89 0 -138.5 47.5 q-49.5 47.5 -49.5 115.5 q0 72 49.5 115 q49.5 43 126.5 48 l153 11 l0 32 q0 40 -19 61 q-19 21 -69 21 q-90 0 -95 -74 l-121 0 q5 84 64.5 126.5 q59.5 42.5 151.5 42.5 q154 0 195 -106 q15 -38 15 -105 l0 -193 q0 -18 6.5 -25.5 q6.5 -7.5 22.5 -7.5 l16 2 l0 -92 ZM364 207 l0 24 l-132 -10 q-31 -2 -53 -20 q-22 -18 -22 -48 q0 -29 22 -47 q22 -18 52 -18 q60 0 96.5 31.5 q36.5 31.5 36.5 87.5 Z" /><glyph glyph-name="b" unicode="b" d="M559 259 q0 -151 -93 -227 q-54 -44 -126 -44 q-101 0 -146 69 l-8 -57 l-108 0 l0 722 l125 0 l0 -240 q42 51 136 51 q75 0 127 -42 q93 -77 93 -232 ZM432 261 q0 83 -33 126 q-32 41 -84 41 q-118 0 -118 -167 q0 -101 45 -142 q28 -26 73 -26 q52 0 84 41 q33 43 33 127 Z" /><glyph glyph-name="c" unicode="c" d="M498 184 q-3 -65 -40 -113 q-66 -82 -178 -82 q-56 0 -104 23.5 q-48 23.5 -77 58.5 q-57 72 -57 190 q0 118 57 190 q29 35 77 58.5 q48 23.5 104 23.5 q112 0 178 -82 q37 -48 40 -113 l-123 0 q-1 26 -15 48 q-25 39 -80 39 q-46 0 -76 -32 q-35 -39 -35 -132 q0 -93 35 -131 q31 -33 76 -33 q55 0 80 39 q14 22 15 48 l123 0 Z" /><glyph glyph-name="d" unicode="d" d="M523 0 l-108 0 l-8 57 q-45 -69 -146 -69 q-73 0 -127 44 q-92 76 -92 227 q0 155 93 232 q52 42 127 42 q96 0 136 -49 l0 238 l125 0 l0 -722 ZM404 261 q0 167 -118 167 q-52 0 -84 -41 q-33 -43 -33 -126 q0 -84 33 -127 q32 -41 84 -41 q118 0 118 168 Z" /><glyph glyph-name="e" unicode="e" d="M518 256 q-1 -24 -1 -35 l-348 0 q-2 -64 38 -102 q34 -32 77 -32 q51 0 76 25 q18 18 25 44 l120 0 q-5 -49 -44 -96 q-62 -73 -175 -73 q-97 0 -164 64 q-80 77 -80 208 q0 131 75 208 q64 66 166 66 q126 0 190 -96 q48 -73 45 -181 ZM393 312 q-1 57 -32 91 q-28 30 -79 30 q-57 0 -87 -40 q-26 -33 -27 -81 l225 0 Z" /><glyph glyph-name="f" unicode="f" d="M379 623 q-42 8 -82 8 q-33 0 -50.5 -17 q-17.5 -17 -17.5 -46 l0 -48 l139 0 l0 -103 l-139 0 l0 -417 l-125 0 l0 417 l-88 0 l0 103 l88 0 l0 50 q0 73 47 118.5 q47 45.5 130 45.5 q44 0 98 -11 l0 -100 Z" /><glyph glyph-name="g" unicode="g" d="M536 -69 q0 -49 -22.5 -84.5 q-22.5 -35.5 -60.5 -54 q-38 -18.5 -79.5 -27 q-41.5 -8.5 -88.5 -8.5 q-123 0 -184 43 q-63 44 -63 114 q0 75 62 106 q-24 13 -38 38 q-14 25 -14 51 q0 67 62 105 q-52 52 -52 128 q0 90 60.5 140.5 q60.5 50.5 152.5 50.5 q64 0 118 -32 q32 65 106 65 q26 0 34 -2 l0 -97 q-1 0 -5 0.5 q-4 0.5 -5 0.5 q-52 0 -63 -33 q27 -44 27 -94 q0 -86 -62 -137.5 q-62 -51.5 -150 -51.5 q-44 0 -84 14 q-26 -15 -26 -37 q0 -38 57 -38 l86 0 q119 0 169 -35 q63 -43 63 -125 ZM338 272.5 q25 26.5 25 69.5 q0 43 -25 70 q-25 27 -67 27 q-42 0 -67 -27 q-25 -27 -25 -70 q0 -43 25 -69.5 q25 -26.5 67 -26.5 q42 0 67 26.5 ZM418 -72 q0 23 -11.5 37 q-11.5 14 -34 19.5 q-22.5 5.5 -38 6.5 q-15.5 1 -40.5 1 l-98 0 q-47 -14 -47 -64 q0 -72 131 -72 q138 0 138 72 Z" /><glyph glyph-name="h" unicode="h" d="M521 0 l-125 0 l0 321 q0 48 -19.5 72.5 q-19.5 24.5 -66.5 24.5 q-52 0 -79.5 -44.5 q-27.5 -44.5 -27.5 -99.5 l0 -274 l-125 0 l0 722 l125 0 l0 -257 q22 32 61 50 q39 18 81 18 q82 0 129 -52 q47 -52 47 -134 l0 -347 Z" /><glyph glyph-name="i" unicode="i" d="M210 592 l-134 0 l0 129 l134 0 l0 -129 ZM207 0 l-127 0 l0 520 l127 0 l0 -520 Z" /><glyph glyph-name="j" unicode="j" d="M220 594 l-134 0 l0 129 l134 0 l0 -129 ZM217 -72 q0 -67 -38.5 -106 q-38.5 -39 -107.5 -39 q-28 0 -44 2 q-28 4 -57 11 l0 106 q56 -6 61 -6 q60 0 60 56 l0 568 l126 0 l0 -592 Z" /><glyph glyph-name="k" unicode="k" d="M577 0 l-145 0 l-146 227 l-83 -90 l0 -137 l-125 0 l0 722 l125 0 l0 -413 l197 211 l157 0 l-186 -201 l206 -319 Z" /><glyph glyph-name="l" unicode="l" d="M272 1 q-35 -7 -55 -7 q-67 0 -104.5 34 q-37.5 34 -37.5 106 l0 589 l126 0 l0 -568 q0 -25 10 -37.5 q10 -12.5 40 -12.5 q6 0 12 0.5 q6 0.5 9 0.5 l0 -105 Z" /><glyph glyph-name="m" unicode="m" d="M815 0 l-124 0 l0 323 q0 51 -17.5 76 q-17.5 25 -62.5 25 q-49 0 -75.5 -42.5 q-26.5 -42.5 -26.5 -97.5 l0 -284 l-124 0 l0 323 q0 51 -17.5 76 q-17.5 25 -62.5 25 q-49 0 -76 -42.5 q-27 -42.5 -27 -97.5 l0 -284 l-124 0 l0 520 l104 0 l10 -69 q50 82 148 82 q107 0 149 -85 q49 85 157 85 q81 0 125 -49.5 q44 -49.5 44 -132.5 l0 -351 Z" /><glyph glyph-name="n" unicode="n" d="M521 0 l-125 0 l0 319 q0 49 -19.5 73.5 q-19.5 24.5 -66.5 24.5 q-60 0 -90 -66 q-17 -39 -17 -139 l0 -212 l-125 0 l0 520 l105 0 l9 -67 q22 39 63.5 59.5 q41.5 20.5 89.5 20.5 q82 0 129 -51.5 q47 -51.5 47 -134.5 l0 -347 Z" /><glyph glyph-name="o" unicode="o" d="M467 452 q61 -77 61 -192 q0 -115 -61 -192 q-29 -35 -77.5 -58 q-48.5 -23 -104.5 -23 q-56 0 -104.5 23 q-48.5 23 -77.5 58 q-61 77 -61 192 q0 115 61 192 q29 35 77.5 58 q48.5 23 104.5 23 q56 0 104.5 -23 q48.5 -23 77.5 -58 ZM364 129 q37 41 37 131 q0 90 -37 131 q-31 33 -79 33 q-48 0 -79 -33 q-37 -41 -37 -131 q0 -90 37 -131 q31 -33 79 -33 q48 0 79 33 Z" /><glyph glyph-name="p" unicode="p" d="M559 261 q0 -156 -93 -232 q-52 -42 -127 -42 q-94 0 -136 51 l0 -237 l-125 0 l0 719 l108 0 l8 -57 q45 69 146 69 q72 0 126 -44 q93 -77 93 -227 ZM432 259 q0 84 -33 127 q-32 41 -84 41 q-118 0 -118 -168 q0 -167 118 -167 q52 0 84 41 q33 43 33 126 Z" /><glyph glyph-name="q" unicode="q" d="M523 -199 l-125 0 l0 236 q-41 -50 -136 -50 q-75 0 -127 42 q-93 76 -93 232 q0 151 93 227 q54 44 126 44 q101 0 146 -69 l8 57 l108 0 l0 -719 ZM404 259 q0 168 -118 168 q-52 0 -84 -41 q-33 -43 -33 -127 q0 -83 33 -126 q32 -41 84 -41 q118 0 118 167 Z" /><glyph glyph-name="r" unicode="r" d="M381 404 q-23 5 -43 5 q-64 0 -99 -41 q-35 -41 -35 -106 l0 -262 l-126 0 l0 520 l106 0 l11 -78 q17 43 57.5 64 q40.5 21 89.5 21 q20 0 39 -3 l0 -120 Z" /><glyph glyph-name="s" unicode="s" d="M482 161 q0 -69 -45 -114 q-60 -60 -178 -60 q-105 0 -168 60 q-55 53 -55 121 l117 0 q0 -38 28 -61 q29 -23 79 -23 q106 0 106 66 q0 47 -52 55 q-12 2 -64.5 8 q-52.5 6 -79.5 12 q-53 11 -86 50 q-33 39 -33 89 q0 71 53 117 q60 52 158 52 q106 0 163 -61 q46 -49 46 -107 l-119 0 q0 26 -21 49 q-24 24 -68 24 q-35 0 -54 -8 q-40 -16 -40 -55 q0 -43 60 -52 q83 -11 111 -15 q64 -10 103 -48.5 q39 -38.5 39 -98.5 Z" /><glyph glyph-name="t" unicode="t" d="M372 7 q-54 -14 -107 -14 q-77 0 -117 42 q-40 42 -40 118 l0 264 l-95 0 l0 103 l95 0 l0 132 l125 31 l0 -163 l131 0 l0 -103 l-131 0 l0 -253 q0 -57 58 -57 q39 0 81 5 l0 -105 Z" /><glyph glyph-name="u" unicode="u" d="M512 0 l-104 0 l-9 68 q-19 -38 -59 -59.5 q-40 -21.5 -90 -21.5 q-83 0 -131.5 51 q-48.5 51 -48.5 135 l0 347 l125 0 l0 -319 q0 -99 90 -99 q38 0 64 26 q38 35 38 117 l0 275 l125 0 l0 -520 Z" /><glyph glyph-name="v" unicode="v" d="M514 520 l-188 -520 l-133 0 l-193 520 l132 0 l130 -366 l123 366 l129 0 Z" /><glyph glyph-name="w" unicode="w" d="M748 520 l-127 -520 l-116 0 l-118 351 l-116 -351 l-116 0 l-132 520 l121 0 l83 -341 l109 336 l103 0 l110 -335 l80 340 l119 0 Z" /><glyph glyph-name="x" unicode="x" d="M513 520 l-179 -256 l178 -264 l-141 0 l-116 174 l-114 -174 l-137 0 l182 265 l-183 255 l144 0 l116 -168 l113 168 l137 0 Z" /><glyph glyph-name="y" unicode="y" d="M530 520 l-229 -609 q-50 -130 -160 -130 q-46 0 -96 13 l0 104 q49 -9 70 -9 q44 0 60 39 l30 73 l-205 519 l137 0 l136 -376 l130 376 l127 0 Z" /><glyph glyph-name="z" unicode="z" d="M468 0 l-424 0 l0 110 l275 307 l-273 0 l0 103 l420 0 l0 -113 l-272 -304 l274 0 l0 -103 Z" /><glyph glyph-name="braceleft" unicode="{" d="M379 -148 l-53 0 q-81 0 -122.5 48.5 q-41.5 48.5 -41.5 120.5 q0 15 0.5 62 q0.5 47 0.5 62 q0 64 -28.5 92 q-28.5 28 -89.5 33 l0 93 q61 6 89.5 32.5 q28.5 26.5 28.5 91.5 q0 15 -0.5 62 q-0.5 47 -0.5 62 q0 72 41.5 120.5 q41.5 48.5 122.5 48.5 l53 0 l0 -85 l-34 0 q-48 0 -68 -23 q-20 -23 -20 -68 l0 -154 q-1 -46 -29 -83 q-28 -37 -79 -48 l0 -3 q51 -11 79 -49 q28 -38 29 -85 l0 -154 q0 -45 20 -68 q20 -23 68 -23 l34 0 l0 -85 Z" /><glyph glyph-name="bar" unicode="|" d="M183 -148 l-98 0 l0 928 l98 0 l0 -928 Z" /><glyph glyph-name="braceright" unicode="}" d="M334 270 q-61 -5 -89.5 -33 q-28.5 -28 -28.5 -92 q0 -15 0.5 -62 q0.5 -47 0.5 -62 q0 -72 -41.5 -120.5 q-41.5 -48.5 -122.5 -48.5 l-53 0 l0 85 l34 0 q48 0 68 23 q20 23 20 68 l0 154 q1 47 29 85 q28 38 79 49 l0 3 q-51 11 -79 48 q-28 37 -29 83 l0 154 q0 45 -20 68 q-20 23 -68 23 l-34 0 l0 85 l53 0 q81 0 122.5 -48.5 q41.5 -48.5 41.5 -120.5 q0 -15 -0.5 -62 q-0.5 -47 -0.5 -62 q0 -65 28.5 -91.5 q28.5 -26.5 89.5 -32.5 l0 -93 Z" /><glyph glyph-name="asciitilde" unicode="~" d="M623 306 q-46 -48 -89 -74 q-43 -26 -96 -26 q-42 0 -107 31 q-65 31 -89 31 q-47 0 -103 -60 l-79 95 q46 49 88 75.5 q42 26.5 95 26.5 q41 0 105 -30 q64 -30 90 -30 q51 0 105 56 l80 -95 Z" /><glyph glyph-name="nonbreakingspace" unicode=" " d="" /><glyph glyph-name="exclamdown" unicode="¡" d="M215 370 l-132 0 l0 135 l132 0 l0 -135 ZM214 -204 l-131 0 l0 222 l28 275 l75 0 l28 -275 l0 -222 Z" /><glyph glyph-name="cent" unicode="¢" d="M521 276 q-3 -64 -40 -112 q-55 -71 -148 -81 l0 -85 l-62 0 l0 87 q-92 13 -146 79 q-54 66 -54 190 q0 124 54 190 q54 67 146 80 l0 88 l62 0 l0 -87 q93 -10 148 -81 q37 -48 40 -112 l-121 0 q-1 25 -15 47 q-17 28 -52 37 l0 -324 q35 9 52 37 q14 22 15 47 l121 0 ZM271 194 l0 320 q-24 -9 -42 -28 q-34 -37 -34 -132 q0 -95 34 -132 q18 -19 42 -28 Z" /><glyph glyph-name="sterling" unicode="£" d="M549 192 q0 -94 -49.5 -143 q-49.5 -49 -143.5 -49 l-318 0 l0 110 q76 0 76 74 l0 130 l-75 0 l0 103 l75 0 l0 91 q0 94 55.5 148 q55.5 54 149.5 54 q87 0 143.5 -52 q56.5 -52 56.5 -138 l-125 0 q0 36 -19.5 59 q-19.5 23 -55.5 23 q-39 0 -59 -24 q-20 -24 -20 -64 l0 -97 l143 0 l0 -103 l-143 0 l0 -131 q0 -60 -37 -69 l0 -2 l151 0 q41 0 58.5 19.5 q17.5 19.5 17.5 60.5 l119 0 Z" /><glyph glyph-name="currency" unicode="¤" d="M564 64 l-86 -84 l-70 76 q-57 -33 -121 -33 q-64 0 -123 33 l-69 -76 l-87 84 l79 67 q-36 63 -36 123 q0 60 36 123 l-79 63 l88 87 l67 -75 q57 32 124 32 q64 0 121 -32 l69 75 l87 -87 l-78 -63 q36 -63 36 -123 q0 -62 -36 -123 l78 -67 ZM410 254 q0 54 -33.5 90 q-33.5 36 -89.5 36 q-61 0 -93 -34 q-32 -34 -32 -92 q0 -53 34 -90 q34 -37 91 -37 q58 0 90.5 35 q32.5 35 32.5 92 Z" /><glyph glyph-name="yen" unicode="¥" d="M569 695 l-165 -297 l114 0 l0 -73 l-170 0 l0 -90 l170 0 l0 -73 l-170 0 l0 -162 l-128 0 l0 162 l-159 0 l0 73 l159 0 l0 90 l-159 0 l0 73 l104 0 l-165 297 l139 0 l149 -271 l144 271 l137 0 Z" /><glyph glyph-name="brokenbar" unicode="¦" d="M206 440 l-123 0 l0 319 l123 0 l0 -319 ZM206 -50 l-123 0 l0 319 l123 0 l0 -319 Z" /><glyph glyph-name="section" unicode="§" d="M504 173 q0 -79 -86 -138 q40 -48 40 -110 q0 -68 -46 -114 q-53 -55 -142 -55 q-81 0 -135.5 48.5 q-54.5 48.5 -54.5 131.5 l109 0 q0 -36 21.5 -59 q21.5 -23 58.5 -23 q35 0 56 18.5 q21 18.5 21 50.5 q0 35 -35 66 l-195 167 q-66 56 -66 137 q0 77 87 137 q-41 49 -41 111 q0 66 47 113 q54 56 142 56 q81 0 135.5 -49 q54.5 -49 54.5 -132 l-110 0 q0 36 -21 59.5 q-21 23.5 -58 23.5 q-35 0 -56 -18.5 q-21 -18.5 -21 -50.5 q0 -35 34 -66 l195 -167 q66 -56 66 -137 ZM394 165 q0 38 -28 63 l-160 139 q-45 -31 -45 -66 q0 -39 27 -63 l161 -139 q45 31 45 66 Z" /><glyph glyph-name="dieresis" unicode="¨" d="M323 601 l-117 0 l0 121 l117 0 l0 -121 ZM117 601 l-117 0 l0 121 l117 0 l0 -121 Z" /><glyph glyph-name="copyright" unicode="©" d="M789 354 q0 -161 -104.5 -264.5 q-104.5 -103.5 -265.5 -103.5 q-161 0 -265.5 103.5 q-104.5 103.5 -104.5 264.5 q0 159 105.5 263.5 q105.5 104.5 264.5 104.5 q159 0 264.5 -104.5 q105.5 -104.5 105.5 -263.5 ZM618 152 q78 80 78 202 q0 122 -77.5 202 q-77.5 80 -199.5 80 q-122 0 -199 -80 q-77 -80 -77 -202 q0 -123 76.5 -202.5 q76.5 -79.5 199.5 -79.5 q121 0 199 80 ZM597 301 q-8 -65 -55 -106.5 q-47 -41.5 -118 -41.5 q-86 0 -137 57.5 q-51 57.5 -51 141.5 q0 84 51 141 q51 57 137 57 q71 0 118 -41.5 q47 -41.5 55 -106.5 l-102 0 q-4 24 -23 40.5 q-19 16.5 -48 16.5 q-42 0 -63.5 -31.5 q-21.5 -31.5 -21.5 -75.5 q0 -48 22 -78 q22 -30 63 -30 q29 0 48 16.5 q19 16.5 23 40.5 l102 0 Z" /><glyph glyph-name="ordfeminine" unicode="ª" d="M425 309 q-25 -11 -47 -11 q-29 0 -47 16 q-18 16 -20 40 q-14 -25 -47 -42 q-33 -17 -73 -17 q-67 0 -104 36.5 q-37 36.5 -37 88.5 q0 54 36.5 85.5 q36.5 31.5 95.5 36.5 l116 9 l0 24 q0 31 -14 46.5 q-14 15.5 -52 15.5 q-68 0 -71 -56 l-92 0 q4 64 48.5 96.5 q44.5 32.5 114.5 32.5 q117 0 147 -81 q11 -28 11 -80 l0 -148 q0 -24 23 -24 l12 2 l0 -70 ZM298 462 l0 18 l-99 -8 q-23 -2 -39.5 -15 q-16.5 -13 -16.5 -36 q0 -22 16 -36 q16 -14 39 -14 q46 0 73 24 q27 24 27 67 Z" /><glyph glyph-name="guillemotleft" unicode="«" d="M532 105 l-73 -51 l-173 244 l173 247 l73 -52 l-114 -194 l114 -194 ZM291 105 l-73 -51 l-173 244 l173 247 l73 -52 l-114 -194 l114 -194 Z" /><glyph glyph-name="logicalnot" unicode="¬" d="M585 84 l-122 0 l0 167 l-408 0 l0 113 l529 0 l1 -280 Z" /><glyph glyph-name="registered" unicode="®" d="M789 354 q0 -161 -104.5 -264.5 q-104.5 -103.5 -265.5 -103.5 q-161 0 -265.5 103.5 q-104.5 103.5 -104.5 264.5 q0 159 105.5 263.5 q105.5 104.5 264.5 104.5 q159 0 264.5 -104.5 q105.5 -104.5 105.5 -263.5 ZM617.5 152 q77.5 80 77.5 202 q0 122 -77 202 q-77 80 -199 80 q-122 0 -199 -80 q-77 -80 -77 -202 q0 -123 76.5 -202.5 q76.5 -79.5 199.5 -79.5 q121 0 198.5 80 ZM571 178 l-97 0 l-49 120 l-47 0 l0 -120 l-93 0 l0 365 l145 0 q60 0 99 -32.5 q39 -32.5 39 -91.5 q0 -75 -57 -103 l60 -138 ZM474 422 q0 19 -12.5 28.5 q-12.5 9.5 -31.5 9.5 l-53 0 l0 -79 l53 0 q44 0 44 41 Z" /><glyph glyph-name="macron" unicode="¯" d="M315 611 l-320 0 l0 100 l320 0 l0 -100 Z" /><glyph glyph-name="degree" unicode="°" d="M396 555 q0 -75 -51 -122 q-51 -47 -124 -47 q-72 0 -121.5 48.5 q-49.5 48.5 -49.5 120.5 q0 71 46.5 119 q46.5 48 124.5 48 q77 0 126 -47.5 q49 -47.5 49 -119.5 ZM298 555 q0 32 -22.5 54 q-22.5 22 -54.5 22 q-32 0 -53.5 -22 q-21.5 -22 -21.5 -54 q0 -33 21.5 -55.5 q21.5 -22.5 53.5 -22.5 q32 0 54.5 22.5 q22.5 22.5 22.5 55.5 Z" /><glyph glyph-name="plusminus" unicode="±" d="M558 322 l-198 0 l0 -160 l-113 0 l0 160 l-197 0 l0 105 l197 0 l0 160 l113 0 l0 -160 l198 0 l0 -105 ZM558 0 l-508 0 l0 106 l508 0 l0 -106 Z" /><glyph glyph-name="twosuperior" unicode="²" d="M350 341 l-288 0 l0 73 l153 131 q1 1 4.5 4 q3.5 3 4.5 4 q1 1 4.5 4 q3.5 3 4.5 4 q1 1 3 4 q2 3 3 5 q1 2 2.5 5 q1.5 3 2 5.5 q0.5 2.5 1 6 q0.5 3.5 0.5 7.5 q0 18 -12 29.5 q-12 11.5 -31 11.5 q-48 0 -52 -55 l-95 0 q11 136 148 136 q58 0 98.5 -33 q40.5 -33 40.5 -90 q0 -56 -68 -112 l-64 -53 l140 0 l0 -87 Z" /><glyph glyph-name="threesuperior" unicode="³" d="M357 450 q0 -36 -21 -64 q-38 -51 -133 -51 q-72 0 -114 44 q-30 30 -34 81 l88 0 q2 -24 19.5 -36 q17.5 -12 42.5 -12 q24 0 42 10 q18 10 18 32 q0 39 -53 39 l-27 0 l0 73 l27 0 q45 0 45 36 q0 19 -15.5 29 q-15.5 10 -35.5 10 q-55 0 -61 -50 l-87 0 q4 56 39 88 q42 37 109 37 q84 0 124 -52 q20 -27 20 -57 q0 -25 -14.5 -46.5 q-14.5 -21.5 -37.5 -28.5 q26 -8 42.5 -31.5 q16.5 -23.5 16.5 -50.5 Z" /><glyph glyph-name="acute" unicode="´" d="M247 678 l-200 -112 l-40 65 l184 138 l56 -91 Z" /><glyph glyph-name="mu" unicode="µ" d="M520 0 l-104 0 l-10 70 q-19 -38 -59 -60.5 q-40 -22.5 -89 -22.5 q-35 0 -56 11 l0 -200 l-124 0 l0 722 l124 0 l0 -321 q0 -99 91 -99 q38 0 64 26 q38 35 38 117 l0 277 l125 0 l0 -520 Z" /><glyph glyph-name="paragraph" unicode="¶" d="M613 612 l-68 0 l0 -737 l-100 0 l0 737 l-97 0 l0 -737 l-99 0 l0 436 q-83 0 -141 58.5 q-58 58.5 -58 140.5 q0 82 58 140.5 q58 58.5 141 58.5 l364 0 l0 -97 Z" /><glyph glyph-name="periodcentered" unicode="·" d="M224 215 l-152 0 l0 156 l152 0 l0 -156 Z" /><glyph glyph-name="cedilla" unicode="¸" d="M189 -44 l-76 -199 l-104 49 l83 150 l97 0 Z" /><glyph glyph-name="onesuperior" unicode="¹" d="M227 344 l-93 0 l0 256 l-95 -67 l0 103 l105 73 l83 0 l0 -365 Z" /><glyph glyph-name="ordmasculine" unicode="º" d="M419 501 q0 -91 -43 -144 q-22 -27 -58.5 -45 q-36.5 -18 -79.5 -18 q-43 0 -80 18 q-37 18 -59 45 q-43 53 -43 144 q0 93 44 147 q22 26 58.5 43.5 q36.5 17.5 79.5 17.5 q87 0 137 -61 q44 -54 44 -147 ZM323 501 q0 73 -26 101 q-23 25 -59 25 q-37 0 -60 -25 q-25 -27 -25 -101 q0 -73 25 -100 q23 -25 60 -25 q36 0 59 25 q26 28 26 100 Z" /><glyph glyph-name="guillemotright" unicode="»" d="M542 298 l-173 -244 l-73 51 l114 194 l-114 194 l73 52 l173 -247 ZM301 298 l-173 -244 l-73 51 l114 194 l-114 194 l73 52 l173 -247 Z" /><glyph glyph-name="onequarter" unicode="¼" d="M828 71 l-48 0 l0 -71 l-90 0 l0 71 l-179 0 l0 95 l116 208 l96 0 l-123 -222 l90 0 l0 82 l90 0 l0 -82 l48 0 l0 -81 ZM718 670 l-507 -690 l-74 56 l505 687 l76 -53 ZM262 344 l-93 0 l0 256 l-95 -67 l0 103 l105 73 l83 0 l0 -365 Z" /><glyph glyph-name="onehalf" unicode="½" d="M814 0 l-288 0 l0 73 l153 131 q1 1 4.5 4 q3.5 3 4.5 4 q1 1 4.5 4 q3.5 3 4.5 4 q1 1 3 4 q2 3 3 5 q1 2 2.5 5 q1.5 3 2 5.5 q0.5 2.5 1 6 q0.5 3.5 0.5 7.5 q0 18 -12 29.5 q-12 11.5 -31 11.5 q-48 0 -52 -55 l-95 0 q11 136 148 136 q58 0 98.5 -33 q40.5 -33 40.5 -90 q0 -56 -68 -112 l-64 -53 l140 0 l0 -87 ZM703 670 l-507 -690 l-74 56 l505 687 l76 -53 ZM257 344 l-93 0 l0 256 l-95 -67 l0 103 l105 73 l83 0 l0 -365 Z" /><glyph glyph-name="threequarters" unicode="¾" d="M865 71 l-48 0 l0 -71 l-90 0 l0 71 l-179 0 l0 95 l116 208 l96 0 l-123 -222 l90 0 l0 82 l90 0 l0 -82 l48 0 l0 -81 ZM769 670 l-507 -690 l-74 56 l505 687 l76 -53 ZM363 450 q0 -36 -21 -64 q-38 -51 -133 -51 q-72 0 -114 44 q-30 30 -34 81 l88 0 q2 -24 19.5 -36 q17.5 -12 42.5 -12 q24 0 42 10 q18 10 18 32 q0 39 -53 39 l-27 0 l0 73 l27 0 q45 0 45 36 q0 19 -15.5 29 q-15.5 10 -35.5 10 q-55 0 -61 -50 l-87 0 q4 56 39 88 q42 37 109 37 q84 0 124 -52 q20 -27 20 -57 q0 -25 -14.5 -46.5 q-14.5 -21.5 -37.5 -28.5 q26 -8 42.5 -31.5 q16.5 -23.5 16.5 -50.5 Z" /><glyph glyph-name="questiondown" unicode="¿" d="M490 -8 q0 -101 -68 -157 q-68 -56 -172 -56 q-97 0 -159.5 56 q-62.5 56 -62.5 140 q0 92 79 159 q8 7 24.5 20.5 q16.5 13.5 23.5 19.5 q7 6 18.5 18 q11.5 12 16 22.5 q4.5 10.5 8.5 26 q4 15.5 4 33.5 l0 28 l124 0 q0 -73 -5 -97 q-7 -31 -22 -56.5 q-15 -25.5 -28 -38 q-13 -12.5 -38.5 -33 q-25.5 -20.5 -35.5 -29.5 q-39 -35 -39 -72 q0 -35 26 -59.5 q26 -24.5 71 -24.5 q48 0 77 26 q29 26 29 74 l129 0 ZM334 364 l-139 0 l0 140 l139 0 l0 -140 Z" /><glyph glyph-name="Agrave" unicode="à" d="M386 764 l-200 112 l56 91 l184 -138 l-40 -65 ZM639 0 l-135 0 l-46 136 l-282 0 l-46 -136 l-130 0 l249 709 l141 0 l249 -709 ZM418 252 l-101 299 l-101 -299 l202 0 Z" /><glyph glyph-name="Aacute" unicode="á" d="M639 0 l-135 0 l-46 136 l-282 0 l-46 -136 l-130 0 l249 709 l141 0 l249 -709 ZM418 252 l-101 299 l-101 -299 l202 0 ZM428 876 l-200 -112 l-40 65 l184 138 l56 -91 Z" /><glyph glyph-name="Acircumflex" unicode="â" d="M153 833 l122 116 l77 0 l120 -116 l-59 -58 l-99 96 l-101 -99 l-60 61 ZM639 0 l-135 0 l-46 136 l-282 0 l-46 -136 l-130 0 l249 709 l141 0 l249 -709 ZM418 252 l-101 299 l-101 -299 l202 0 Z" /><glyph glyph-name="Atilde" unicode="ã" d="M480 828 q-58 -56 -112 -56 q-29 0 -66.5 19 q-37.5 19 -51.5 19 q-33 0 -62 -31 l-49 61 q58 56 112 56 q28 0 65 -20 q37 -20 53 -20 q28 0 61 33 l50 -61 ZM639 0 l-135 0 l-46 136 l-282 0 l-46 -136 l-130 0 l249 709 l141 0 l249 -709 ZM418 252 l-101 299 l-101 -299 l202 0 Z" /><glyph glyph-name="Adieresis" unicode="ä" d="M639 0 l-135 0 l-46 136 l-282 0 l-46 -136 l-130 0 l249 709 l141 0 l249 -709 ZM418 252 l-101 299 l-101 -299 l202 0 ZM479 791 l-117 0 l0 121 l117 0 l0 -121 ZM273 791 l-117 0 l0 121 l117 0 l0 -121 Z" /><glyph glyph-name="Aring" unicode="å" d="M639 0 l-135 0 l-46 136 l-282 0 l-46 -136 l-130 0 l235 669 q-44 37 -44 96 q0 53 37.5 90 q37.5 37 90.5 37 q53 0 90.5 -37 q37.5 -37 37.5 -90 q0 -59 -43 -96 l235 -669 ZM358.5 725.5 q16.5 16.5 16.5 39.5 q0 23 -16.5 39 q-16.5 16 -39.5 16 q-23 0 -38.5 -16 q-15.5 -16 -15.5 -39 q0 -23 15.5 -39.5 q15.5 -16.5 38.5 -16.5 q23 0 39.5 16.5 ZM418 252 l-101 299 l-101 -299 l202 0 Z" /><glyph glyph-name="AE" unicode="æ" d="M917 0 l-462 0 l0 179 l-237 0 l-77 -179 l-141 0 l323 709 l594 0 l0 -120 l-333 0 l0 -160 l285 0 l0 -120 l-285 0 l0 -189 l333 0 l0 -120 ZM455 298 l0 291 l-55 0 l-128 -291 l183 0 Z" /><glyph glyph-name="Ccedilla" unicode="ç" d="M600 226 q-10 -96 -68 -155 q-82 -84 -203 -84 q-122 0 -201 79 q-53 53 -70.5 120.5 q-17.5 67.5 -17.5 167.5 q0 100 17.5 167.5 q17.5 67.5 70.5 120.5 q80 80 201 80 q123 0 203 -82 q58 -59 68 -154 l-132 0 q-4 41 -32 75 q-35 44 -107 44 q-65 0 -109 -47 q-23 -24 -34.5 -64 q-11.5 -40 -13 -67 q-1.5 -27 -1.5 -73 q0 -46 1.5 -73 q1.5 -27 13 -67 q11.5 -40 34.5 -64 q44 -47 109 -47 q71 0 107 45 q28 34 32 78 l132 0 ZM398 -42 l-76 -199 l-104 49 l83 150 l97 0 Z" /><glyph glyph-name="Egrave" unicode="è" d="M588 0 l-505 0 l0 709 l505 0 l0 -117 l-376 0 l0 -165 l331 0 l0 -116 l-331 0 l0 -194 l376 0 l0 -117 ZM445 830 l-40 -65 l-200 112 l56 91 l184 -138 Z" /><glyph glyph-name="Eacute" unicode="é" d="M588 0 l-505 0 l0 709 l505 0 l0 -117 l-376 0 l0 -165 l331 0 l0 -116 l-331 0 l0 -194 l376 0 l0 -117 ZM451 876 l-200 -112 l-40 65 l184 138 l56 -91 Z" /><glyph glyph-name="Ecircumflex" unicode="ê" d="M588 0 l-505 0 l0 709 l505 0 l0 -117 l-376 0 l0 -165 l331 0 l0 -116 l-331 0 l0 -194 l376 0 l0 -117 ZM173 833 l122 116 l77 0 l120 -116 l-59 -58 l-99 96 l-101 -99 l-60 61 Z" /><glyph glyph-name="Edieresis" unicode="ë" d="M588 0 l-505 0 l0 709 l505 0 l0 -117 l-376 0 l0 -165 l331 0 l0 -116 l-331 0 l0 -194 l376 0 l0 -117 ZM509 791 l-117 0 l0 121 l117 0 l0 -121 ZM303 791 l-117 0 l0 121 l117 0 l0 -121 Z" /><glyph glyph-name="Igrave" unicode="ì" d="M214 0 l-131 0 l0 709 l131 0 l0 -709 ZM265 835 l-40 -65 l-200 112 l56 91 l184 -138 Z" /><glyph glyph-name="Iacute" unicode="í" d="M214 0 l-131 0 l0 709 l131 0 l0 -709 ZM269 881 l-200 -112 l-40 65 l184 138 l56 -91 Z" /><glyph glyph-name="Icircumflex" unicode="î" d="M214 0 l-131 0 l0 709 l131 0 l0 -709 ZM-8 833 l122 116 l77 0 l120 -116 l-59 -58 l-99 96 l-101 -99 l-60 61 Z" /><glyph glyph-name="Idieresis" unicode="ï" d="M214 0 l-131 0 l0 709 l131 0 l0 -709 ZM311 791 l-117 0 l0 121 l117 0 l0 -121 ZM105 791 l-117 0 l0 121 l117 0 l0 -121 Z" /><glyph glyph-name="Eth" unicode="ð" d="M641 355 q0 -90 -16.5 -159 q-16.5 -69 -66.5 -120 q-73 -76 -199 -76 l-276 0 l0 326 l-63 0 l0 84 l63 0 l0 299 l276 0 q126 0 199 -76 q50 -51 66.5 -120 q16.5 -69 16.5 -158 ZM508 283.5 q2 27.5 2 71.5 q0 44 -2 71.5 q-2 27.5 -14 65.5 q-12 38 -35 61 q-40 40 -100 40 l-147 0 l0 -183 l131 0 l0 -84 l-131 0 l0 -210 l147 0 q60 0 100 40 q23 23 35 61.5 q12 38.5 14 66 Z" /><glyph glyph-name="Ntilde" unicode="ñ" d="M650 0 l-133 0 l-307 487 l0 -487 l-127 0 l0 709 l137 0 l303 -480 l0 480 l127 0 l0 -709 ZM537 852 q-58 -60 -115 -60 q-30 0 -68 20.5 q-38 20.5 -53 20.5 q-34 0 -63 -33 l-51 64 q60 60 115 60 q29 0 67 -21 q38 -21 54 -21 q29 0 63 34 l51 -64 Z" /><glyph glyph-name="Ograve" unicode="ò" d="M630 354 q0 -98 -18.5 -166 q-18.5 -68 -71.5 -121 q-80 -80 -204 -80 q-124 0 -204 80 q-53 53 -71.5 121 q-18.5 68 -18.5 166 q0 99 18.5 167 q18.5 68 71.5 121 q80 80 204 80 q124 0 204 -80 q53 -53 71.5 -121 q18.5 -68 18.5 -167 ZM499 354 q0 151 -51 204 q-44 47 -112 47 q-68 0 -112 -47 q-51 -53 -51 -204 q0 -43 2 -72 q2 -29 14 -68 q12 -39 35 -63 q44 -47 112 -47 q68 0 112 47 q23 24 35 63 q12 39 14 68 q2 29 2 72 ZM451 830 l-40 -65 l-200 112 l56 91 l184 -138 Z" /><glyph glyph-name="Oacute" unicode="ó" d="M630 354 q0 -98 -18.5 -166 q-18.5 -68 -71.5 -121 q-80 -80 -204 -80 q-124 0 -204 80 q-53 53 -71.5 121 q-18.5 68 -18.5 166 q0 99 18.5 167 q18.5 68 71.5 121 q80 80 204 80 q124 0 204 -80 q53 -53 71.5 -121 q18.5 -68 18.5 -167 ZM499 354 q0 151 -51 204 q-44 47 -112 47 q-68 0 -112 -47 q-51 -53 -51 -204 q0 -43 2 -72 q2 -29 14 -68 q12 -39 35 -63 q44 -47 112 -47 q68 0 112 47 q23 24 35 63 q12 39 14 68 q2 29 2 72 ZM445 876 l-200 -112 l-40 65 l184 138 l56 -91 Z" /><glyph glyph-name="Ocircumflex" unicode="ô" d="M630 354 q0 -98 -18.5 -166 q-18.5 -68 -71.5 -121 q-80 -80 -204 -80 q-124 0 -204 80 q-53 53 -71.5 121 q-18.5 68 -18.5 166 q0 99 18.5 167 q18.5 68 71.5 121 q80 80 204 80 q124 0 204 -80 q53 -53 71.5 -121 q18.5 -68 18.5 -167 ZM499 354 q0 151 -51 204 q-44 47 -112 47 q-68 0 -112 -47 q-51 -53 -51 -204 q0 -43 2 -72 q2 -29 14 -68 q12 -39 35 -63 q44 -47 112 -47 q68 0 112 47 q23 24 35 63 q12 39 14 68 q2 29 2 72 ZM181 833 l122 116 l77 0 l120 -116 l-59 -58 l-99 96 l-101 -99 l-60 61 Z" /><glyph glyph-name="Otilde" unicode="õ" d="M630 354 q0 -98 -18.5 -166 q-18.5 -68 -71.5 -121 q-80 -80 -204 -80 q-124 0 -204 80 q-53 53 -71.5 121 q-18.5 68 -18.5 166 q0 99 18.5 167 q18.5 68 71.5 121 q80 80 204 80 q124 0 204 -80 q53 -53 71.5 -121 q18.5 -68 18.5 -167 ZM499 354 q0 151 -51 204 q-44 47 -112 47 q-68 0 -112 -47 q-51 -53 -51 -204 q0 -43 2 -72 q2 -29 14 -68 q12 -39 35 -63 q44 -47 112 -47 q68 0 112 47 q23 24 35 63 q12 39 14 68 q2 29 2 72 ZM507 834 q-56 -56 -112 -56 q-29 0 -66.5 19 q-37.5 19 -51.5 19 q-32 0 -61 -31 l-50 61 q58 56 112 56 q28 0 65 -19.5 q37 -19.5 53 -19.5 q28 0 62 32 l49 -61 Z" /><glyph glyph-name="Odieresis" unicode="ö" d="M630 354 q0 -98 -18.5 -166 q-18.5 -68 -71.5 -121 q-80 -80 -204 -80 q-124 0 -204 80 q-53 53 -71.5 121 q-18.5 68 -18.5 166 q0 99 18.5 167 q18.5 68 71.5 121 q80 80 204 80 q124 0 204 -80 q53 -53 71.5 -121 q18.5 -68 18.5 -167 ZM499 354 q0 151 -51 204 q-44 47 -112 47 q-68 0 -112 -47 q-51 -53 -51 -204 q0 -43 2 -72 q2 -29 14 -68 q12 -39 35 -63 q44 -47 112 -47 q68 0 112 47 q23 24 35 63 q12 39 14 68 q2 29 2 72 ZM498 793 l-117 0 l0 121 l117 0 l0 -121 ZM292 793 l-117 0 l0 121 l117 0 l0 -121 Z" /><glyph glyph-name="multiply" unicode="×" d="M551 17 l-208 208 l-208 -208 l-72 72 l208 208 l-208 208 l72 72 l208 -207 l208 207 l73 -72 l-208 -208 l208 -208 l-73 -72 Z" /><glyph glyph-name="Oslash" unicode="ø" d="M630 354 q0 -98 -18.5 -166 q-18.5 -68 -71.5 -121 q-80 -80 -204 -80 q-67 0 -124 25 l-40 -84 l-67 30 l43 94 l-16 15 q-53 53 -71.5 121 q-18.5 68 -18.5 166 q0 99 18.5 167 q18.5 68 71.5 121 q80 80 204 80 q62 0 115 -22 l33 70 l67 -30 l-35 -76 l24 -22 q53 -53 71.5 -121 q18.5 -68 18.5 -167 ZM499 354 q0 137 -39 190 l-197 -422 q35 -18 73 -18 q68 0 112 47 q23 24 35 63 q12 39 14 68 q2 29 2 72 ZM400 591 q-31 14 -64 14 q-68 0 -112 -47 q-51 -53 -51 -204 q0 -124 33 -179 l194 416 Z" /><glyph glyph-name="Ugrave" unicode="ù" d="M619 272 q0 -130 -72 -207.5 q-72 -77.5 -206 -77.5 q-134 0 -206 77.5 q-72 77.5 -72 207.5 l0 437 l129 0 l0 -435 q0 -79 37 -124.5 q37 -45.5 112 -45.5 q75 0 112 45.5 q37 45.5 37 124.5 l0 435 l129 0 l0 -437 ZM448 835 l-40 -65 l-200 112 l56 91 l184 -138 Z" /><glyph glyph-name="Uacute" unicode="ú" d="M619 272 q0 -130 -72 -207.5 q-72 -77.5 -206 -77.5 q-134 0 -206 77.5 q-72 77.5 -72 207.5 l0 437 l129 0 l0 -435 q0 -79 37 -124.5 q37 -45.5 112 -45.5 q75 0 112 45.5 q37 45.5 37 124.5 l0 435 l129 0 l0 -437 ZM471 881 l-200 -112 l-40 65 l184 138 l56 -91 Z" /><glyph glyph-name="Ucircumflex" unicode="û" d="M619 272 q0 -130 -72 -207.5 q-72 -77.5 -206 -77.5 q-134 0 -206 77.5 q-72 77.5 -72 207.5 l0 437 l129 0 l0 -435 q0 -79 37 -124.5 q37 -45.5 112 -45.5 q75 0 112 45.5 q37 45.5 37 124.5 l0 435 l129 0 l0 -437 ZM184 833 l122 116 l77 0 l120 -116 l-59 -58 l-99 96 l-101 -99 l-60 61 Z" /><glyph glyph-name="Udieresis" unicode="ü" d="M619 272 q0 -130 -72 -207.5 q-72 -77.5 -206 -77.5 q-134 0 -206 77.5 q-72 77.5 -72 207.5 l0 437 l129 0 l0 -435 q0 -79 37 -124.5 q37 -45.5 112 -45.5 q75 0 112 45.5 q37 45.5 37 124.5 l0 435 l129 0 l0 -437 ZM502 792 l-117 0 l0 121 l117 0 l0 -121 ZM296 792 l-117 0 l0 121 l117 0 l0 -121 Z" /><glyph glyph-name="Yacute" unicode="ý" d="M624 709 l-248 -437 l0 -272 l-130 0 l0 272 l-246 437 l140 0 l175 -306 l175 306 l134 0 ZM433 876 l-200 -112 l-40 65 l184 138 l56 -91 Z" /><glyph glyph-name="Thorn" unicode="þ" d="M581 364 q0 -109 -62.5 -170.5 q-62.5 -61.5 -182.5 -61.5 l-125 0 l0 -132 l-128 0 l0 709 l128 0 l0 -119 l125 0 q119 0 182 -60.5 q63 -60.5 63 -165.5 ZM451 363 q0 114 -120 114 l-120 0 l0 -233 l120 0 q64 0 92 30 q28 30 28 89 Z" /><glyph glyph-name="germandbls" unicode="ß" d="M584 211 q0 -97 -59.5 -159 q-59.5 -62 -156.5 -62 q-53 0 -94 10 l0 109 q32 -6 67 -6 q55 0 86 33.5 q31 33.5 31 87.5 q0 123 -136 123 l-21 0 l0 104 l21 0 q40 0 63.5 22.5 q23.5 22.5 23.5 61.5 q0 41 -24.5 65 q-24.5 24 -64.5 24 q-99 0 -99 -120 l0 -504 l-123 0 l0 417 l-83 0 l0 103 l85 0 q1 99 63 155.5 q62 56.5 159 56.5 q92 0 152.5 -51.5 q60.5 -51.5 60.5 -134.5 q0 -47 -26 -88 q-26 -41 -69 -54 q68 -15 106 -68.5 q38 -53.5 38 -124.5 Z" /><glyph glyph-name="agrave" unicode="à" d="M531 6 q-33 -14 -62 -14 q-39 0 -62 21 q-23 21 -26 52 q-19 -33 -62 -55.5 q-43 -22.5 -96 -22.5 q-89 0 -138.5 47.5 q-49.5 47.5 -49.5 115.5 q0 72 49.5 115 q49.5 43 126.5 48 l153 11 l0 32 q0 40 -19 61 q-19 21 -69 21 q-90 0 -95 -74 l-121 0 q5 84 64.5 126.5 q59.5 42.5 151.5 42.5 q154 0 195 -106 q15 -38 15 -105 l0 -193 q0 -18 6.5 -25.5 q6.5 -7.5 22.5 -7.5 l16 2 l0 -92 ZM364 207 l0 24 l-132 -10 q-31 -2 -53 -20 q-22 -18 -22 -48 q0 -29 22 -47 q22 -18 52 -18 q60 0 96.5 31.5 q36.5 31.5 36.5 87.5 ZM357 566 l-200 112 l56 91 l184 -138 l-40 -65 Z" /><glyph glyph-name="aacute" unicode="á" d="M531 6 q-33 -14 -62 -14 q-39 0 -62 21 q-23 21 -26 52 q-19 -33 -62 -55.5 q-43 -22.5 -96 -22.5 q-89 0 -138.5 47.5 q-49.5 47.5 -49.5 115.5 q0 72 49.5 115 q49.5 43 126.5 48 l153 11 l0 32 q0 40 -19 61 q-19 21 -69 21 q-90 0 -95 -74 l-121 0 q5 84 64.5 126.5 q59.5 42.5 151.5 42.5 q154 0 195 -106 q15 -38 15 -105 l0 -193 q0 -18 6.5 -25.5 q6.5 -7.5 22.5 -7.5 l16 2 l0 -92 ZM364 207 l0 24 l-132 -10 q-31 -2 -53 -20 q-22 -18 -22 -48 q0 -29 22 -47 q22 -18 52 -18 q60 0 96.5 31.5 q36.5 31.5 36.5 87.5 ZM382 678 l-200 -112 l-40 65 l184 138 l56 -91 Z" /><glyph glyph-name="acircumflex" unicode="â" d="M531 6 q-33 -14 -62 -14 q-39 0 -62 21 q-23 21 -26 52 q-19 -33 -62 -55.5 q-43 -22.5 -96 -22.5 q-89 0 -138.5 47.5 q-49.5 47.5 -49.5 115.5 q0 72 49.5 115 q49.5 43 126.5 48 l153 11 l0 32 q0 40 -19 61 q-19 21 -69 21 q-90 0 -95 -74 l-121 0 q5 84 64.5 126.5 q59.5 42.5 151.5 42.5 q154 0 195 -106 q15 -38 15 -105 l0 -193 q0 -18 6.5 -25.5 q6.5 -7.5 22.5 -7.5 l16 2 l0 -92 ZM364 207 l0 24 l-132 -10 q-31 -2 -53 -20 q-22 -18 -22 -48 q0 -29 22 -47 q22 -18 52 -18 q60 0 96.5 31.5 q36.5 31.5 36.5 87.5 ZM122 633 l122 116 l77 0 l120 -116 l-59 -58 l-99 96 l-101 -99 l-60 61 Z" /><glyph glyph-name="atilde" unicode="ã" d="M531 6 q-33 -14 -62 -14 q-39 0 -62 21 q-23 21 -26 52 q-19 -33 -62 -55.5 q-43 -22.5 -96 -22.5 q-89 0 -138.5 47.5 q-49.5 47.5 -49.5 115.5 q0 72 49.5 115 q49.5 43 126.5 48 l153 11 l0 32 q0 40 -19 61 q-19 21 -69 21 q-90 0 -95 -74 l-121 0 q5 84 64.5 126.5 q59.5 42.5 151.5 42.5 q154 0 195 -106 q15 -38 15 -105 l0 -193 q0 -18 6.5 -25.5 q6.5 -7.5 22.5 -7.5 l16 2 l0 -92 ZM364 207 l0 24 l-132 -10 q-31 -2 -53 -20 q-22 -18 -22 -48 q0 -29 22 -47 q22 -18 52 -18 q60 0 96.5 31.5 q36.5 31.5 36.5 87.5 ZM443 672 q-59 -59 -113 -59 q-29 0 -66.5 20 q-37.5 20 -51.5 20 q-34 0 -62 -32 l-50 63 q59 59 113 59 q28 0 65 -20.5 q37 -20.5 53 -20.5 q31 0 62 33 l50 -63 Z" /><glyph glyph-name="adieresis" unicode="ä" d="M531 6 q-33 -14 -62 -14 q-39 0 -62 21 q-23 21 -26 52 q-19 -33 -62 -55.5 q-43 -22.5 -96 -22.5 q-89 0 -138.5 47.5 q-49.5 47.5 -49.5 115.5 q0 72 49.5 115 q49.5 43 126.5 48 l153 11 l0 32 q0 40 -19 61 q-19 21 -69 21 q-90 0 -95 -74 l-121 0 q5 84 64.5 126.5 q59.5 42.5 151.5 42.5 q154 0 195 -106 q15 -38 15 -105 l0 -193 q0 -18 6.5 -25.5 q6.5 -7.5 22.5 -7.5 l16 2 l0 -92 ZM364 207 l0 24 l-132 -10 q-31 -2 -53 -20 q-22 -18 -22 -48 q0 -29 22 -47 q22 -18 52 -18 q60 0 96.5 31.5 q36.5 31.5 36.5 87.5 ZM442 601 l-117 0 l0 121 l117 0 l0 -121 ZM236 601 l-117 0 l0 121 l117 0 l0 -121 Z" /><glyph glyph-name="aring" unicode="å" d="M531 6 q-33 -14 -62 -14 q-39 0 -62 21 q-23 21 -26 52 q-19 -33 -62 -55.5 q-43 -22.5 -96 -22.5 q-89 0 -138.5 47.5 q-49.5 47.5 -49.5 115.5 q0 72 49.5 115 q49.5 43 126.5 48 l153 11 l0 32 q0 40 -19 61 q-19 21 -69 21 q-90 0 -95 -74 l-121 0 q5 84 64.5 126.5 q59.5 42.5 151.5 42.5 q154 0 195 -106 q15 -38 15 -105 l0 -193 q0 -18 6.5 -25.5 q6.5 -7.5 22.5 -7.5 l16 2 l0 -92 ZM364 207 l0 24 l-132 -10 q-31 -2 -53 -20 q-22 -18 -22 -48 q0 -29 22 -47 q22 -18 52 -18 q60 0 96.5 31.5 q36.5 31.5 36.5 87.5 ZM360.5 796 q35.5 -35 35.5 -86 q0 -51 -35.5 -86.5 q-35.5 -35.5 -86.5 -35.5 q-51 0 -86.5 35.5 q-35.5 35.5 -35.5 86.5 q0 51 35.5 86 q35.5 35 86.5 35 q51 0 86.5 -35 ZM311.5 672.5 q15.5 15.5 15.5 37.5 q0 22 -15.5 37 q-15.5 15 -37.5 15 q-22 0 -37 -15 q-15 -15 -15 -37 q0 -22 15 -37.5 q15 -15.5 37 -15.5 q22 0 37.5 15.5 Z" /><glyph glyph-name="ae" unicode="æ" d="M821 219 l-344 0 q6 -135 113 -135 q76 0 101 70 l121 0 q-6 -49 -43 -93 q-61 -74 -175 -74 q-68 0 -119.5 28.5 q-51.5 28.5 -71.5 72.5 q-53 -101 -182 -101 q-75 0 -130.5 42.5 q-55.5 42.5 -55.5 119.5 q0 73 49.5 113.5 q49.5 40.5 126.5 46.5 l140 2 l0 45 q0 42 -19.5 60.5 q-19.5 18.5 -61.5 18.5 q-86 0 -92 -71 l-121 0 q5 84 63 126.5 q58 42.5 150 42.5 q101 0 158 -61 q54 61 160 61 q124 0 188 -95 q45 -66 45 -191 l0 -28 ZM695 311 q-1 56 -27 89.5 q-26 33.5 -81 33.5 q-54 0 -81.5 -34.5 q-27.5 -34.5 -29.5 -88.5 l219 0 ZM351 219 q-94 0 -121 -2 q-73 -5 -73 -64 q0 -29 21.5 -46 q21.5 -17 51.5 -17 q59 0 90 36.5 q31 36.5 31 92.5 Z" /><glyph glyph-name="ccedilla" unicode="ç" d="M498 184 q-3 -65 -40 -113 q-66 -82 -178 -82 q-56 0 -104 23.5 q-48 23.5 -77 58.5 q-57 72 -57 190 q0 118 57 190 q29 35 77 58.5 q48 23.5 104 23.5 q112 0 178 -82 q37 -48 40 -113 l-123 0 q-1 26 -15 48 q-25 39 -80 39 q-46 0 -76 -32 q-35 -39 -35 -132 q0 -93 35 -131 q31 -33 76 -33 q55 0 80 39 q14 22 15 48 l123 0 ZM350 -44 l-76 -199 l-104 49 l83 150 l97 0 Z" /><glyph glyph-name="egrave" unicode="è" d="M518 256 q-1 -24 -1 -35 l-348 0 q-2 -64 38 -102 q34 -32 77 -32 q51 0 76 25 q18 18 25 44 l120 0 q-5 -49 -44 -96 q-62 -73 -175 -73 q-97 0 -164 64 q-80 77 -80 208 q0 131 75 208 q64 66 166 66 q126 0 190 -96 q48 -73 45 -181 ZM393 312 q-1 57 -32 91 q-28 30 -79 30 q-57 0 -87 -40 q-26 -33 -27 -81 l225 0 ZM364 567 l-200 112 l56 91 l184 -138 l-40 -65 Z" /><glyph glyph-name="eacute" unicode="é" d="M518 256 q-1 -24 -1 -35 l-348 0 q-2 -64 38 -102 q34 -32 77 -32 q51 0 76 25 q18 18 25 44 l120 0 q-5 -49 -44 -96 q-62 -73 -175 -73 q-97 0 -164 64 q-80 77 -80 208 q0 131 75 208 q64 66 166 66 q126 0 190 -96 q48 -73 45 -181 ZM393 312 q-1 57 -32 91 q-28 30 -79 30 q-57 0 -87 -40 q-26 -33 -27 -81 l225 0 ZM409 678 l-200 -112 l-40 65 l184 138 l56 -91 Z" /><glyph glyph-name="ecircumflex" unicode="ê" d="M518 256 q-1 -24 -1 -35 l-348 0 q-2 -64 38 -102 q34 -32 77 -32 q51 0 76 25 q18 18 25 44 l120 0 q-5 -49 -44 -96 q-62 -73 -175 -73 q-97 0 -164 64 q-80 77 -80 208 q0 131 75 208 q64 66 166 66 q126 0 190 -96 q48 -73 45 -181 ZM393 312 q-1 57 -32 91 q-28 30 -79 30 q-57 0 -87 -40 q-26 -33 -27 -81 l225 0 ZM117 633 l122 116 l77 0 l120 -116 l-59 -58 l-99 96 l-101 -99 l-60 61 Z" /><glyph glyph-name="edieresis" unicode="ë" d="M518 256 q-1 -24 -1 -35 l-348 0 q-2 -64 38 -102 q34 -32 77 -32 q51 0 76 25 q18 18 25 44 l120 0 q-5 -49 -44 -96 q-62 -73 -175 -73 q-97 0 -164 64 q-80 77 -80 208 q0 131 75 208 q64 66 166 66 q126 0 190 -96 q48 -73 45 -181 ZM393 312 q-1 57 -32 91 q-28 30 -79 30 q-57 0 -87 -40 q-26 -33 -27 -81 l225 0 ZM453 601 l-117 0 l0 121 l117 0 l0 -121 ZM247 601 l-117 0 l0 121 l117 0 l0 -121 Z" /><glyph glyph-name="igrave" unicode="ì" d="M207 0 l-127 0 l0 520 l127 0 l0 -520 ZM210 567 l-178 103 l50 84 l164 -127 l-36 -60 Z" /><glyph glyph-name="iacute" unicode="í" d="M207 0 l-127 0 l0 520 l127 0 l0 -520 ZM238 671 l-178 -103 l-36 60 l164 127 l50 -84 Z" /><glyph glyph-name="icircumflex" unicode="î" d="M207 0 l-127 0 l0 520 l127 0 l0 -520 ZM-15 633 l122 116 l77 0 l120 -116 l-59 -58 l-99 96 l-101 -99 l-60 61 Z" /><glyph glyph-name="idieresis" unicode="ï" d="M207 0 l-127 0 l0 520 l127 0 l0 -520 ZM287 608 l-104 0 l0 107 l104 0 l0 -107 ZM103 608 l-104 0 l0 107 l104 0 l0 -107 Z" /><glyph glyph-name="eth" unicode="ð" d="M520 259 q0 -118 -57 -190 q-29 -35 -77.5 -58.5 q-48.5 -23.5 -104.5 -23.5 q-56 0 -104.5 23.5 q-48.5 23.5 -77.5 58.5 q-57 72 -57 190 q0 120 58 193 q29 35 77 58 q48 23 104 23 l6 0 l-30 50 l-110 0 l0 67 l71 0 l-41 72 l125 0 l42 -72 l96 0 l0 -67 l-56 0 l91 -149 q45 -74 45 -175 ZM393 259 q0 96 -34 133 q-31 33 -78 33 q-47 0 -78 -33 q-34 -37 -34 -133 q0 -95 34 -132 q31 -33 78 -33 q47 0 78 33 q34 37 34 132 Z" /><glyph glyph-name="ntilde" unicode="ñ" d="M521 0 l-125 0 l0 319 q0 49 -19.5 73.5 q-19.5 24.5 -66.5 24.5 q-60 0 -90 -66 q-17 -39 -17 -139 l0 -212 l-125 0 l0 520 l105 0 l9 -67 q22 39 63.5 59.5 q41.5 20.5 89.5 20.5 q82 0 129 -51.5 q47 -51.5 47 -134.5 l0 -347 ZM476 672 q-59 -59 -112 -59 q-29 0 -67 20 q-38 20 -52 20 q-32 0 -62 -32 l-50 63 q59 59 113 59 q28 0 65 -20.5 q37 -20.5 54 -20.5 q30 0 61 33 l50 -63 Z" /><glyph glyph-name="ograve" unicode="ò" d="M467 452 q61 -77 61 -192 q0 -115 -61 -192 q-29 -35 -77.5 -58 q-48.5 -23 -104.5 -23 q-56 0 -104.5 23 q-48.5 23 -77.5 58 q-61 77 -61 192 q0 115 61 192 q29 35 77.5 58 q48.5 23 104.5 23 q56 0 104.5 -23 q48.5 -23 77.5 -58 ZM364 129 q37 41 37 131 q0 90 -37 131 q-31 33 -79 33 q-48 0 -79 -33 q-37 -41 -37 -131 q0 -90 37 -131 q31 -33 79 -33 q48 0 79 33 ZM367 567 l-200 112 l56 91 l184 -138 l-40 -65 Z" /><glyph glyph-name="oacute" unicode="ó" d="M467 452 q61 -77 61 -192 q0 -115 -61 -192 q-29 -35 -77.5 -58 q-48.5 -23 -104.5 -23 q-56 0 -104.5 23 q-48.5 23 -77.5 58 q-61 77 -61 192 q0 115 61 192 q29 35 77.5 58 q48.5 23 104.5 23 q56 0 104.5 -23 q48.5 -23 77.5 -58 ZM364 129 q37 41 37 131 q0 90 -37 131 q-31 33 -79 33 q-48 0 -79 -33 q-37 -41 -37 -131 q0 -90 37 -131 q31 -33 79 -33 q48 0 79 33 ZM410 678 l-200 -112 l-40 65 l184 138 l56 -91 Z" /><glyph glyph-name="ocircumflex" unicode="ô" d="M467 452 q61 -77 61 -192 q0 -115 -61 -192 q-29 -35 -77.5 -58 q-48.5 -23 -104.5 -23 q-56 0 -104.5 23 q-48.5 23 -77.5 58 q-61 77 -61 192 q0 115 61 192 q29 35 77.5 58 q48.5 23 104.5 23 q56 0 104.5 -23 q48.5 -23 77.5 -58 ZM364 129 q37 41 37 131 q0 90 -37 131 q-31 33 -79 33 q-48 0 -79 -33 q-37 -41 -37 -131 q0 -90 37 -131 q31 -33 79 -33 q48 0 79 33 ZM121 633 l122 116 l77 0 l120 -116 l-59 -58 l-99 96 l-101 -99 l-60 61 Z" /><glyph glyph-name="otilde" unicode="õ" d="M467 452 q61 -77 61 -192 q0 -115 -61 -192 q-29 -35 -77.5 -58 q-48.5 -23 -104.5 -23 q-56 0 -104.5 23 q-48.5 23 -77.5 58 q-61 77 -61 192 q0 115 61 192 q29 35 77.5 58 q48.5 23 104.5 23 q56 0 104.5 -23 q48.5 -23 77.5 -58 ZM364 129 q37 41 37 131 q0 90 -37 131 q-31 33 -79 33 q-48 0 -79 -33 q-37 -41 -37 -131 q0 -90 37 -131 q31 -33 79 -33 q48 0 79 33 ZM444 678 q-56 -58 -112 -58 q-29 0 -67 20 q-38 20 -52 20 q-31 0 -62 -33 l-50 63 q57 59 113 59 q28 0 65 -20.5 q37 -20.5 54 -20.5 q30 0 61 33 l50 -63 Z" /><glyph glyph-name="odieresis" unicode="ö" d="M467 452 q61 -77 61 -192 q0 -115 -61 -192 q-29 -35 -77.5 -58 q-48.5 -23 -104.5 -23 q-56 0 -104.5 23 q-48.5 23 -77.5 58 q-61 77 -61 192 q0 115 61 192 q29 35 77.5 58 q48.5 23 104.5 23 q56 0 104.5 -23 q48.5 -23 77.5 -58 ZM364 129 q37 41 37 131 q0 90 -37 131 q-31 33 -79 33 q-48 0 -79 -33 q-37 -41 -37 -131 q0 -90 37 -131 q31 -33 79 -33 q48 0 79 33 ZM451 601 l-117 0 l0 121 l117 0 l0 -121 ZM245 601 l-117 0 l0 121 l117 0 l0 -121 Z" /><glyph glyph-name="divide" unicode="÷" d="M394 436 l-137 0 l0 139 l137 0 l0 -139 ZM588 243 l-528 0 l0 114 l528 0 l0 -114 ZM394 30 l-137 0 l0 139 l137 0 l0 -139 Z" /><glyph glyph-name="oslash" unicode="ø" d="M467 452 q61 -77 61 -192 q0 -115 -61 -192 q-29 -35 -77.5 -58 q-48.5 -23 -104.5 -23 q-48 0 -87 15 l-35 -77 l-63 28 l37 82 q-22 17 -34 33 q-61 77 -61 192 q0 115 61 192 q29 35 77.5 58 q48.5 23 104.5 23 q38 0 74 -11 l29 62 l63 -28 l-29 -64 q28 -19 45 -40 ZM401 260 q0 82 -29 122 l-127 -279 q17 -7 40 -7 q48 0 79 33 q37 41 37 131 ZM313 421 q-14 3 -28 3 q-48 0 -79 -33 q-37 -41 -37 -131 q0 -71 21 -109 l123 270 Z" /><glyph glyph-name="ugrave" unicode="ù" d="M512 0 l-104 0 l-9 68 q-19 -38 -59 -59.5 q-40 -21.5 -90 -21.5 q-83 0 -131.5 51 q-48.5 51 -48.5 135 l0 347 l125 0 l0 -319 q0 -99 90 -99 q38 0 64 26 q38 35 38 117 l0 275 l125 0 l0 -520 ZM361 566 l-200 112 l56 91 l184 -138 l-40 -65 Z" /><glyph glyph-name="uacute" unicode="ú" d="M512 0 l-104 0 l-9 68 q-19 -38 -59 -59.5 q-40 -21.5 -90 -21.5 q-83 0 -131.5 51 q-48.5 51 -48.5 135 l0 347 l125 0 l0 -319 q0 -99 90 -99 q38 0 64 26 q38 35 38 117 l0 275 l125 0 l0 -520 ZM422 678 l-200 -112 l-40 65 l184 138 l56 -91 Z" /><glyph glyph-name="ucircumflex" unicode="û" d="M512 0 l-104 0 l-9 68 q-19 -38 -59 -59.5 q-40 -21.5 -90 -21.5 q-83 0 -131.5 51 q-48.5 51 -48.5 135 l0 347 l125 0 l0 -319 q0 -99 90 -99 q38 0 64 26 q38 35 38 117 l0 275 l125 0 l0 -520 ZM128 633 l122 116 l77 0 l120 -116 l-59 -58 l-99 96 l-101 -99 l-60 61 Z" /><glyph glyph-name="udieresis" unicode="ü" d="M512 0 l-104 0 l-9 68 q-19 -38 -59 -59.5 q-40 -21.5 -90 -21.5 q-83 0 -131.5 51 q-48.5 51 -48.5 135 l0 347 l125 0 l0 -319 q0 -99 90 -99 q38 0 64 26 q38 35 38 117 l0 275 l125 0 l0 -520 ZM457 601 l-117 0 l0 121 l117 0 l0 -121 ZM251 601 l-117 0 l0 121 l117 0 l0 -121 Z" /><glyph glyph-name="yacute" unicode="ý" d="M530 520 l-229 -609 q-50 -130 -160 -130 q-46 0 -96 13 l0 104 q49 -9 70 -9 q44 0 60 39 l30 73 l-205 519 l137 0 l136 -376 l130 376 l127 0 ZM413 675 l-200 -112 l-40 65 l184 138 l56 -91 Z" /><glyph glyph-name="thorn" unicode="þ" d="M550 260 q0 -138 -74 -215 q-55 -57 -137 -57 q-42 0 -80.5 15.5 q-38.5 15.5 -56.5 44.5 l0 -247 l-124 0 l0 921 l124 0 l0 -249 q18 29 56.5 44.5 q38.5 15.5 80.5 15.5 q82 0 137 -57 q74 -77 74 -216 ZM424 260 q0 90 -35 134 q-29 36 -78 36 q-115 0 -115 -170 q0 -169 115 -169 q49 0 78 36 q35 44 35 133 Z" /><glyph glyph-name="ydieresis" unicode="ÿ" d="M530 520 l-229 -609 q-50 -130 -160 -130 q-46 0 -96 13 l0 104 q49 -9 70 -9 q44 0 60 39 l30 73 l-205 519 l137 0 l136 -376 l130 376 l127 0 ZM434 601 l-117 0 l0 121 l117 0 l0 -121 ZM228 601 l-117 0 l0 121 l117 0 l0 -121 Z" /><glyph glyph-name="Amacron" unicode="&#x100;" d="M639 0 l-135 0 l-46 136 l-282 0 l-46 -136 l-130 0 l249 709 l141 0 l249 -709 ZM418 252 l-101 299 l-101 -299 l202 0 ZM469 764 l-300 0 l0 100 l300 0 l0 -100 Z" /><glyph glyph-name="amacron" unicode="&#x101;" d="M531 6 q-33 -14 -62 -14 q-39 0 -62 21 q-23 21 -26 52 q-19 -33 -62 -55.5 q-43 -22.5 -96 -22.5 q-89 0 -138.5 47.5 q-49.5 47.5 -49.5 115.5 q0 72 49.5 115 q49.5 43 126.5 48 l153 11 l0 32 q0 40 -19 61 q-19 21 -69 21 q-90 0 -95 -74 l-121 0 q5 84 64.5 126.5 q59.5 42.5 151.5 42.5 q154 0 195 -106 q15 -38 15 -105 l0 -193 q0 -18 6.5 -25.5 q6.5 -7.5 22.5 -7.5 l16 2 l0 -92 ZM364 207 l0 24 l-132 -10 q-31 -2 -53 -20 q-22 -18 -22 -48 q0 -29 22 -47 q22 -18 52 -18 q60 0 96.5 31.5 q36.5 31.5 36.5 87.5 ZM441 611 l-320 0 l0 100 l320 0 l0 -100 Z" /><glyph glyph-name="Abreve" unicode="&#x102;" d="M639 0 l-135 0 l-46 136 l-282 0 l-46 -136 l-130 0 l249 709 l141 0 l249 -709 ZM418 252 l-101 299 l-101 -299 l202 0 ZM488 939 q-6 -81 -49 -128 q-43 -47 -120 -47 q-77 0 -119.5 47 q-42.5 47 -48.5 128 l94 0 q5 -44 22.5 -64 q17.5 -20 51.5 -20 q34 0 52 20 q18 20 23 64 l94 0 Z" /><glyph glyph-name="abreve" unicode="&#x103;" d="M531 6 q-33 -14 -62 -14 q-39 0 -62 21 q-23 21 -26 52 q-19 -33 -62 -55.5 q-43 -22.5 -96 -22.5 q-89 0 -138.5 47.5 q-49.5 47.5 -49.5 115.5 q0 72 49.5 115 q49.5 43 126.5 48 l153 11 l0 32 q0 40 -19 61 q-19 21 -69 21 q-90 0 -95 -74 l-121 0 q5 84 64.5 126.5 q59.5 42.5 151.5 42.5 q154 0 195 -106 q15 -38 15 -105 l0 -193 q0 -18 6.5 -25.5 q6.5 -7.5 22.5 -7.5 l16 2 l0 -92 ZM364 207 l0 24 l-132 -10 q-31 -2 -53 -20 q-22 -18 -22 -48 q0 -29 22 -47 q22 -18 52 -18 q60 0 96.5 31.5 q36.5 31.5 36.5 87.5 ZM449 747 q-6 -81 -49 -128 q-43 -47 -120 -47 q-77 0 -119.5 47 q-42.5 47 -48.5 128 l94 0 q5 -44 22.5 -64 q17.5 -20 51.5 -20 q34 0 52 20 q18 20 23 64 l94 0 Z" /><glyph glyph-name="Aogonek" unicode="&#x104;" d="M467 -91 q0 54 47 91 l-10 0 l-46 136 l-282 0 l-46 -136 l-130 0 l249 709 l141 0 l249 -709 q-30 -11 -53 -33 q-23 -22 -23 -42 q0 -15 9.5 -24.5 q9.5 -9.5 25.5 -9.5 l10 0 l31 3 l0 -82 q-28 -7 -52 -7 l-8 0 q-47 0 -79.5 30.5 q-32.5 30.5 -32.5 73.5 ZM418 252 l-101 299 l-101 -299 l202 0 Z" /><glyph glyph-name="aogonek" unicode="&#x105;" d="M531 0 q-30 -11 -53 -33 q-23 -22 -23 -42 q0 -15 9.5 -24.5 q9.5 -9.5 25.5 -9.5 l10 0 l31 3 l0 -82 q-28 -7 -52 -7 l-8 0 q-47 0 -79.5 30.5 q-32.5 30.5 -32.5 73.5 q0 62 57 97 q-32 21 -35 59 q-19 -33 -62 -55.5 q-43 -22.5 -96 -22.5 q-89 0 -138.5 47.5 q-49.5 47.5 -49.5 115.5 q0 72 49.5 115 q49.5 43 126.5 48 l153 11 l0 32 q0 40 -19 61 q-19 21 -69 21 q-90 0 -95 -74 l-121 0 q5 84 64.5 126.5 q59.5 42.5 151.5 42.5 q154 0 195 -106 q15 -38 15 -105 l0 -193 q0 -18 6.5 -25.5 q6.5 -7.5 22.5 -7.5 l16 2 l0 -98 ZM364 207 l0 24 l-132 -10 q-31 -2 -53 -20 q-22 -18 -22 -48 q0 -29 22 -47 q22 -18 52 -18 q60 0 96.5 31.5 q36.5 31.5 36.5 87.5 Z" /><glyph glyph-name="Cacute" unicode="&#x106;" d="M600 226 q-10 -96 -68 -155 q-82 -84 -203 -84 q-122 0 -201 79 q-53 53 -70.5 120.5 q-17.5 67.5 -17.5 167.5 q0 100 17.5 167.5 q17.5 67.5 70.5 120.5 q80 80 201 80 q123 0 203 -82 q58 -59 68 -154 l-132 0 q-4 41 -32 75 q-35 44 -107 44 q-65 0 -109 -47 q-23 -24 -34.5 -64 q-11.5 -40 -13 -67 q-1.5 -27 -1.5 -73 q0 -46 1.5 -73 q1.5 -27 13 -67 q11.5 -40 34.5 -64 q44 -47 109 -47 q71 0 107 45 q28 34 32 78 l132 0 ZM484 876 l-200 -112 l-40 65 l184 138 l56 -91 Z" /><glyph glyph-name="cacute" unicode="&#x107;" d="M498 184 q-3 -65 -40 -113 q-66 -82 -178 -82 q-56 0 -104 23.5 q-48 23.5 -77 58.5 q-57 72 -57 190 q0 118 57 190 q29 35 77 58.5 q48 23.5 104 23.5 q112 0 178 -82 q37 -48 40 -113 l-123 0 q-1 26 -15 48 q-25 39 -80 39 q-46 0 -76 -32 q-35 -39 -35 -132 q0 -93 35 -131 q31 -33 76 -33 q55 0 80 39 q14 22 15 48 l123 0 ZM458 678 l-200 -112 l-40 65 l184 138 l56 -91 Z" /><glyph glyph-name="Ccircumflex" unicode="&#x108;" d="M600 226 q-10 -96 -68 -155 q-82 -84 -203 -84 q-122 0 -201 79 q-53 53 -70.5 120.5 q-17.5 67.5 -17.5 167.5 q0 100 17.5 167.5 q17.5 67.5 70.5 120.5 q80 80 201 80 q123 0 203 -82 q58 -59 68 -154 l-132 0 q-4 41 -32 75 q-35 44 -107 44 q-65 0 -109 -47 q-23 -24 -34.5 -64 q-11.5 -40 -13 -67 q-1.5 -27 -1.5 -73 q0 -46 1.5 -73 q1.5 -27 13 -67 q11.5 -40 34.5 -64 q44 -47 109 -47 q71 0 107 45 q28 34 32 78 l132 0 ZM164 833 l122 116 l77 0 l120 -116 l-59 -58 l-99 96 l-101 -99 l-60 61 Z" /><glyph glyph-name="ccircumflex" unicode="&#x109;" d="M498 184 q-3 -65 -40 -113 q-66 -82 -178 -82 q-56 0 -104 23.5 q-48 23.5 -77 58.5 q-57 72 -57 190 q0 118 57 190 q29 35 77 58.5 q48 23.5 104 23.5 q112 0 178 -82 q37 -48 40 -113 l-123 0 q-1 26 -15 48 q-25 39 -80 39 q-46 0 -76 -32 q-35 -39 -35 -132 q0 -93 35 -131 q31 -33 76 -33 q55 0 80 39 q14 22 15 48 l123 0 ZM114 633 l122 116 l77 0 l120 -116 l-59 -58 l-99 96 l-101 -99 l-60 61 Z" /><glyph glyph-name="Cdotaccent" unicode="&#x10a;" d="M600 226 q-10 -96 -68 -155 q-82 -84 -203 -84 q-122 0 -201 79 q-53 53 -70.5 120.5 q-17.5 67.5 -17.5 167.5 q0 100 17.5 167.5 q17.5 67.5 70.5 120.5 q80 80 201 80 q123 0 203 -82 q58 -59 68 -154 l-132 0 q-4 41 -32 75 q-35 44 -107 44 q-65 0 -109 -47 q-23 -24 -34.5 -64 q-11.5 -40 -13 -67 q-1.5 -27 -1.5 -73 q0 -46 1.5 -73 q1.5 -27 13 -67 q11.5 -40 34.5 -64 q44 -47 109 -47 q71 0 107 45 q28 34 32 78 l132 0 ZM392 791 l-117 0 l0 121 l117 0 l0 -121 Z" /><glyph glyph-name="cdotaccent" unicode="&#x10b;" d="M498 184 q-3 -65 -40 -113 q-66 -82 -178 -82 q-56 0 -104 23.5 q-48 23.5 -77 58.5 q-57 72 -57 190 q0 118 57 190 q29 35 77 58.5 q48 23.5 104 23.5 q112 0 178 -82 q37 -48 40 -113 l-123 0 q-1 26 -15 48 q-25 39 -80 39 q-46 0 -76 -32 q-35 -39 -35 -132 q0 -93 35 -131 q31 -33 76 -33 q55 0 80 39 q14 22 15 48 l123 0 ZM334 601 l-117 0 l0 121 l117 0 l0 -121 Z" /><glyph glyph-name="Ccaron" unicode="&#x10c;" d="M600 226 q-10 -96 -68 -155 q-82 -84 -203 -84 q-122 0 -201 79 q-53 53 -70.5 120.5 q-17.5 67.5 -17.5 167.5 q0 100 17.5 167.5 q17.5 67.5 70.5 120.5 q80 80 201 80 q123 0 203 -82 q58 -59 68 -154 l-132 0 q-4 41 -32 75 q-35 44 -107 44 q-65 0 -109 -47 q-23 -24 -34.5 -64 q-11.5 -40 -13 -67 q-1.5 -27 -1.5 -73 q0 -46 1.5 -73 q1.5 -27 13 -67 q11.5 -40 34.5 -64 q44 -47 109 -47 q71 0 107 45 q28 34 32 78 l132 0 ZM288 772 l-122 101 l53 63 l107 -87 l105 86 l54 -62 l-120 -101 l-77 0 Z" /><glyph glyph-name="ccaron" unicode="&#x10d;" d="M498 184 q-3 -65 -40 -113 q-66 -82 -178 -82 q-56 0 -104 23.5 q-48 23.5 -77 58.5 q-57 72 -57 190 q0 118 57 190 q29 35 77 58.5 q48 23.5 104 23.5 q112 0 178 -82 q37 -48 40 -113 l-123 0 q-1 26 -15 48 q-25 39 -80 39 q-46 0 -76 -32 q-35 -39 -35 -132 q0 -93 35 -131 q31 -33 76 -33 q55 0 80 39 q14 22 15 48 l123 0 ZM227 572 l-122 116 l60 61 l101 -99 l99 96 l59 -58 l-120 -116 l-77 0 Z" /><glyph glyph-name="Dcaron" unicode="&#x10e;" d="M641 355 q0 -90 -16.5 -159 q-16.5 -69 -66.5 -120 q-73 -76 -199 -76 l-276 0 l0 709 l276 0 q126 0 199 -76 q50 -51 66.5 -120 q16.5 -69 16.5 -158 ZM508 283.5 q2 27.5 2 71.5 q0 44 -2 71.5 q-2 27.5 -14 65.5 q-12 38 -35 61 q-40 40 -100 40 l-147 0 l0 -477 l147 0 q60 0 100 40 q23 23 35 61.5 q12 38.5 14 66 ZM278 772 l-122 101 l53 63 l107 -87 l105 86 l54 -62 l-120 -101 l-77 0 Z" /><glyph glyph-name="dcaron" unicode="&#x10f;" d="M523 0 l-108 0 l-8 57 q-45 -69 -146 -69 q-73 0 -127 44 q-92 76 -92 227 q0 155 93 232 q52 42 127 42 q96 0 136 -49 l0 238 l125 0 l0 -722 ZM404 261 q0 167 -118 167 q-52 0 -84 -41 q-33 -43 -33 -126 q0 -84 33 -127 q32 -41 84 -41 q118 0 118 168 ZM658 622 q0 -50 -16 -79 q-16 -29 -60 -49 l-24 47 q28 15 36.5 28.5 q8.5 13.5 8.5 43.5 l-50 0 l0 109 l105 0 l0 -100 Z" /><glyph glyph-name="Dcroat" unicode="&#x110;" d="M641 355 q0 -90 -16.5 -159 q-16.5 -69 -66.5 -120 q-73 -76 -199 -76 l-276 0 l0 326 l-63 0 l0 84 l63 0 l0 299 l276 0 q126 0 199 -76 q50 -51 66.5 -120 q16.5 -69 16.5 -158 ZM508 283.5 q2 27.5 2 71.5 q0 44 -2 71.5 q-2 27.5 -14 65.5 q-12 38 -35 61 q-40 40 -100 40 l-147 0 l0 -183 l131 0 l0 -84 l-131 0 l0 -210 l147 0 q60 0 100 40 q23 23 35 61.5 q12 38.5 14 66 Z" /><glyph glyph-name="dcroat" unicode="&#x111;" d="M523 0 l-108 0 l-8 57 q-45 -69 -146 -69 q-73 0 -127 44 q-92 76 -92 227 q0 155 93 232 q52 42 127 42 q96 0 136 -49 l0 83 l-176 0 l0 84 l176 0 l0 71 l125 0 l0 -71 l51 0 l0 -84 l-51 0 l0 -567 ZM404 261 q0 167 -118 167 q-52 0 -84 -41 q-33 -43 -33 -126 q0 -84 33 -127 q32 -41 84 -41 q118 0 118 168 Z" /><glyph glyph-name="Emacron" unicode="&#x112;" d="M588 0 l-505 0 l0 709 l505 0 l0 -117 l-376 0 l0 -165 l331 0 l0 -116 l-331 0 l0 -194 l376 0 l0 -117 ZM476 764 l-300 0 l0 100 l300 0 l0 -100 Z" /><glyph glyph-name="emacron" unicode="&#x113;" d="M518 256 q-1 -24 -1 -35 l-348 0 q-2 -64 38 -102 q34 -32 77 -32 q51 0 76 25 q18 18 25 44 l120 0 q-5 -49 -44 -96 q-62 -73 -175 -73 q-97 0 -164 64 q-80 77 -80 208 q0 131 75 208 q64 66 166 66 q126 0 190 -96 q48 -73 45 -181 ZM393 312 q-1 57 -32 91 q-28 30 -79 30 q-57 0 -87 -40 q-26 -33 -27 -81 l225 0 ZM438 611 l-320 0 l0 100 l320 0 l0 -100 Z" /><glyph glyph-name="Edotaccent" unicode="&#x116;" d="M588 0 l-505 0 l0 709 l505 0 l0 -117 l-376 0 l0 -165 l331 0 l0 -116 l-331 0 l0 -194 l376 0 l0 -117 ZM394 791 l-117 0 l0 121 l117 0 l0 -121 Z" /><glyph glyph-name="edotaccent" unicode="&#x117;" d="M518 256 q-1 -24 -1 -35 l-348 0 q-2 -64 38 -102 q34 -32 77 -32 q51 0 76 25 q18 18 25 44 l120 0 q-5 -49 -44 -96 q-62 -73 -175 -73 q-97 0 -164 64 q-80 77 -80 208 q0 131 75 208 q64 66 166 66 q126 0 190 -96 q48 -73 45 -181 ZM393 312 q-1 57 -32 91 q-28 30 -79 30 q-57 0 -87 -40 q-26 -33 -27 -81 l225 0 ZM337 601 l-117 0 l0 121 l117 0 l0 -121 Z" /><glyph glyph-name="Eogonek" unicode="&#x118;" d="M416 -91 q0 54 47 91 l-380 0 l0 709 l505 0 l0 -117 l-376 0 l0 -165 l331 0 l0 -116 l-331 0 l0 -194 l376 0 l0 -117 q-30 -11 -53 -33 q-23 -22 -23 -42 q0 -15 9.5 -24.5 q9.5 -9.5 25.5 -9.5 l10 0 l31 3 l0 -82 q-28 -7 -52 -7 l-8 0 q-47 0 -79.5 30.5 q-32.5 30.5 -32.5 73.5 Z" /><glyph glyph-name="eogonek" unicode="&#x119;" d="M518 256 q-1 -24 -1 -35 l-348 0 q-2 -64 38 -102 q34 -32 77 -32 q51 0 76 25 q18 18 25 44 l120 0 q-5 -49 -44 -96 l-6 -7 l-1 -1 q-41 -49 -50 -74 q-8 -21 -8 -44 q0 -43 35 -43 l10 0 l31 3 l0 -82 q-28 -7 -52 -7 l-8 0 q-47 0 -79.5 30.5 q-32.5 30.5 -32.5 73.5 q0 48 34 82 q-32 -4 -48 -4 q-97 0 -164 64 q-80 77 -80 208 q0 131 75 208 q64 66 166 66 q126 0 190 -96 q48 -73 45 -181 ZM393 312 q-1 57 -32 91 q-28 30 -79 30 q-57 0 -87 -40 q-26 -33 -27 -81 l225 0 Z" /><glyph glyph-name="Ecaron" unicode="&#x11a;" d="M588 0 l-505 0 l0 709 l505 0 l0 -117 l-376 0 l0 -165 l331 0 l0 -116 l-331 0 l0 -194 l376 0 l0 -117 ZM298 772 l-122 101 l53 63 l107 -87 l105 86 l54 -62 l-120 -101 l-77 0 Z" /><glyph glyph-name="ecaron" unicode="&#x11b;" d="M518 256 q-1 -24 -1 -35 l-348 0 q-2 -64 38 -102 q34 -32 77 -32 q51 0 76 25 q18 18 25 44 l120 0 q-5 -49 -44 -96 q-62 -73 -175 -73 q-97 0 -164 64 q-80 77 -80 208 q0 131 75 208 q64 66 166 66 q126 0 190 -96 q48 -73 45 -181 ZM393 312 q-1 57 -32 91 q-28 30 -79 30 q-57 0 -87 -40 q-26 -33 -27 -81 l225 0 ZM244 572 l-122 116 l60 61 l101 -99 l99 96 l59 -58 l-120 -116 l-77 0 Z" /><glyph glyph-name="Gcircumflex" unicode="&#x11c;" d="M621 0 l-83 0 l-15 78 q-18 -34 -67 -62 q-49 -28 -111 -29 q-134 -2 -211 79 q-52 54 -72 123.5 q-20 69.5 -20 164.5 q0 97 19 164 q19 67 73 121 q40 40 96.5 61.5 q56.5 21.5 114.5 21.5 q131 0 210 -81 q60 -61 65 -143 l-132 0 q-2 30 -31 65 q-37 43 -113 43 q-71 0 -116 -48 q-55 -57 -55 -204 q0 -149 56 -207 q42 -45 115 -45 q67 0 106 41 q46 48 46 138 l-169 0 l0 107 l294 0 l0 -388 ZM177 833 l122 116 l77 0 l120 -116 l-59 -58 l-99 96 l-101 -99 l-60 61 Z" /><glyph glyph-name="gcircumflex" unicode="&#x11d;" d="M536 -69 q0 -49 -22.5 -84.5 q-22.5 -35.5 -60.5 -54 q-38 -18.5 -79.5 -27 q-41.5 -8.5 -88.5 -8.5 q-123 0 -184 43 q-63 44 -63 114 q0 75 62 106 q-24 13 -38 38 q-14 25 -14 51 q0 67 62 105 q-52 52 -52 128 q0 90 60.5 140.5 q60.5 50.5 152.5 50.5 q64 0 118 -32 q32 65 106 65 q26 0 34 -2 l0 -97 q-1 0 -5 0.5 q-4 0.5 -5 0.5 q-52 0 -63 -33 q27 -44 27 -94 q0 -86 -62 -137.5 q-62 -51.5 -150 -51.5 q-44 0 -84 14 q-26 -15 -26 -37 q0 -38 57 -38 l86 0 q119 0 169 -35 q63 -43 63 -125 ZM338 272.5 q25 26.5 25 69.5 q0 43 -25 70 q-25 27 -67 27 q-42 0 -67 -27 q-25 -27 -25 -70 q0 -43 25 -69.5 q25 -26.5 67 -26.5 q42 0 67 26.5 ZM418 -72 q0 23 -11.5 37 q-11.5 14 -34 19.5 q-22.5 5.5 -38 6.5 q-15.5 1 -40.5 1 l-98 0 q-47 -14 -47 -64 q0 -72 131 -72 q138 0 138 72 ZM117 633 l122 116 l77 0 l120 -116 l-59 -58 l-99 96 l-101 -99 l-60 61 Z" /><glyph glyph-name="Gbreve" unicode="&#x11e;" d="M621 0 l-83 0 l-15 78 q-18 -34 -67 -62 q-49 -28 -111 -29 q-134 -2 -211 79 q-52 54 -72 123.5 q-20 69.5 -20 164.5 q0 97 19 164 q19 67 73 121 q40 40 96.5 61.5 q56.5 21.5 114.5 21.5 q131 0 210 -81 q60 -61 65 -143 l-132 0 q-2 30 -31 65 q-37 43 -113 43 q-71 0 -116 -48 q-55 -57 -55 -204 q0 -149 56 -207 q42 -45 115 -45 q67 0 106 41 q46 48 46 138 l-169 0 l0 107 l294 0 l0 -388 ZM510 939 q-6 -81 -49 -128 q-43 -47 -120 -47 q-77 0 -119.5 47 q-42.5 47 -48.5 128 l94 0 q5 -44 22.5 -64 q17.5 -20 51.5 -20 q34 0 52 20 q18 20 23 64 l94 0 Z" /><glyph glyph-name="gbreve" unicode="&#x11f;" d="M536 -69 q0 -49 -22.5 -84.5 q-22.5 -35.5 -60.5 -54 q-38 -18.5 -79.5 -27 q-41.5 -8.5 -88.5 -8.5 q-123 0 -184 43 q-63 44 -63 114 q0 75 62 106 q-24 13 -38 38 q-14 25 -14 51 q0 67 62 105 q-52 52 -52 128 q0 90 60.5 140.5 q60.5 50.5 152.5 50.5 q64 0 118 -32 q32 65 106 65 q26 0 34 -2 l0 -97 q-1 0 -5 0.5 q-4 0.5 -5 0.5 q-52 0 -63 -33 q27 -44 27 -94 q0 -86 -62 -137.5 q-62 -51.5 -150 -51.5 q-44 0 -84 14 q-26 -15 -26 -37 q0 -38 57 -38 l86 0 q119 0 169 -35 q63 -43 63 -125 ZM338 272.5 q25 26.5 25 69.5 q0 43 -25 70 q-25 27 -67 27 q-42 0 -67 -27 q-25 -27 -25 -70 q0 -43 25 -69.5 q25 -26.5 67 -26.5 q42 0 67 26.5 ZM418 -72 q0 23 -11.5 37 q-11.5 14 -34 19.5 q-22.5 5.5 -38 6.5 q-15.5 1 -40.5 1 l-98 0 q-47 -14 -47 -64 q0 -72 131 -72 q138 0 138 72 ZM434 747 q-6 -81 -49 -128 q-43 -47 -120 -47 q-77 0 -119.5 47 q-42.5 47 -48.5 128 l94 0 q5 -44 22.5 -64 q17.5 -20 51.5 -20 q34 0 52 20 q18 20 23 64 l94 0 Z" /><glyph glyph-name="Gdotaccent" unicode="&#x120;" d="M621 0 l-83 0 l-15 78 q-18 -34 -67 -62 q-49 -28 -111 -29 q-134 -2 -211 79 q-52 54 -72 123.5 q-20 69.5 -20 164.5 q0 97 19 164 q19 67 73 121 q40 40 96.5 61.5 q56.5 21.5 114.5 21.5 q131 0 210 -81 q60 -61 65 -143 l-132 0 q-2 30 -31 65 q-37 43 -113 43 q-71 0 -116 -48 q-55 -57 -55 -204 q0 -149 56 -207 q42 -45 115 -45 q67 0 106 41 q46 48 46 138 l-169 0 l0 107 l294 0 l0 -388 ZM400 791 l-117 0 l0 121 l117 0 l0 -121 Z" /><glyph glyph-name="gdotaccent" unicode="&#x121;" d="M536 -69 q0 -49 -22.5 -84.5 q-22.5 -35.5 -60.5 -54 q-38 -18.5 -79.5 -27 q-41.5 -8.5 -88.5 -8.5 q-123 0 -184 43 q-63 44 -63 114 q0 75 62 106 q-24 13 -38 38 q-14 25 -14 51 q0 67 62 105 q-52 52 -52 128 q0 90 60.5 140.5 q60.5 50.5 152.5 50.5 q64 0 118 -32 q32 65 106 65 q26 0 34 -2 l0 -97 q-1 0 -5 0.5 q-4 0.5 -5 0.5 q-52 0 -63 -33 q27 -44 27 -94 q0 -86 -62 -137.5 q-62 -51.5 -150 -51.5 q-44 0 -84 14 q-26 -15 -26 -37 q0 -38 57 -38 l86 0 q119 0 169 -35 q63 -43 63 -125 ZM338 272.5 q25 26.5 25 69.5 q0 43 -25 70 q-25 27 -67 27 q-42 0 -67 -27 q-25 -27 -25 -70 q0 -43 25 -69.5 q25 -26.5 67 -26.5 q42 0 67 26.5 ZM418 -72 q0 23 -11.5 37 q-11.5 14 -34 19.5 q-22.5 5.5 -38 6.5 q-15.5 1 -40.5 1 l-98 0 q-47 -14 -47 -64 q0 -72 131 -72 q138 0 138 72 ZM334 601 l-117 0 l0 121 l117 0 l0 -121 Z" /><glyph glyph-name="Gcommaaccent" unicode="&#x122;" d="M621 0 l-83 0 l-15 78 q-18 -34 -67 -62 q-49 -28 -111 -29 q-134 -2 -211 79 q-52 54 -72 123.5 q-20 69.5 -20 164.5 q0 97 19 164 q19 67 73 121 q40 40 96.5 61.5 q56.5 21.5 114.5 21.5 q131 0 210 -81 q60 -61 65 -143 l-132 0 q-2 30 -31 65 q-37 43 -113 43 q-71 0 -116 -48 q-55 -57 -55 -204 q0 -149 56 -207 q42 -45 115 -45 q67 0 106 41 q46 48 46 138 l-169 0 l0 107 l294 0 l0 -388 ZM395 -123 q0 -40 -25.5 -64.5 q-25.5 -24.5 -52.5 -32.5 l-21 36 q45 15 45 53 l-52 0 l0 89 l106 0 l0 -81 Z" /><glyph glyph-name="gcommaaccent" unicode="&#x123;" d="M536 -69 q0 -49 -22.5 -84.5 q-22.5 -35.5 -60.5 -54 q-38 -18.5 -79.5 -27 q-41.5 -8.5 -88.5 -8.5 q-123 0 -184 43 q-63 44 -63 114 q0 75 62 106 q-24 13 -38 38 q-14 25 -14 51 q0 67 62 105 q-52 52 -52 128 q0 90 60.5 140.5 q60.5 50.5 152.5 50.5 q64 0 118 -32 q32 65 106 65 q26 0 34 -2 l0 -97 q-1 0 -5 0.5 q-4 0.5 -5 0.5 q-52 0 -63 -33 q27 -44 27 -94 q0 -86 -62 -137.5 q-62 -51.5 -150 -51.5 q-44 0 -84 14 q-26 -15 -26 -37 q0 -38 57 -38 l86 0 q119 0 169 -35 q63 -43 63 -125 ZM338 272.5 q25 26.5 25 69.5 q0 43 -25 70 q-25 27 -67 27 q-42 0 -67 -27 q-25 -27 -25 -70 q0 -43 25 -69.5 q25 -26.5 67 -26.5 q42 0 67 26.5 ZM418 -72 q0 23 -11.5 37 q-11.5 14 -34 19.5 q-22.5 5.5 -38 6.5 q-15.5 1 -40.5 1 l-98 0 q-47 -14 -47 -64 q0 -72 131 -72 q138 0 138 72 ZM220 653 q0 40 25.5 64.5 q25.5 24.5 52.5 32.5 l21 -36 q-45 -15 -45 -53 l52 0 l0 -89 l-106 0 l0 81 Z" /><glyph glyph-name="Hcircumflex" unicode="&#x124;" d="M632 0 l-129 0 l0 309 l-291 0 l0 -309 l-129 0 l0 709 l129 0 l0 -277 l291 0 l0 277 l129 0 l0 -709 ZM193 833 l122 116 l77 0 l120 -116 l-59 -58 l-99 96 l-101 -99 l-60 61 Z" /><glyph glyph-name="hcircumflex" unicode="&#x125;" d="M521 0 l-125 0 l0 321 q0 48 -19.5 72.5 q-19.5 24.5 -66.5 24.5 q-52 0 -79.5 -44.5 q-27.5 -44.5 -27.5 -99.5 l0 -274 l-125 0 l0 722 l125 0 l0 -257 q22 32 61 50 q39 18 81 18 q82 0 129 -52 q47 -52 47 -134 l0 -347 ZM67 808 l122 116 l77 0 l120 -116 l-59 -58 l-99 96 l-101 -99 l-60 61 Z" /><glyph glyph-name="Hbar" unicode="&#x126;" d="M632 0 l-129 0 l0 309 l-291 0 l0 -309 l-129 0 l0 524 l-62 0 l0 84 l62 0 l0 101 l129 0 l0 -101 l291 0 l0 101 l129 0 l0 -101 l61 0 l0 -84 l-61 0 l0 -524 ZM212 432 l291 0 l0 92 l-291 0 l0 -92 Z" /><glyph glyph-name="hbar" unicode="&#x127;" d="M521 0 l-125 0 l0 321 q0 48 -19.5 72.5 q-19.5 24.5 -66.5 24.5 q-52 0 -79.5 -44.5 q-27.5 -44.5 -27.5 -99.5 l0 -274 l-125 0 l0 561 l-50 0 l0 84 l50 0 l0 77 l125 0 l0 -77 l177 0 l0 -84 l-177 0 l0 -96 q22 32 61 50 q39 18 81 18 q82 0 129 -52 q47 -52 47 -134 l0 -347 Z" /><glyph glyph-name="Imacron" unicode="&#x12a;" d="M214 0 l-131 0 l0 709 l131 0 l0 -709 ZM298 764 l-300 0 l0 100 l300 0 l0 -100 Z" /><glyph glyph-name="imacron" unicode="&#x12b;" d="M207 0 l-127 0 l0 520 l127 0 l0 -520 ZM303 611 l-320 0 l0 100 l320 0 l0 -100 Z" /><glyph glyph-name="Iogonek" unicode="&#x12e;" d="M42 -91 q0 54 47 91 l-6 0 l0 709 l131 0 l0 -709 q-30 -11 -53 -33 q-23 -22 -23 -42 q0 -15 9.5 -24.5 q9.5 -9.5 25.5 -9.5 l10 0 l31 3 l0 -82 q-28 -7 -52 -7 l-8 0 q-47 0 -79.5 30.5 q-32.5 30.5 -32.5 73.5 Z" /><glyph glyph-name="iogonek" unicode="&#x12f;" d="M35 -91 q0 54 47 91 l-2 0 l0 520 l127 0 l0 -520 q-30 -11 -53 -33 q-23 -22 -23 -42 q0 -15 9.5 -24.5 q9.5 -9.5 25.5 -9.5 l10 0 l31 3 l0 -82 q-28 -7 -52 -7 l-8 0 q-47 0 -79.5 30.5 q-32.5 30.5 -32.5 73.5 ZM210 592 l-134 0 l0 129 l134 0 l0 -129 Z" /><glyph glyph-name="Idotaccent" unicode="&#x130;" d="M214 0 l-131 0 l0 709 l131 0 l0 -709 ZM206 791 l-117 0 l0 121 l117 0 l0 -121 Z" /><glyph glyph-name="dotlessi" unicode="&#x131;" d="M207 0 l-127 0 l0 520 l127 0 l0 -520 Z" /><glyph glyph-name="Jcircumflex" unicode="&#x134;" d="M428 207 q0 -102 -57 -161.5 q-57 -59.5 -158 -59.5 q-95 0 -151 58 q-62 63 -62 178 l125 0 q0 -67 26 -95 q24 -26 62 -26 q42 0 64 25.5 q22 25.5 22 70.5 l0 512 l129 0 l0 -502 ZM110 833 l122 116 l77 0 l120 -116 l-59 -58 l-99 96 l-101 -99 l-60 61 Z" /><glyph glyph-name="jcircumflex" unicode="&#x135;" d="M217 -72 q0 -67 -38.5 -106 q-38.5 -39 -107.5 -39 q-28 0 -44 2 q-28 4 -57 11 l0 106 q56 -6 61 -6 q60 0 60 56 l0 568 l126 0 l0 -592 ZM-10 633 l122 116 l77 0 l120 -116 l-59 -58 l-99 96 l-101 -99 l-60 61 Z" /><glyph glyph-name="Kcommaaccent" unicode="&#x136;" d="M678 0 l-152 0 l-192 335 l-122 -143 l0 -192 l-129 0 l0 709 l129 0 l0 -327 l283 327 l157 0 l-228 -268 l254 -441 ZM403 -123 q0 -40 -25.5 -64.5 q-25.5 -24.5 -52.5 -32.5 l-21 36 q45 15 45 53 l-52 0 l0 89 l106 0 l0 -81 Z" /><glyph glyph-name="kcommaaccent" unicode="&#x137;" d="M577 0 l-145 0 l-146 227 l-83 -90 l0 -137 l-125 0 l0 722 l125 0 l0 -413 l197 211 l157 0 l-186 -201 l206 -319 ZM362 -123 q0 -40 -25.5 -64.5 q-25.5 -24.5 -52.5 -32.5 l-21 36 q45 15 45 53 l-52 0 l0 89 l106 0 l0 -81 Z" /><glyph glyph-name="Lacute" unicode="&#x139;" d="M541 0 l-458 0 l0 709 l129 0 l0 -587 l329 0 l0 -122 ZM323 876 l-200 -112 l-40 65 l184 138 l56 -91 Z" /><glyph glyph-name="lacute" unicode="&#x13a;" d="M272 1 q-35 -7 -55 -7 q-67 0 -104.5 34 q-37.5 34 -37.5 106 l0 589 l126 0 l0 -568 q0 -25 10 -37.5 q10 -12.5 40 -12.5 q6 0 12 0.5 q6 0.5 9 0.5 l0 -105 ZM301 876 l-200 -112 l-40 65 l184 138 l56 -91 Z" /><glyph glyph-name="Lcommaaccent" unicode="&#x13b;" d="M541 0 l-458 0 l0 709 l129 0 l0 -587 l329 0 l0 -122 ZM361 -123 q0 -40 -25.5 -64.5 q-25.5 -24.5 -52.5 -32.5 l-21 36 q45 15 45 53 l-52 0 l0 89 l106 0 l0 -81 Z" /><glyph glyph-name="lcommaaccent" unicode="&#x13c;" d="M272 1 q-35 -7 -55 -7 q-67 0 -104.5 34 q-37.5 34 -37.5 106 l0 589 l126 0 l0 -568 q0 -25 10 -37.5 q10 -12.5 40 -12.5 q6 0 12 0.5 q6 0.5 9 0.5 l0 -105 ZM204 -123 q0 -40 -25.5 -64.5 q-25.5 -24.5 -52.5 -32.5 l-21 36 q45 15 45 53 l-52 0 l0 89 l106 0 l0 -81 Z" /><glyph glyph-name="Lcaron" unicode="&#x13d;" d="M541 0 l-458 0 l0 709 l129 0 l0 -587 l329 0 l0 -122 ZM385 662 q0 -50 -16 -79 q-16 -29 -60 -49 l-24 47 q28 15 36.5 28.5 q8.5 13.5 8.5 43.5 l-50 0 l0 109 l105 0 l0 -100 Z" /><glyph glyph-name="lcaron" unicode="&#x13e;" d="M272 1 q-35 -7 -55 -7 q-67 0 -104.5 34 q-37.5 34 -37.5 106 l0 589 l126 0 l0 -568 q0 -25 10 -37.5 q10 -12.5 40 -12.5 q6 0 12 0.5 q6 0.5 9 0.5 l0 -105 ZM336 622 q0 -50 -16 -79 q-16 -29 -60 -49 l-24 47 q28 15 36.5 28.5 q8.5 13.5 8.5 43.5 l-50 0 l0 109 l105 0 l0 -100 Z" /><glyph glyph-name="Lslash" unicode="&#x141;" d="M557 0 l-458 0 l0 274 l-53 -33 l-43 69 l96 60 l0 339 l129 0 l0 -258 l109 69 l44 -70 l-153 -95 l0 -233 l329 0 l0 -122 Z" /><glyph glyph-name="lslash" unicode="&#x142;" d="M373 464 l-109 -69 l0 -240 q0 -25 10 -37.5 q10 -12.5 40 -12.5 q6 0 12 0.5 q6 0.5 9 0.5 l0 -105 q-35 -7 -55 -7 q-67 0 -104.5 34 q-37.5 34 -37.5 106 l0 181 l-45 -28 l-43 69 l88 56 l0 311 l126 0 l0 -231 l65 41 l44 -69 Z" /><glyph glyph-name="Nacute" unicode="&#x143;" d="M650 0 l-133 0 l-307 487 l0 -487 l-127 0 l0 709 l137 0 l303 -480 l0 480 l127 0 l0 -709 ZM526 876 l-200 -112 l-40 65 l184 138 l56 -91 Z" /><glyph glyph-name="nacute" unicode="&#x144;" d="M521 0 l-125 0 l0 319 q0 49 -19.5 73.5 q-19.5 24.5 -66.5 24.5 q-60 0 -90 -66 q-17 -39 -17 -139 l0 -212 l-125 0 l0 520 l105 0 l9 -67 q22 39 63.5 59.5 q41.5 20.5 89.5 20.5 q82 0 129 -51.5 q47 -51.5 47 -134.5 l0 -347 ZM465 678 l-200 -112 l-40 65 l184 138 l56 -91 Z" /><glyph glyph-name="Ncommaaccent" unicode="&#x145;" d="M650 0 l-133 0 l-307 487 l0 -487 l-127 0 l0 709 l137 0 l303 -480 l0 480 l127 0 l0 -709 ZM430 -123 q0 -40 -25.5 -64.5 q-25.5 -24.5 -52.5 -32.5 l-21 36 q45 15 45 53 l-52 0 l0 89 l106 0 l0 -81 Z" /><glyph glyph-name="ncommaaccent" unicode="&#x146;" d="M521 0 l-125 0 l0 319 q0 49 -19.5 73.5 q-19.5 24.5 -66.5 24.5 q-60 0 -90 -66 q-17 -39 -17 -139 l0 -212 l-125 0 l0 520 l105 0 l9 -67 q22 39 63.5 59.5 q41.5 20.5 89.5 20.5 q82 0 129 -51.5 q47 -51.5 47 -134.5 l0 -347 ZM356 -123 q0 -40 -25.5 -64.5 q-25.5 -24.5 -52.5 -32.5 l-21 36 q45 15 45 53 l-52 0 l0 89 l106 0 l0 -81 Z" /><glyph glyph-name="Ncaron" unicode="&#x147;" d="M650 0 l-133 0 l-307 487 l0 -487 l-127 0 l0 709 l137 0 l303 -480 l0 480 l127 0 l0 -709 ZM323 772 l-122 101 l53 63 l107 -87 l105 86 l54 -62 l-120 -101 l-77 0 Z" /><glyph glyph-name="ncaron" unicode="&#x148;" d="M521 0 l-125 0 l0 319 q0 49 -19.5 73.5 q-19.5 24.5 -66.5 24.5 q-60 0 -90 -66 q-17 -39 -17 -139 l0 -212 l-125 0 l0 520 l105 0 l9 -67 q22 39 63.5 59.5 q41.5 20.5 89.5 20.5 q82 0 129 -51.5 q47 -51.5 47 -134.5 l0 -347 ZM263 572 l-122 116 l60 61 l101 -99 l99 96 l59 -58 l-120 -116 l-77 0 Z" /><glyph glyph-name="Omacron" unicode="&#x14c;" d="M630 354 q0 -98 -18.5 -166 q-18.5 -68 -71.5 -121 q-80 -80 -204 -80 q-124 0 -204 80 q-53 53 -71.5 121 q-18.5 68 -18.5 166 q0 99 18.5 167 q18.5 68 71.5 121 q80 80 204 80 q124 0 204 -80 q53 -53 71.5 -121 q18.5 -68 18.5 -167 ZM499 354 q0 151 -51 204 q-44 47 -112 47 q-68 0 -112 -47 q-51 -53 -51 -204 q0 -43 2 -72 q2 -29 14 -68 q12 -39 35 -63 q44 -47 112 -47 q68 0 112 47 q23 24 35 63 q12 39 14 68 q2 29 2 72 ZM486 764 l-300 0 l0 100 l300 0 l0 -100 Z" /><glyph glyph-name="omacron" unicode="&#x14d;" d="M467 452 q61 -77 61 -192 q0 -115 -61 -192 q-29 -35 -77.5 -58 q-48.5 -23 -104.5 -23 q-56 0 -104.5 23 q-48.5 23 -77.5 58 q-61 77 -61 192 q0 115 61 192 q29 35 77.5 58 q48.5 23 104.5 23 q56 0 104.5 -23 q48.5 -23 77.5 -58 ZM364 129 q37 41 37 131 q0 90 -37 131 q-31 33 -79 33 q-48 0 -79 -33 q-37 -41 -37 -131 q0 -90 37 -131 q31 -33 79 -33 q48 0 79 33 ZM445 611 l-320 0 l0 100 l320 0 l0 -100 Z" /><glyph glyph-name="Ohungarumlaut" unicode="&#x150;" d="M630 354 q0 -98 -18.5 -166 q-18.5 -68 -71.5 -121 q-80 -80 -204 -80 q-124 0 -204 80 q-53 53 -71.5 121 q-18.5 68 -18.5 166 q0 99 18.5 167 q18.5 68 71.5 121 q80 80 204 80 q124 0 204 -80 q53 -53 71.5 -121 q18.5 -68 18.5 -167 ZM499 354 q0 151 -51 204 q-44 47 -112 47 q-68 0 -112 -47 q-51 -53 -51 -204 q0 -43 2 -72 q2 -29 14 -68 q12 -39 35 -63 q44 -47 112 -47 q68 0 112 47 q23 24 35 63 q12 39 14 68 q2 29 2 72 ZM605 881 l-202 -117 l-42 65 l185 144 l59 -92 ZM390 881 l-202 -117 l-42 65 l185 144 l59 -92 Z" /><glyph glyph-name="ohungarumlaut" unicode="&#x151;" d="M467 452 q61 -77 61 -192 q0 -115 -61 -192 q-29 -35 -77.5 -58 q-48.5 -23 -104.5 -23 q-56 0 -104.5 23 q-48.5 23 -77.5 58 q-61 77 -61 192 q0 115 61 192 q29 35 77.5 58 q48.5 23 104.5 23 q56 0 104.5 -23 q48.5 -23 77.5 -58 ZM364 129 q37 41 37 131 q0 90 -37 131 q-31 33 -79 33 q-48 0 -79 -33 q-37 -41 -37 -131 q0 -90 37 -131 q31 -33 79 -33 q48 0 79 33 ZM554 683 l-202 -117 l-42 65 l185 144 l59 -92 ZM339 683 l-202 -117 l-42 65 l185 144 l59 -92 Z" /><glyph glyph-name="OE" unicode="&#x152;" d="M990 0 l-505 0 l0 36 q-65 -49 -157 -49 q-127 0 -205 80 q-50 52 -65.5 121.5 q-15.5 69.5 -15.5 166.5 q0 97 15 166 q15 69 66 121 q78 80 205 80 q43 0 87.5 -14 q44.5 -14 69.5 -35 l0 36 l505 0 l0 -117 l-376 0 l0 -165 l331 0 l0 -116 l-331 0 l0 -194 l376 0 l0 -117 ZM483 342 q0 9 0 13 q0 4 0 13 q0 46 -1.5 72 q-1.5 26 -13 63.5 q-11.5 37.5 -34.5 60.5 q-41 41 -106 41 q-65 0 -106 -41 q-23 -23 -34.5 -60.5 q-11.5 -37.5 -13 -63.5 q-1.5 -26 -1.5 -72 q0 -9 0 -13 q0 -4 0 -13 q0 -46 1.5 -72.5 q1.5 -26.5 13 -64 q11.5 -37.5 34.5 -60.5 q41 -41 106 -41 q65 0 106 41 q23 23 34.5 61 q11.5 38 13 63.5 q1.5 25.5 1.5 72.5 Z" /><glyph glyph-name="oe" unicode="&#x153;" d="M865 256 q-1 -24 -1 -35 l-344 0 q-2 -68 38 -106 q33 -31 73 -31 q50 0 77 27 q18 18 25 45 l120 0 q-5 -49 -44 -96 q-62 -73 -174 -73 q-96 0 -163 64 l-13 13 q-29 -34 -76 -55.5 q-47 -21.5 -102 -21.5 q-56 0 -104.5 23.5 q-48.5 23.5 -77.5 58.5 q-57 72 -57 190 q0 120 58 193 q29 35 77 58 q48 23 104 23 q55 0 101.5 -21.5 q46.5 -21.5 75.5 -54.5 l9 9 q65 67 165 67 q125 0 189 -97 q47 -71 44 -180 ZM393 259 q0 96 -34 133 q-31 33 -78 33 q-47 0 -78 -33 q-34 -37 -34 -133 q0 -95 34 -132 q31 -33 78 -33 q47 0 78 33 q34 37 34 132 ZM740 312 q-2 60 -31 92 q-28 30 -78 30 q-56 0 -86 -40 q-25 -31 -26 -82 l221 0 Z" /><glyph glyph-name="Racute" unicode="&#x154;" d="M628 0 l-140 0 l-118 268 l-157 0 l0 -268 l-130 0 l0 709 l299 0 q120 0 183 -63.5 q63 -63.5 63 -156.5 q0 -70 -35.5 -123.5 q-35.5 -53.5 -94.5 -75.5 l130 -290 ZM499 489 q0 45 -32 76 q-32 31 -85 31 l-170 0 l0 -212 l172 0 q55 0 85 27.5 q30 27.5 30 77.5 ZM459 876 l-200 -112 l-40 65 l184 138 l56 -91 Z" /><glyph glyph-name="racute" unicode="&#x155;" d="M381 404 q-23 5 -43 5 q-64 0 -99 -41 q-35 -41 -35 -106 l0 -262 l-126 0 l0 520 l106 0 l11 -78 q17 43 57.5 64 q40.5 21 89.5 21 q20 0 39 -3 l0 -120 ZM397 678 l-200 -112 l-40 65 l184 138 l56 -91 Z" /><glyph glyph-name="Rcommaaccent" unicode="&#x156;" d="M628 0 l-140 0 l-118 268 l-157 0 l0 -268 l-130 0 l0 709 l299 0 q120 0 183 -63.5 q63 -63.5 63 -156.5 q0 -70 -35.5 -123.5 q-35.5 -53.5 -94.5 -75.5 l130 -290 ZM499 489 q0 45 -32 76 q-32 31 -85 31 l-170 0 l0 -212 l172 0 q55 0 85 27.5 q30 27.5 30 77.5 ZM402 -123 q0 -40 -25.5 -64.5 q-25.5 -24.5 -52.5 -32.5 l-21 36 q45 15 45 53 l-52 0 l0 89 l106 0 l0 -81 Z" /><glyph glyph-name="rcommaaccent" unicode="&#x157;" d="M381 404 q-23 5 -43 5 q-64 0 -99 -41 q-35 -41 -35 -106 l0 -262 l-126 0 l0 520 l106 0 l11 -78 q17 43 57.5 64 q40.5 21 89.5 21 q20 0 39 -3 l0 -120 ZM196 -123 q0 -40 -25.5 -64.5 q-25.5 -24.5 -52.5 -32.5 l-21 36 q45 15 45 53 l-52 0 l0 89 l106 0 l0 -81 Z" /><glyph glyph-name="Rcaron" unicode="&#x158;" d="M628 0 l-140 0 l-118 268 l-157 0 l0 -268 l-130 0 l0 709 l299 0 q120 0 183 -63.5 q63 -63.5 63 -156.5 q0 -70 -35.5 -123.5 q-35.5 -53.5 -94.5 -75.5 l130 -290 ZM499 489 q0 45 -32 76 q-32 31 -85 31 l-170 0 l0 -212 l172 0 q55 0 85 27.5 q30 27.5 30 77.5 ZM286 772 l-122 101 l53 63 l107 -87 l105 86 l54 -62 l-120 -101 l-77 0 Z" /><glyph glyph-name="rcaron" unicode="&#x159;" d="M381 404 q-23 5 -43 5 q-64 0 -99 -41 q-35 -41 -35 -106 l0 -262 l-126 0 l0 520 l106 0 l11 -78 q17 43 57.5 64 q40.5 21 89.5 21 q20 0 39 -3 l0 -120 ZM195 572 l-122 116 l60 61 l101 -99 l99 96 l59 -58 l-120 -116 l-77 0 Z" /><glyph glyph-name="Sacute" unicode="&#x15a;" d="M599 211 q0 -89 -59 -148 q-76 -76 -224 -76 q-132 0 -212 73 q-74 67 -74 165 l132 0 q0 -50 37 -87 q38 -38 119 -38 q86 0 123 38 q28 30 28 68 q0 69 -84 84 q-25 5 -80 10 q-55 5 -77 9 q-79 13 -129.5 63.5 q-50.5 50.5 -50.5 134.5 q0 78 62 140 q36 35 91 55 q55 20 117 20 q124 0 198 -69 q71 -67 72 -151 l-132 0 q-2 39 -31 70 q-17 17 -47.5 27.5 q-30.5 10.5 -60.5 10.5 q-77 0 -115 -39 q-24 -26 -24 -60 q0 -65 72 -77 q25 -4 81 -10 q56 -6 73 -8 q85 -12 140 -65 q55 -53 55 -140 ZM476 876 l-200 -112 l-40 65 l184 138 l56 -91 Z" /><glyph glyph-name="sacute" unicode="&#x15b;" d="M482 161 q0 -69 -45 -114 q-60 -60 -178 -60 q-105 0 -168 60 q-55 53 -55 121 l117 0 q0 -38 28 -61 q29 -23 79 -23 q106 0 106 66 q0 47 -52 55 q-12 2 -64.5 8 q-52.5 6 -79.5 12 q-53 11 -86 50 q-33 39 -33 89 q0 71 53 117 q60 52 158 52 q106 0 163 -61 q46 -49 46 -107 l-119 0 q0 26 -21 49 q-24 24 -68 24 q-35 0 -54 -8 q-40 -16 -40 -55 q0 -43 60 -52 q83 -11 111 -15 q64 -10 103 -48.5 q39 -38.5 39 -98.5 ZM420 678 l-200 -112 l-40 65 l184 138 l56 -91 Z" /><glyph glyph-name="Scircumflex" unicode="&#x15c;" d="M599 211 q0 -89 -59 -148 q-76 -76 -224 -76 q-132 0 -212 73 q-74 67 -74 165 l132 0 q0 -50 37 -87 q38 -38 119 -38 q86 0 123 38 q28 30 28 68 q0 69 -84 84 q-25 5 -80 10 q-55 5 -77 9 q-79 13 -129.5 63.5 q-50.5 50.5 -50.5 134.5 q0 78 62 140 q36 35 91 55 q55 20 117 20 q124 0 198 -69 q71 -67 72 -151 l-132 0 q-2 39 -31 70 q-17 17 -47.5 27.5 q-30.5 10.5 -60.5 10.5 q-77 0 -115 -39 q-24 -26 -24 -60 q0 -65 72 -77 q25 -4 81 -10 q56 -6 73 -8 q85 -12 140 -65 q55 -53 55 -140 ZM157 833 l122 116 l77 0 l120 -116 l-59 -58 l-99 96 l-101 -99 l-60 61 Z" /><glyph glyph-name="scircumflex" unicode="&#x15d;" d="M482 161 q0 -69 -45 -114 q-60 -60 -178 -60 q-105 0 -168 60 q-55 53 -55 121 l117 0 q0 -38 28 -61 q29 -23 79 -23 q106 0 106 66 q0 47 -52 55 q-12 2 -64.5 8 q-52.5 6 -79.5 12 q-53 11 -86 50 q-33 39 -33 89 q0 71 53 117 q60 52 158 52 q106 0 163 -61 q46 -49 46 -107 l-119 0 q0 26 -21 49 q-24 24 -68 24 q-35 0 -54 -8 q-40 -16 -40 -55 q0 -43 60 -52 q83 -11 111 -15 q64 -10 103 -48.5 q39 -38.5 39 -98.5 ZM103 633 l122 116 l77 0 l120 -116 l-59 -58 l-99 96 l-101 -99 l-60 61 Z" /><glyph glyph-name="Scedilla" unicode="&#x15e;" d="M599 211 q0 -89 -59 -148 q-76 -76 -224 -76 q-132 0 -212 73 q-74 67 -74 165 l132 0 q0 -50 37 -87 q38 -38 119 -38 q86 0 123 38 q28 30 28 68 q0 69 -84 84 q-25 5 -80 10 q-55 5 -77 9 q-79 13 -129.5 63.5 q-50.5 50.5 -50.5 134.5 q0 78 62 140 q36 35 91 55 q55 20 117 20 q124 0 198 -69 q71 -67 72 -151 l-132 0 q-2 39 -31 70 q-17 17 -47.5 27.5 q-30.5 10.5 -60.5 10.5 q-77 0 -115 -39 q-24 -26 -24 -60 q0 -65 72 -77 q25 -4 81 -10 q56 -6 73 -8 q85 -12 140 -65 q55 -53 55 -140 ZM376 -44 l-76 -199 l-104 49 l83 150 l97 0 Z" /><glyph glyph-name="scedilla" unicode="&#x15f;" d="M482 161 q0 -69 -45 -114 q-60 -60 -178 -60 q-105 0 -168 60 q-55 53 -55 121 l117 0 q0 -38 28 -61 q29 -23 79 -23 q106 0 106 66 q0 47 -52 55 q-12 2 -64.5 8 q-52.5 6 -79.5 12 q-53 11 -86 50 q-33 39 -33 89 q0 71 53 117 q60 52 158 52 q106 0 163 -61 q46 -49 46 -107 l-119 0 q0 26 -21 49 q-24 24 -68 24 q-35 0 -54 -8 q-40 -16 -40 -55 q0 -43 60 -52 q83 -11 111 -15 q64 -10 103 -48.5 q39 -38.5 39 -98.5 ZM320 -44 l-76 -199 l-104 49 l83 150 l97 0 Z" /><glyph glyph-name="Scaron" unicode="&#x160;" d="M276 772 l-122 101 l53 63 l107 -87 l105 86 l54 -62 l-120 -101 l-77 0 ZM599 211 q0 -89 -59 -148 q-76 -76 -224 -76 q-132 0 -212 73 q-74 67 -74 165 l132 0 q0 -50 37 -87 q38 -38 119 -38 q86 0 123 38 q28 30 28 68 q0 69 -84 84 q-25 5 -80 10 q-55 5 -77 9 q-79 13 -129.5 63.5 q-50.5 50.5 -50.5 134.5 q0 78 62 140 q36 35 91 55 q55 20 117 20 q124 0 198 -69 q71 -67 72 -151 l-132 0 q-2 39 -31 70 q-17 17 -47.5 27.5 q-30.5 10.5 -60.5 10.5 q-77 0 -115 -39 q-24 -26 -24 -60 q0 -65 72 -77 q25 -4 81 -10 q56 -6 73 -8 q85 -12 140 -65 q55 -53 55 -140 Z" /><glyph glyph-name="scaron" unicode="&#x161;" d="M482 161 q0 -69 -45 -114 q-60 -60 -178 -60 q-105 0 -168 60 q-55 53 -55 121 l117 0 q0 -38 28 -61 q29 -23 79 -23 q106 0 106 66 q0 47 -52 55 q-12 2 -64.5 8 q-52.5 6 -79.5 12 q-53 11 -86 50 q-33 39 -33 89 q0 71 53 117 q60 52 158 52 q106 0 163 -61 q46 -49 46 -107 l-119 0 q0 26 -21 49 q-24 24 -68 24 q-35 0 -54 -8 q-40 -16 -40 -55 q0 -43 60 -52 q83 -11 111 -15 q64 -10 103 -48.5 q39 -38.5 39 -98.5 ZM228 572 l-122 116 l60 61 l101 -99 l99 96 l59 -58 l-120 -116 l-77 0 Z" /><glyph glyph-name="Tcommaaccent" unicode="&#x162;" d="M555 589 l-210 0 l0 -589 l-129 0 l0 589 l-210 0 l0 120 l549 0 l0 -120 ZM333 -123 q0 -40 -25.5 -64.5 q-25.5 -24.5 -52.5 -32.5 l-21 36 q45 15 45 53 l-52 0 l0 89 l106 0 l0 -81 Z" /><glyph glyph-name="tcommaaccent" unicode="&#x163;" d="M372 7 q-54 -14 -107 -14 q-77 0 -117 42 q-40 42 -40 118 l0 264 l-95 0 l0 103 l95 0 l0 132 l125 31 l0 -163 l131 0 l0 -103 l-131 0 l0 -253 q0 -57 58 -57 q39 0 81 5 l0 -105 ZM253 -123 q0 -40 -25.5 -64.5 q-25.5 -24.5 -52.5 -32.5 l-21 36 q45 15 45 53 l-52 0 l0 89 l106 0 l0 -81 Z" /><glyph glyph-name="Tcaron" unicode="&#x164;" d="M555 589 l-210 0 l0 -589 l-129 0 l0 589 l-210 0 l0 120 l549 0 l0 -120 ZM237 772 l-122 101 l53 63 l107 -87 l105 86 l54 -62 l-120 -101 l-77 0 Z" /><glyph glyph-name="tcaron" unicode="&#x165;" d="M372 7 q-54 -14 -107 -14 q-77 0 -117 42 q-40 42 -40 118 l0 264 l-95 0 l0 103 l95 0 l0 132 l125 31 l0 -163 l131 0 l0 -103 l-131 0 l0 -253 q0 -57 58 -57 q39 0 81 5 l0 -105 ZM392 702 q0 -50 -16 -79 q-16 -29 -60 -49 l-24 47 q28 15 36.5 28.5 q8.5 13.5 8.5 43.5 l-50 0 l0 109 l105 0 l0 -100 Z" /><glyph glyph-name="Umacron" unicode="&#x16a;" d="M619 272 q0 -130 -72 -207.5 q-72 -77.5 -206 -77.5 q-134 0 -206 77.5 q-72 77.5 -72 207.5 l0 437 l129 0 l0 -435 q0 -79 37 -124.5 q37 -45.5 112 -45.5 q75 0 112 45.5 q37 45.5 37 124.5 l0 435 l129 0 l0 -437 ZM491 764 l-300 0 l0 100 l300 0 l0 -100 Z" /><glyph glyph-name="umacron" unicode="&#x16b;" d="M512 0 l-104 0 l-9 68 q-19 -38 -59 -59.5 q-40 -21.5 -90 -21.5 q-83 0 -131.5 51 q-48.5 51 -48.5 135 l0 347 l125 0 l0 -319 q0 -99 90 -99 q38 0 64 26 q38 35 38 117 l0 275 l125 0 l0 -520 ZM455 611 l-320 0 l0 100 l320 0 l0 -100 Z" /><glyph glyph-name="Ubreve" unicode="&#x16c;" d="M619 272 q0 -130 -72 -207.5 q-72 -77.5 -206 -77.5 q-134 0 -206 77.5 q-72 77.5 -72 207.5 l0 437 l129 0 l0 -435 q0 -79 37 -124.5 q37 -45.5 112 -45.5 q75 0 112 45.5 q37 45.5 37 124.5 l0 435 l129 0 l0 -437 ZM509 939 q-6 -81 -49 -128 q-43 -47 -120 -47 q-77 0 -119.5 47 q-42.5 47 -48.5 128 l94 0 q5 -44 22.5 -64 q17.5 -20 51.5 -20 q34 0 52 20 q18 20 23 64 l94 0 Z" /><glyph glyph-name="ubreve" unicode="&#x16d;" d="M512 0 l-104 0 l-9 68 q-19 -38 -59 -59.5 q-40 -21.5 -90 -21.5 q-83 0 -131.5 51 q-48.5 51 -48.5 135 l0 347 l125 0 l0 -319 q0 -99 90 -99 q38 0 64 26 q38 35 38 117 l0 275 l125 0 l0 -520 ZM463 747 q-6 -81 -49 -128 q-43 -47 -120 -47 q-77 0 -119.5 47 q-42.5 47 -48.5 128 l94 0 q5 -44 22.5 -64 q17.5 -20 51.5 -20 q34 0 52 20 q18 20 23 64 l94 0 Z" /><glyph glyph-name="Uring" unicode="&#x16e;" d="M619 272 q0 -130 -72 -207.5 q-72 -77.5 -206 -77.5 q-134 0 -206 77.5 q-72 77.5 -72 207.5 l0 437 l129 0 l0 -435 q0 -79 37 -124.5 q37 -45.5 112 -45.5 q75 0 112 45.5 q37 45.5 37 124.5 l0 435 l129 0 l0 -437 ZM427.5 923 q35.5 -35 35.5 -86 q0 -51 -35.5 -86.5 q-35.5 -35.5 -86.5 -35.5 q-51 0 -86.5 35.5 q-35.5 35.5 -35.5 86.5 q0 51 35.5 86 q35.5 35 86.5 35 q51 0 86.5 -35 ZM378.5 799.5 q15.5 15.5 15.5 37.5 q0 22 -15.5 37 q-15.5 15 -37.5 15 q-22 0 -37 -15 q-15 -15 -15 -37 q0 -22 15 -37.5 q15 -15.5 37 -15.5 q22 0 37.5 15.5 Z" /><glyph glyph-name="uring" unicode="&#x16f;" d="M512 0 l-104 0 l-9 68 q-19 -38 -59 -59.5 q-40 -21.5 -90 -21.5 q-83 0 -131.5 51 q-48.5 51 -48.5 135 l0 347 l125 0 l0 -319 q0 -99 90 -99 q38 0 64 26 q38 35 38 117 l0 275 l125 0 l0 -520 ZM381.5 796 q35.5 -35 35.5 -86 q0 -51 -35.5 -86.5 q-35.5 -35.5 -86.5 -35.5 q-51 0 -86.5 35.5 q-35.5 35.5 -35.5 86.5 q0 51 35.5 86 q35.5 35 86.5 35 q51 0 86.5 -35 ZM332.5 672.5 q15.5 15.5 15.5 37.5 q0 22 -15.5 37 q-15.5 15 -37.5 15 q-22 0 -37 -15 q-15 -15 -15 -37 q0 -22 15 -37.5 q15 -15.5 37 -15.5 q22 0 37.5 15.5 Z" /><glyph glyph-name="Uhungarumlaut" unicode="&#x170;" d="M619 272 q0 -130 -72 -207.5 q-72 -77.5 -206 -77.5 q-134 0 -206 77.5 q-72 77.5 -72 207.5 l0 437 l129 0 l0 -435 q0 -79 37 -124.5 q37 -45.5 112 -45.5 q75 0 112 45.5 q37 45.5 37 124.5 l0 435 l129 0 l0 -437 ZM620 881 l-202 -117 l-42 65 l185 144 l59 -92 ZM405 881 l-202 -117 l-42 65 l185 144 l59 -92 Z" /><glyph glyph-name="uhungarumlaut" unicode="&#x171;" d="M512 0 l-104 0 l-9 68 q-19 -38 -59 -59.5 q-40 -21.5 -90 -21.5 q-83 0 -131.5 51 q-48.5 51 -48.5 135 l0 347 l125 0 l0 -319 q0 -99 90 -99 q38 0 64 26 q38 35 38 117 l0 275 l125 0 l0 -520 ZM554 683 l-202 -117 l-42 65 l185 144 l59 -92 ZM339 683 l-202 -117 l-42 65 l185 144 l59 -92 Z" /><glyph glyph-name="Uogonek" unicode="&#x172;" d="M619 272 q0 -145 -86 -222 q-21 -25 -29.5 -35.5 q-8.5 -10.5 -18 -33.5 q-9.5 -23 -9.5 -47 q0 -43 35 -43 l10 0 l31 3 l0 -82 q-28 -7 -52 -7 l-8 0 q-47 0 -79.5 30.5 q-32.5 30.5 -32.5 73.5 q0 51 39 86 q-38 -8 -78 -8 q-134 0 -206 77.5 q-72 77.5 -72 207.5 l0 437 l129 0 l0 -435 q0 -79 37 -124.5 q37 -45.5 112 -45.5 q75 0 112 45.5 q37 45.5 37 124.5 l0 435 l129 0 l0 -437 Z" /><glyph glyph-name="uogonek" unicode="&#x173;" d="M340 -91 q0 66 66 103 l-7 56 q-19 -38 -59 -59.5 q-40 -21.5 -90 -21.5 q-83 0 -131.5 51 q-48.5 51 -48.5 135 l0 347 l125 0 l0 -319 q0 -99 90 -99 q38 0 64 26 q38 35 38 117 l0 275 l125 0 l0 -520 q-30 -11 -53 -33 q-23 -22 -23 -42 q0 -15 9.5 -24.5 q9.5 -9.5 25.5 -9.5 l10 0 l31 3 l0 -82 q-28 -7 -52 -7 l-8 0 q-47 0 -79.5 30.5 q-32.5 30.5 -32.5 73.5 Z" /><glyph glyph-name="Wcircumflex" unicode="&#x174;" d="M855 709 l-141 -709 l-129 0 l-148 489 l-148 -489 l-129 0 l-143 709 l123 0 l99 -493 l146 482 l108 0 l143 -482 l101 493 l118 0 ZM282 833 l122 116 l77 0 l120 -116 l-59 -58 l-99 96 l-101 -99 l-60 61 Z" /><glyph glyph-name="wcircumflex" unicode="&#x175;" d="M748 520 l-127 -520 l-116 0 l-118 351 l-116 -351 l-116 0 l-132 520 l121 0 l83 -341 l109 336 l103 0 l110 -335 l80 340 l119 0 ZM226 633 l122 116 l77 0 l120 -116 l-59 -58 l-99 96 l-101 -99 l-60 61 Z" /><glyph glyph-name="Ycircumflex" unicode="&#x176;" d="M624 709 l-248 -437 l0 -272 l-130 0 l0 272 l-246 437 l140 0 l175 -306 l175 306 l134 0 ZM152 833 l122 116 l77 0 l120 -116 l-59 -58 l-99 96 l-101 -99 l-60 61 Z" /><glyph glyph-name="ycircumflex" unicode="&#x177;" d="M530 520 l-229 -609 q-50 -130 -160 -130 q-46 0 -96 13 l0 104 q49 -9 70 -9 q44 0 60 39 l30 73 l-205 519 l137 0 l136 -376 l130 376 l127 0 ZM115 633 l122 116 l77 0 l120 -116 l-59 -58 l-99 96 l-101 -99 l-60 61 Z" /><glyph glyph-name="Ydieresis" unicode="&#x178;" d="M624 709 l-248 -437 l0 -272 l-130 0 l0 272 l-246 437 l140 0 l175 -306 l175 306 l134 0 ZM477 779 l-117 0 l0 121 l117 0 l0 -121 ZM271 779 l-117 0 l0 121 l117 0 l0 -121 Z" /><glyph glyph-name="Zacute" unicode="&#x179;" d="M584 0 l-555 0 l0 127 l391 465 l-385 0 l0 117 l544 0 l0 -127 l-388 -465 l393 0 l0 -117 ZM437 876 l-200 -112 l-40 65 l184 138 l56 -91 Z" /><glyph glyph-name="zacute" unicode="&#x17a;" d="M468 0 l-424 0 l0 110 l275 307 l-273 0 l0 103 l420 0 l0 -113 l-272 -304 l274 0 l0 -103 ZM393 678 l-200 -112 l-40 65 l184 138 l56 -91 Z" /><glyph glyph-name="Zdotaccent" unicode="&#x17b;" d="M584 0 l-555 0 l0 127 l391 465 l-385 0 l0 117 l544 0 l0 -127 l-388 -465 l393 0 l0 -117 ZM363 791 l-117 0 l0 121 l117 0 l0 -121 Z" /><glyph glyph-name="zdotaccent" unicode="&#x17c;" d="M468 0 l-424 0 l0 110 l275 307 l-273 0 l0 103 l420 0 l0 -113 l-272 -304 l274 0 l0 -103 ZM312 601 l-117 0 l0 121 l117 0 l0 -121 Z" /><glyph glyph-name="Zcaron" unicode="&#x17d;" d="M584 0 l-555 0 l0 127 l391 465 l-385 0 l0 117 l544 0 l0 -127 l-388 -465 l393 0 l0 -117 ZM271 772 l-122 101 l53 63 l107 -87 l105 86 l54 -62 l-120 -101 l-77 0 Z" /><glyph glyph-name="zcaron" unicode="&#x17e;" d="M468 0 l-424 0 l0 110 l275 307 l-273 0 l0 103 l420 0 l0 -113 l-272 -304 l274 0 l0 -103 ZM224 572 l-122 116 l60 61 l101 -99 l99 96 l59 -58 l-120 -116 l-77 0 Z" /><glyph glyph-name="florin" unicode="&#x192;" d="M499 608 q-28 6 -43 6 q-42 0 -63 -16 q-21 -16 -31 -56 q-6 -27 -17 -91 l130 0 l0 -112 l-155 0 l-62 -310 q-15 -71 -59.5 -111 q-44.5 -40 -115.5 -40 q-43 0 -83 12 l0 106 q27 -6 55 -6 q40 0 58 18 q18 18 26 58 l55 273 l-94 0 l0 112 l117 0 l24 119 q14 70 61.5 112.5 q47.5 42.5 118.5 42.5 q26 0 78 -8 l0 -109 Z" /><glyph glyph-name="Scommaaccent" unicode="&#x218;" d="M599 211 q0 -89 -59 -148 q-76 -76 -224 -76 q-132 0 -212 73 q-74 67 -74 165 l132 0 q0 -50 37 -87 q38 -38 119 -38 q86 0 123 38 q28 30 28 68 q0 69 -84 84 q-25 5 -80 10 q-55 5 -77 9 q-79 13 -129.5 63.5 q-50.5 50.5 -50.5 134.5 q0 78 62 140 q36 35 91 55 q55 20 117 20 q124 0 198 -69 q71 -67 72 -151 l-132 0 q-2 39 -31 70 q-17 17 -47.5 27.5 q-30.5 10.5 -60.5 10.5 q-77 0 -115 -39 q-24 -26 -24 -60 q0 -65 72 -77 q25 -4 81 -10 q56 -6 73 -8 q85 -12 140 -65 q55 -53 55 -140 ZM375 -123 q0 -40 -25.5 -64.5 q-25.5 -24.5 -52.5 -32.5 l-21 36 q45 15 45 53 l-52 0 l0 89 l106 0 l0 -81 Z" /><glyph glyph-name="scommaaccent" unicode="&#x219;" d="M482 161 q0 -69 -45 -114 q-60 -60 -178 -60 q-105 0 -168 60 q-55 53 -55 121 l117 0 q0 -38 28 -61 q29 -23 79 -23 q106 0 106 66 q0 47 -52 55 q-12 2 -64.5 8 q-52.5 6 -79.5 12 q-53 11 -86 50 q-33 39 -33 89 q0 71 53 117 q60 52 158 52 q106 0 163 -61 q46 -49 46 -107 l-119 0 q0 26 -21 49 q-24 24 -68 24 q-35 0 -54 -8 q-40 -16 -40 -55 q0 -43 60 -52 q83 -11 111 -15 q64 -10 103 -48.5 q39 -38.5 39 -98.5 ZM313 -123 q0 -40 -25.5 -64.5 q-25.5 -24.5 -52.5 -32.5 l-21 36 q45 15 45 53 l-52 0 l0 89 l106 0 l0 -81 Z" /><glyph glyph-name="circumflex" unicode="&#x2c6;" d="M24 633 l122 116 l77 0 l120 -116 l-59 -58 l-99 96 l-101 -99 l-60 61 Z" /><glyph glyph-name="caron" unicode="&#x2c7;" d="M140 572 l-122 116 l60 61 l101 -99 l99 96 l59 -58 l-120 -116 l-77 0 Z" /><glyph glyph-name="breve" unicode="&#x2d8;" d="M346 747 q-6 -81 -49 -128 q-43 -47 -120 -47 q-77 0 -119.5 47 q-42.5 47 -48.5 128 l94 0 q5 -44 22.5 -64 q17.5 -20 51.5 -20 q34 0 52 20 q18 20 23 64 l94 0 Z" /><glyph glyph-name="dotaccent" unicode="&#x2d9;" d="M193 601 l-117 0 l0 121 l117 0 l0 -121 Z" /><glyph glyph-name="ring" unicode="&#x2da;" d="M212.5 796 q35.5 -35 35.5 -86 q0 -51 -35.5 -86.5 q-35.5 -35.5 -86.5 -35.5 q-51 0 -86.5 35.5 q-35.5 35.5 -35.5 86.5 q0 51 35.5 86 q35.5 35 86.5 35 q51 0 86.5 -35 ZM163.5 672.5 q15.5 15.5 15.5 37.5 q0 22 -15.5 37 q-15.5 15 -37.5 15 q-22 0 -37 -15 q-15 -15 -15 -37 q0 -22 15 -37.5 q15 -15.5 37 -15.5 q22 0 37.5 15.5 Z" /><glyph glyph-name="ogonek" unicode="&#x2db;" d="M33 -91 q0 76 91 115 l1 1 q12 4 19 13 q7 9 12 30 q15 -17 21.5 -29 q6.5 -12 6.5 -16.5 q0 -4.5 4.5 -10 q4.5 -5.5 16.5 -12.5 q-30 -11 -53 -33 q-23 -22 -23 -42 q0 -15 9.5 -24.5 q9.5 -9.5 25.5 -9.5 l10 0 l31 3 l0 -82 q-28 -7 -52 -7 l-8 0 q-47 0 -79.5 30.5 q-32.5 30.5 -32.5 73.5 Z" /><glyph glyph-name="tilde" unicode="&#x2dc;" d="M369 672 q-58 -60 -115 -60 q-30 0 -68 20.5 q-38 20.5 -53 20.5 q-34 0 -63 -33 l-51 64 q60 60 115 60 q29 0 67 -21 q38 -21 54 -21 q29 0 63 34 l51 -64 Z" /><glyph glyph-name="hungarumlaut" unicode="&#x2dd;" d="M504 683 l-202 -117 l-42 65 l185 144 l59 -92 ZM289 683 l-202 -117 l-42 65 l185 144 l59 -92 Z" /><glyph glyph-name="Delta" unicode="&#x394;&#x2206;" d="M539 364 q0 -41 -26.5 -67.5 q-26.5 -26.5 -66.5 -26.5 l-72 0 q17 -23 17 -54 q0 -40 -26.5 -66.5 q-26.5 -26.5 -66.5 -26.5 l-249 0 l0 248 q0 41 26.5 67.5 q26.5 26.5 66.5 26.5 q30 0 55 -17 l0 71 q0 41 26.5 67.5 q26.5 26.5 66.5 26.5 q40 0 66.5 -26.5 q26.5 -26.5 26.5 -67.5 l0 -62 l63 0 q40 0 66.5 -26.5 q26.5 -26.5 26.5 -66.5 ZM501 308.5 q21 21.5 21 55.5 q0 34 -21 55 q-21 21 -55 21 l-79 0 l0 79 q0 34 -21.5 55.5 q-21.5 21.5 -55.5 21.5 q-34 0 -55 -21.5 q-21 -21.5 -21 -55.5 l0 -232 l232 0 q34 0 55 21.5 Z" /><glyph glyph-name="pi" unicode="&#x3c0;" d="M581 1 q-48 -8 -67 -8 q-143 0 -143 145 l0 266 l-121 0 l0 -406 l-124 0 l0 406 l-76 0 l0 101 l520 0 l0 -101 l-75 0 l0 -248 q0 -26 10.5 -38 q10.5 -12 36.5 -12 q6 0 21 1 q15 1 18 1 l0 -107 Z" /><glyph glyph-name="Wgrave" unicode="&#x1e80;" d="M855 709 l-141 -709 l-129 0 l-148 489 l-148 -489 l-129 0 l-143 709 l123 0 l99 -493 l146 482 l108 0 l143 -482 l101 493 l118 0 ZM575 830 l-40 -65 l-200 112 l56 91 l184 -138 Z" /><glyph glyph-name="wgrave" unicode="&#x1e81;" d="M748 520 l-127 -520 l-116 0 l-118 351 l-116 -351 l-116 0 l-132 520 l121 0 l83 -341 l109 336 l103 0 l110 -335 l80 340 l119 0 ZM515 631 l-40 -65 l-200 112 l56 91 l184 -138 Z" /><glyph glyph-name="endash" unicode="&#x2013;" d="M599 252 l-539 0 l0 112 l539 0 l0 -112 Z" /><glyph glyph-name="emdash" unicode="&#x2014;" d="M1089 252 l-1029 0 l0 111 l1029 0 l0 -111 Z" /><glyph glyph-name="quoteleft" unicode="&#x2018;" d="M205 414 l-144 0 l0 135 q0 65 23 105.5 q23 40.5 82 65.5 l32 -58 q-38 -18 -51 -40.5 q-13 -22.5 -13 -61.5 l71 0 l0 -146 Z" /><glyph glyph-name="quoteright" unicode="&#x2019;" d="M196 573 q0 -65 -23 -105.5 q-23 -40.5 -82 -65.5 l-33 58 q38 18 51.5 40.5 q13.5 22.5 13.5 61.5 l-72 0 l0 147 l145 0 l0 -136 Z" /><glyph glyph-name="quotesinglbase" unicode="&#x201a;" d="M217 11 q0 -66 -23 -107.5 q-23 -41.5 -84 -66.5 l-33 59 q38 18 52 41 q14 23 14 63 l-73 0 l0 150 l147 0 l0 -139 Z" /><glyph glyph-name="quotedblleft" unicode="&#x201c;" d="M419 413 l-144 0 l0 135 q0 64 23.5 105 q23.5 41 82.5 66 l32 -58 q-38 -18 -51.5 -40.5 q-13.5 -22.5 -13.5 -61.5 l71 0 l0 -146 ZM207 413 l-143 0 l0 135 q0 65 22.5 105.5 q22.5 40.5 81.5 65.5 l32 -58 q-38 -18 -51.5 -40.5 q-13.5 -22.5 -13.5 -61.5 l72 0 l0 -146 Z" /><glyph glyph-name="quotedblright" unicode="&#x201d;" d="M409 574 q0 -65 -22.5 -105.5 q-22.5 -40.5 -81.5 -65.5 l-32 58 q38 18 51.5 40.5 q13.5 22.5 13.5 61.5 l-72 0 l0 146 l143 0 l0 -135 ZM198 574 q0 -64 -23.5 -105 q-23.5 -41 -82.5 -66 l-32 58 q38 18 51.5 40.5 q13.5 22.5 13.5 61.5 l-71 0 l0 146 l144 0 l0 -135 Z" /><glyph glyph-name="quotedblbase" unicode="&#x201e;" d="M434 11 q0 -66 -23 -107.5 q-23 -41.5 -84 -66.5 l-33 59 q38 18 52 41 q14 23 14 63 l-73 0 l0 150 l147 0 l0 -139 ZM217 11 q0 -66 -23 -107.5 q-23 -41.5 -84 -66.5 l-33 59 q38 18 52 41 q14 23 14 63 l-73 0 l0 150 l147 0 l0 -139 Z" /><glyph glyph-name="dagger" unicode="&#x2020;" d="M522 415 l-184 0 l0 -540 l-114 0 l0 540 l-184 0 l0 105 l184 0 l0 189 l114 0 l0 -189 l184 0 l0 -105 Z" /><glyph glyph-name="daggerdbl" unicode="&#x2021;" d="M522 64 l-184 0 l0 -189 l-114 0 l0 189 l-184 0 l0 105 l184 0 l0 246 l-184 0 l0 105 l184 0 l0 189 l114 0 l0 -189 l184 0 l0 -105 l-184 0 l0 -246 l184 0 l0 -105 Z" /><glyph glyph-name="bullet" unicode="&#x2022;" d="M315.5 391.5 q41.5 -41.5 41.5 -99.5 q0 -58 -41.5 -99.5 q-41.5 -41.5 -99.5 -41.5 q-58 0 -99.5 41.5 q-41.5 41.5 -41.5 99.5 q0 58 41.5 99.5 q41.5 41.5 99.5 41.5 q58 0 99.5 -41.5 Z" /><glyph glyph-name="ellipsis" unicode="&#x2026;" d="M907 0 l-145 0 l0 146 l145 0 l0 -146 ZM572 0 l-145 0 l0 146 l145 0 l0 -146 ZM237 0 l-145 0 l0 146 l145 0 l0 -146 Z" /><glyph glyph-name="perthousand" unicode="&#x2030;" d="M1117 286 q30 -43 30 -114 q0 -71 -30 -114 q-47 -69 -134 -69 q-86 0 -134 69 q-29 42 -29 114 q0 72 29 114 q49 68 134 68 q87 0 134 -68 ZM752 286 q30 -43 30 -114 q0 -71 -30 -114 q-47 -69 -134 -69 q-86 0 -134 69 q-29 42 -29 114 q0 72 29 114 q49 68 134 68 q87 0 134 -68 ZM702 670 l-507 -690 l-74 56 l505 687 l76 -53 ZM342 651 q30 -43 30 -114 q0 -71 -30 -114 q-48 -69 -134 -69 q-85 0 -134 69 q-29 42 -29 114 q0 72 29 114 q49 68 134 68 q87 0 134 -68 ZM1053 172 q0 100 -70 100 q-69 0 -69 -100 q0 -47 14.5 -74 q14.5 -27 54.5 -27 q70 0 70 101 ZM688 172 q0 46 -14.5 73 q-14.5 27 -55.5 27 q-69 0 -69 -100 q0 -47 14.5 -74 q14.5 -27 54.5 -27 q41 0 55.5 27 q14.5 27 14.5 74 ZM278 537 q0 101 -70 101 q-69 0 -69 -101 q0 -47 14.5 -74 q14.5 -27 54.5 -27 q41 0 55.5 27 q14.5 27 14.5 74 Z" /><glyph glyph-name="guilsinglleft" unicode="&#x2039;" d="M286 105 l-73 -51 l-173 244 l173 247 l73 -52 l-114 -194 l114 -194 Z" /><glyph glyph-name="guilsinglright" unicode="&#x203a;" d="M296 298 l-173 -244 l-73 51 l114 194 l-114 194 l73 52 l173 -247 Z" /><glyph glyph-name="fraction" unicode="&#x2044;" d="M584 670 l-507 -690 l-74 56 l505 687 l76 -53 Z" /><glyph glyph-name="Euro" unicode="&#x20ac;" d="M606 54 q-89 -67 -200 -67 q-126 0 -208 82 q-67 67 -85 169 l-78 0 l0 73 l70 0 q-1 12 -1 37 q0 6 0.5 17 q0.5 11 0.5 17 l-70 0 l0 73 l77 0 q19 105 86 172 q82 82 208 82 q111 0 200 -67 l-47 -101 q-72 55 -153 55 q-76 0 -123 -50 q-33 -35 -44 -91 l281 0 l-35 -73 l-254 0 l0 -71 l234 0 l-35 -73 l-191 0 q11 -52 44 -88 q47 -50 123 -50 q85 0 153 55 l47 -101 Z" /><glyph glyph-name="trademark" unicode="&#x2122;" d="M797 328 l-95 0 l0 256 l-78 -246 l-73 0 l-78 245 l0 -255 l-95 0 l0 381 l135 0 l77 -241 l76 241 l131 0 l0 -381 ZM326 624 l-110 0 l0 -296 l-96 0 l0 296 l-110 0 l0 85 l316 0 l0 -85 Z" /><glyph glyph-name="Omega" unicode="&#x2126;" d="M788 354 q0 -161 -104 -264 q-104 -103 -265 -103 q-161 0 -265 103 q-104 103 -104 264 q0 159 105 263.5 q105 104.5 264 104.5 q159 0 264 -104.5 q105 -104.5 105 -263.5 ZM617.5 152.5 q77.5 79.5 77.5 201.5 q0 122 -77 202 q-77 80 -199 80 q-122 0 -198.5 -79.5 q-76.5 -79.5 -76.5 -202.5 q0 -123 76 -202 q76 -79 199 -79 q121 0 198.5 79.5 ZM590 408 q0 -70 -40 -106 q-40 -36 -111 -36 l-51 0 l0 -104 l-100 0 l0 386 l151 0 q66 0 108.5 -37.5 q42.5 -37.5 42.5 -102.5 ZM493 408 q0 25 -14.5 38.5 q-14.5 13.5 -39.5 13.5 l-52 0 l0 -106 l52 0 q54 0 54 54 Z" /><glyph glyph-name="arrowleft" unicode="&#x2190;" d="M752 275 l-540 0 l204 -204 l-70 -70 l-321 323 l321 323 l70 -69 l-204 -205 l540 0 l0 -98 Z" /><glyph glyph-name="arrowright" unicode="&#x2192;" d="M772 323 l-321 -323 l-70 70 l204 204 l-540 0 l0 98 l540 0 l-204 205 l70 69 l321 -323 Z" /><glyph glyph-name="uni2196" unicode="&#x2196;" d="M590 232 l-69 -70 l-382 382 l0 -288 l-99 0 l0 453 l457 0 l0 -96 l-289 0 l382 -381 Z" /><glyph glyph-name="uni2197" unicode="&#x2197;" d="M585 256 l-99 0 l0 288 l-382 -382 l-69 70 l382 381 l-289 0 l0 96 l457 0 l0 -453 Z" /><glyph glyph-name="partialdiff" unicode="&#x2202;" d="M239 109 l0 438 l-153 -111 l0 136 l171 123 l107 0 l0 -586 l139 0 l0 -109 l-403 0 l0 109 l139 0 Z" /><glyph glyph-name="product" unicode="&#x220f;" d="M172 897 l-107 -107 l0 28 l79 79 l28 0 ZM372 897 l-307 -307 l0 27 l280 280 l27 0 ZM773 897 l-708 -708 l0 27 l681 681 l27 0 ZM572 897 l-507 -508 l0 28 l480 480 l27 0 ZM867 790 l-802 -801 l0 27 l802 802 l0 -28 ZM867 590 l-802 -802 l0 28 l802 801 l0 -27 ZM867 -212 l-82 -81 l-27 0 l109 109 l0 -28 ZM867 389 l-683 -682 l-27 0 l710 710 l0 -28 ZM867 -11 l-282 -282 l-27 0 l309 309 l0 -27 ZM867 189 l-482 -482 l-28 0 l510 509 l0 -27 Z" /><glyph glyph-name="summation" unicode="&#x2211;" d="M895 -99 l-837 0 l0 248 l84 0 l0 -162 l670 0 l0 162 l83 0 l0 -248 Z" /><glyph glyph-name="minus" unicode="&#x2212;" d="M599 252 l-539 0 l0 112 l539 0 l0 -112 Z" /><glyph glyph-name="radical" unicode="&#x221a;" d="M707 728 l-113 0 l-254 -736 l-106 0 l-189 528 l133 0 l109 -321 l211 633 l209 0 l0 -104 Z" /><glyph glyph-name="infinity" unicode="&#x221e;" d="M663 0 l-350 0 q-100 0 -165 51 q-65 51 -65 148 q0 49 29.5 98 q29.5 49 73.5 67 q-42 25 -66 65.5 q-24 40.5 -24 88.5 q0 93 65 142.5 q65 49.5 161 49.5 q59 0 99 -10 l0 -108 q-50 10 -91 10 q-46 0 -78 -23 q-32 -23 -32 -67 q0 -47 29.5 -70.5 q29.5 -23.5 77.5 -23.5 l116 0 l0 104 l117 0 l0 -104 l103 0 l0 -106 l-103 0 l0 -206 l103 0 l0 -106 ZM443 106 l0 206 l-121 0 q-52 0 -84 -28 q-32 -28 -32 -78 q0 -49 30.5 -74.5 q30.5 -25.5 80.5 -25.5 l126 0 Z" /><glyph glyph-name="integral" unicode="&#x222b;" d="M539 364 q0 -41 -26.5 -67.5 q-26.5 -26.5 -66.5 -26.5 l-72 0 q17 -23 17 -54 q0 -40 -26.5 -66.5 q-26.5 -26.5 -66.5 -26.5 l-249 0 l0 248 q0 41 26.5 67.5 q26.5 26.5 66.5 26.5 q30 0 55 -17 l0 71 q0 41 26.5 67.5 q26.5 26.5 66.5 26.5 q40 0 66.5 -26.5 q26.5 -26.5 26.5 -67.5 l0 -62 l63 0 q40 0 66.5 -26.5 q26.5 -26.5 26.5 -66.5 ZM501 308.5 q21 21.5 21 55.5 q0 34 -21 55 q-21 21 -55 21 l-79 0 l0 79 q0 34 -21.5 55.5 q-21.5 21.5 -55.5 21.5 q-34 0 -55 -21.5 q-21 -21.5 -21 -55.5 l0 -232 l232 0 q34 0 55 21.5 Z" /><glyph glyph-name="approxequal" unicode="&#x2248;" d="M580 377 q-30 -32 -49 -49 q-19 -17 -51 -32.5 q-32 -15.5 -66 -15.5 q-42 0 -104 30 l-45 20 q-23 10 -40 10 q-18 0 -37 -10 q-19 -10 -29.5 -19.5 q-10.5 -9.5 -27.5 -27.5 l-71 84 q30 32 49 49 q19 17 51 32.5 q32 15.5 66 15.5 q38 0 102 -29 q36 -16 45 -19 q25 -9 41 -9 q18 0 36.5 9 q18.5 9 29 18.5 q10.5 9.5 27.5 27.5 l73 -85 ZM580 157 q-29 -31 -49 -48.5 q-20 -17.5 -51.5 -32.5 q-31.5 -15 -65.5 -15 q-44 0 -104 29 l-45 21 q-21 9 -40 9 q-40 0 -94 -56 l-71 84 q29 31 49 48.5 q20 17.5 51.5 32.5 q31.5 15 65.5 15 q40 0 102 -28 q3 -2 20 -9.5 q17 -7.5 25 -10.5 q25 -9 41 -9 q18 0 36.5 9 q18.5 9 29 18.5 q10.5 9.5 27.5 27.5 l73 -85 Z" /><glyph glyph-name="notequal" unicode="&#x2260;" d="M600 129 l-339 0 l-101 -131 l-58 44 l67 87 l-79 0 l0 99 l155 0 l77 100 l-232 0 l0 98 l308 0 l97 126 l57 -45 l-62 -81 l110 0 l0 -98 l-186 0 l-77 -100 l263 0 l0 -99 Z" /><glyph glyph-name="lessequal" unicode="&#x2264;" d="M539 364 q0 -41 -26.5 -67.5 q-26.5 -26.5 -66.5 -26.5 l-72 0 q17 -23 17 -54 q0 -40 -26.5 -66.5 q-26.5 -26.5 -66.5 -26.5 l-249 0 l0 248 q0 41 26.5 67.5 q26.5 26.5 66.5 26.5 q30 0 55 -17 l0 71 q0 41 26.5 67.5 q26.5 26.5 66.5 26.5 q40 0 66.5 -26.5 q26.5 -26.5 26.5 -67.5 l0 -62 l63 0 q40 0 66.5 -26.5 q26.5 -26.5 26.5 -66.5 ZM501 308.5 q21 21.5 21 55.5 q0 34 -21 55 q-21 21 -55 21 l-79 0 l0 79 q0 34 -21.5 55.5 q-21.5 21.5 -55.5 21.5 q-34 0 -55 -21.5 q-21 -21.5 -21 -55.5 l0 -232 l232 0 q34 0 55 21.5 Z" /><glyph glyph-name="greaterequal" unicode="&#x2265;" d="M539 364 q0 -41 -26.5 -67.5 q-26.5 -26.5 -66.5 -26.5 l-72 0 q17 -23 17 -54 q0 -40 -26.5 -66.5 q-26.5 -26.5 -66.5 -26.5 l-249 0 l0 248 q0 41 26.5 67.5 q26.5 26.5 66.5 26.5 q30 0 55 -17 l0 71 q0 41 26.5 67.5 q26.5 26.5 66.5 26.5 q40 0 66.5 -26.5 q26.5 -26.5 26.5 -67.5 l0 -62 l63 0 q40 0 66.5 -26.5 q26.5 -26.5 26.5 -66.5 ZM501 308.5 q21 21.5 21 55.5 q0 34 -21 55 q-21 21 -55 21 l-79 0 l0 79 q0 34 -21.5 55.5 q-21.5 21.5 -55.5 21.5 q-34 0 -55 -21.5 q-21 -21.5 -21 -55.5 l0 -232 l232 0 q34 0 55 21.5 Z" /><glyph glyph-name="lozenge" unicode="&#x25ca;" d="M513 525 q17 -75 17 -177 q0 -102 -17 -177 q-17 -75 -66 -122 q-64 -62 -162 -62 q-98 0 -162 62 q-49 47 -66 122 q-17 75 -17 177 q0 102 17 177 q17 75 66 122 q64 62 162 62 q98 0 162 -62 q49 -47 66 -122 ZM385 536 q-30 63 -100 63 q-25 0 -45 -8 q-20 -8 -32.5 -22 q-12.5 -14 -22 -32.5 q-9.5 -18.5 -13 -39.5 q-3.5 -21 -6.5 -43.5 q-3 -22.5 -2.5 -44.5 q0.5 -22 0.5 -42 q0 -13 0 -19 q0 -6 0 -19.5 q0 -13.5 0 -25.5 q0 -12 0 -23 l221 256 ZM406 348 q0 7 0 21.5 q0 14.5 0 27.5 q0 13 0 25 l-222 -260 q29 -65 101 -65 q25 0 45 8 q20 8 32.5 22 q12.5 14 22 32.5 q9.5 18.5 13 39.5 q3.5 21 6.5 43.5 q3 22.5 2.5 44.5 q-0.5 22 -0.5 42 q0 13 0 19 Z" /><glyph glyph-name="apple" unicode="&#xf8ff;" d="M539 364 q0 -41 -26.5 -67.5 q-26.5 -26.5 -66.5 -26.5 l-72 0 q17 -23 17 -54 q0 -40 -26.5 -66.5 q-26.5 -26.5 -66.5 -26.5 l-249 0 l0 248 q0 41 26.5 67.5 q26.5 26.5 66.5 26.5 q30 0 55 -17 l0 71 q0 41 26.5 67.5 q26.5 26.5 66.5 26.5 q40 0 66.5 -26.5 q26.5 -26.5 26.5 -67.5 l0 -62 l63 0 q40 0 66.5 -26.5 q26.5 -26.5 26.5 -66.5 ZM501 308.5 q21 21.5 21 55.5 q0 34 -21 55 q-21 21 -55 21 l-79 0 l0 79 q0 34 -21.5 55.5 q-21.5 21.5 -55.5 21.5 q-34 0 -55 -21.5 q-21 -21.5 -21 -55.5 l0 -232 l232 0 q34 0 55 21.5 Z" /><glyph glyph-name="fi" unicode="&#xfb01;" d="M583 590 l-134 0 l0 131 l134 0 l0 -131 ZM580 0 l-127 0 l0 520 l127 0 l0 -520 ZM379 623 q-42 8 -82 8 q-33 0 -50.5 -17 q-17.5 -17 -17.5 -46 l0 -48 l139 0 l0 -103 l-139 0 l0 -417 l-125 0 l0 417 l-88 0 l0 103 l88 0 l0 50 q0 73 47 118.5 q47 45.5 130 45.5 q44 0 98 -11 l0 -100 Z" /><glyph glyph-name="fl" unicode="&#xfb02;" d="M643 1 q-35 -7 -55 -7 q-67 0 -104.5 34 q-37.5 34 -37.5 106 l0 589 l126 0 l0 -568 q0 -25 10 -37.5 q10 -12.5 40 -12.5 q6 0 12 0.5 q6 0.5 9 0.5 l0 -105 ZM379 623 q-42 8 -82 8 q-33 0 -50.5 -17 q-17.5 -17 -17.5 -46 l0 -48 l139 0 l0 -103 l-139 0 l0 -417 l-125 0 l0 417 l-88 0 l0 103 l88 0 l0 50 q0 73 47 118.5 q47 45.5 130 45.5 q44 0 98 -11 l0 -100 Z" /></font>
</defs>
</svg>
