<svg id="Layer_1" data-name="Layer 1" xmlns="http://www.w3.org/2000/svg" viewBox="0 0 1294 63.85"><defs><style>.cls-1{fill:#fff;}</style></defs><title>standardpage-header</title><path class="cls-1" d="M4135,543.3l-8.52-1-14.08-1.55-14.7-1.55-7.24-.73-7.18-.71L4024.79,532l-14.91-1.46-7.76-.72-8-.71-8.12-.73-8.06-.7-16.09-1.33c-10.8-.87-17.6-1.61-25.67-2.41l-6.38-.61-3.15-.28-3.56-.28c-4.49-.35-9.74-0.71-16.24-1.08L3881,520.17l-25.12-1.31-25.1-1.24-22.93-1.05c-1.93-.1-3.77-0.15-5.63-0.22l-5.56-.19-11.12-.35-5.55-.17-2.77-.08-2.45-.05-8.89-.13-17.59-.24c-5.82-.07-11.53-0.16-17.36-0.17h-11.23l-1.78,0-3.57,0-15,.18-13.85.21-14.4.36-14.58.39c-5,.14-9.77.25-15.1,0.45L3610,517.7,3576.48,519l-35.92,1.61-9.07.4-4.54.2-2.27.1-2.73.09-24.14.66-12.07.33-3,.08c-0.36,0-1.38,0-2.14,0l-2.42,0-9.69-.06-19.36-.12-24.9-.37c2.34,0.06,3.71.11,4,.14l-12-.18-6-.09-3,0h-1l-0.9,0-14.38.33-28.82.67-7.22.17-5.83.24-11.5.49-18.43,1c-2.83.16-5.62,0.33-7.58,0.48l-5.82.46-4.58.42-3.51.38c-2,.24-3.63.46-5.35,0.62l-1.23.11-1.32.09-1.29.06-1.4,0c-2.53.06-4.3,0.05-6.44,0.08l-1.71,0-0.91,0-1.51.09-6.19.37-12.35.75-6.71.5-7.68.62-16,1.33-8.12.74-9,.88-17.84,1.8-9.49,1-9.74,1.07-9.75,1.07-10.35,1.2-20.76,2.43-44,5.36-47,5.69-12.08,1.46-6.06.73-3,.37-1.51.18-1.3.18-5.11.74c-1.7.25-3.45,0.49-4.94,0.74l-8.79,1.39C2979.33,562.28,2976,564,2976,564v13h3.65l0.22,0-0.12,0H2980a0.21,0.21,0,0,1-.12,0l0.3,0c4.46,0,8.92.12,13.39,0.15l40.12,0.25-29.23-.21,180.4,0.82c65.65,0.27,131.16.57,179.33,0.49,109.27-.13,229.57-0.28,354.1-0.12L3905.43,577h0.6l-88.13.83-95.52.62,201.13,0.35,225.41-.6c17.81-.19,35.57-0.19,47.47-0.58l6.3-.38,3.13-.19,0.91,0H4270V558.75C4266.83,557.16,4146.43,544.65,4135,543.3Zm-591.86,33.91-30.95.16-63.82.28-2.62.11-9.25,0-14.74.17c-43.14.1-86.45,0.15-131.68,0.07h-11.81l-41.5-.15,53.31,0.15c51.17,0,91-.42,146.42-0.24l9.42-.06h2.45c15.32-.54,54-0.56,87.37-0.55a9.75,9.75,0,0,1-1.1-.07s0,0,.12,0h34.78Zm11.23-54.92-10.64.44-13.29.41c-6.72.27-12.42,0.6-17.31,0.89l-3.53.21h-2.52l-2.59,0-9.17,0-7.6,0-3.9,0-4.82,0-20.83-.13-5.37,0-2.71,0h-1.36l-0.91,0-7,.23-14.44.45-14.91.46-7.57.23-6.33.29-6.31.3-3.11.15-2.69.15-10.51.61c-2.08.18-4.46,0.35-7.07,0.52l-7.72.45-8.24.37-8,.29-7.36.21-3.42.07-3.19,0c-4.11,0-7.34,0-10.11,0-1.37,0-1.44,0-1,.07s1.53,0.12,2.74.18l-2.46,0H3318l-1.38,0-5.24.16-8.94.33-7.59.35-7.28.46-17.17,1.31-23,1.63,9.34-.52,9.11-.43-6.49.5-6.37.56-12.74,1.22-14,1.36L3208.72,538l-7.81.77-7.16.83-12.52,1.56-11.6,1.49c-3.91.5-7.94,1-12.34,1.49l-58.89,7.17L3069.22,555l-3.55.45-3.34.45-6.49.89-12.21,1.75c-10.45,2.12-20.46,4-30.28,5.72,1.46-.35,4.24-0.87,7.08-1.39s5.72-1,7.24-1.41l11.74-2.95c7.2-1.14,15-2.41,25.36-3.74l32.24-4.11,63.39-8,22.79-2.83,11.11-1.39,10.91-1.22,13.13-1.42,12.46-1.21,12.28-1.17,6.05-.55,5.71-.47,22.35-1.71,5.36-.39,4.82-.29,9.25-.47,9.11-.46L3308,529l1.13-.06,0.57,0h3.51c3.89,0,7.24.08,12-.06l3.81-.13,4.27-.2,10.3-.55,27.84-1.61,6.51-.38,7.54-.39,7.87-.39,1,0,1.2,0L3398,525l4.9-.16,19.83-.64,10-.32,5-.16,1.26,0h1.86l4.08,0,32.38,0.27c8.69,0,17.34,0,25.9,0H3504l0.33,0,0.26,0,1,0,2.08-.07,4.15-.14,8.24-.29,16.14-.56,36.26-1.45,3.18,0Zm104-3.19,0.58,0,0.91,0.08Zm16.77,58.51,76.39-.61h28.71C3746.38,577.21,3711.6,577.36,3675.06,577.61Zm347.06-41.41c-9.16-1.16-17.55-2-26.13-2.91l-24.8-2.58-22.09-2.23-21.82-1.79-40.8-3c-6.5-.58-12.78-0.86-19-1.22l-18.2-.92,19.34,0.41c3.3,0.13,6.54.14,9.91,0.36l10.08,0.61,20.84,1.25,21.37,1.52,11,0.89,10.86,1.07,21.77,2.26,23.93,2.82,11.73,1.44,11.91,1.63C4022.23,535.92,4022.25,536.07,4022.12,536.2Zm200.69,22.42c-2.83-.21-5.54-0.76-8.18-1.13l-7.52-.93L4193.95,555l-12.21-1.39c-4.11-.47-8.36-1-13-1.56l-61.93-7.4-30.71-3.59-3.74-.43-3.52-.38-6.84-.73-12.89-1.32c-11.14-.63-21.78-1.34-32.2-2.17,1.56,0,4.52.25,7.54,0.47s6.08,0.44,7.7.48l12.61,0.25c7.62,0.69,15.88,1.41,26.78,2.66l33.94,3.9,66.7,7.74,24,2.82,11.69,1.37c3.82,0.49,4.52.77,9.32,1.59" transform="translate(-2976 -514.94)"/></svg>